<svg xmlns="http://www.w3.org/2000/svg" width="496" height="377" viewBox="0 0 496 377" fill="none"><g clip-path="url(#clip0_5308_22196)"><path d="M393.348 264.324C393.348 264.324 383.524 253.931 395.018 244.991C395.018 244.991 402.445 241.042 400.441 230.157C398.437 219.272 402.052 210.705 412.269 209.9C422.486 209.094 441.977 215.873 441.525 222.867C441.996 224.066 442.075 225.755 441.387 227.799C439.187 234.499 436.141 242.554 438.597 245.128C440.051 246.641 442.429 248.763 445.808 250.315C454.119 254.108 458.953 258.705 458.953 267.94C458.953 282.106 434 274.758 434 274.758L393.368 264.364L393.348 264.324Z" fill="#213344"></path><path d="M236.972 140.503C236.972 170.996 212.255 195.713 181.762 195.713C151.268 195.713 126.551 170.996 126.551 140.503C126.551 110.009 151.268 85.2917 181.762 85.2917C212.255 85.2917 236.972 110.009 236.972 140.503V140.503Z" fill="#FFCE26"></path><path d="M381.855 132.27H209.66C206.405 132.27 203.766 134.909 203.766 138.165V351.149C203.766 354.404 206.405 357.043 209.66 357.043H381.855C385.11 357.043 387.749 354.404 387.749 351.149V138.165C387.749 134.909 385.11 132.27 381.855 132.27Z" fill="white"></path><path d="M86.0941 290.574C86.0941 290.574 78.5296 293.56 74.1678 299.651C69.7863 305.742 59.8837 320.183 56.7793 330.479C53.6749 340.775 50.492 345.804 50.2562 354.803C50.0204 363.802 50.2562 371.524 53.1641 375.925L144.684 376.2L149.459 316.411C149.459 316.411 143.427 302.677 137.022 296.468C130.616 290.26 122.423 286.251 116.332 286.487L86.0941 290.594V290.574Z" fill="#A3EBCD"></path><path d="M151.423 376.278H227.991C233.041 376.278 237.52 373.194 239.112 368.596L257.267 316.156C259.782 308.905 254.143 301.439 246.146 301.439H169.578C164.528 301.439 160.048 304.524 158.457 309.122L140.302 361.562C137.787 368.812 143.426 376.278 151.423 376.278Z" fill="#213344"></path><path d="M315.15 48.8446C315.15 48.8446 309.551 42.6555 310.395 38.4116C311.26 34.1676 315.091 30.7292 318.137 30.3559C321.182 30.0022 325.033 31.8491 325.033 31.8491C325.033 31.8491 327.705 28.9412 334.425 30.7095C341.125 32.4779 344.937 40.5925 344.937 40.5925C344.937 40.5925 352.088 41.5945 352.069 48.5303C352.029 55.466 347.687 62.0284 342.323 66.1349C336.959 70.2413 337.627 70.3985 336.134 70.1823C334.641 69.9662 332.244 69.3375 333.364 63.3448L330.161 54.012C330.161 54.012 325.131 53.5405 328.354 47.1746C328.354 47.1746 323.717 41.6338 317.528 41.8107L315.131 48.825L315.15 48.8446Z" fill="#213344"></path><path d="M383.664 352.858V376.161H462.158L461.922 359.381C461.922 359.381 471.903 355.727 475.008 344.449C478.132 333.171 475.086 323.445 473.633 318.474C472.179 313.483 466.638 298.197 463.435 291.222C460.233 284.267 456.362 274.541 454.201 270.867C452.02 267.193 447.619 260.847 440.29 258.292C432.961 255.738 424.454 255.718 424.454 255.718L409.678 255.424C409.678 255.424 404.904 255.758 397.988 258.233C391.091 260.729 386.906 261.986 379.774 260.748C372.622 259.511 367.337 253.95 364.449 248.901C361.56 243.851 358.869 234.027 358.22 229.901C357.572 225.775 357.316 220.529 357.316 220.529C357.316 220.529 355.568 217.896 343.858 218.427C332.147 218.957 329.122 220.647 328.964 221.099C328.807 221.551 330.045 233.497 332.874 243.949C335.704 254.422 341.637 267.527 348.632 275.524C355.627 283.52 367.376 293.482 380.933 295.329L383.664 352.838V352.858Z" fill="#A3EBCD"></path><path d="M433.882 293.659L385.194 294.032C385.194 294.032 376.058 295.25 375.173 305.035C374.289 314.82 375.507 342.209 375.507 342.209C375.507 342.209 376.627 352.072 385.213 353.153L432.27 352.642C432.27 352.642 424.234 347.71 417.102 341.619C409.95 335.529 406.021 331.029 406.021 331.029C406.021 331.029 411.895 316.293 421.15 309.24L444.432 325.999C444.432 325.999 436.298 304.897 433.882 293.619V293.659Z" fill="#213344"></path><path d="M325.997 294.13V317.904H302.223C302.223 331.029 312.872 341.678 325.997 341.678C339.122 341.678 349.771 331.029 349.771 317.904C349.771 304.779 339.122 294.13 325.997 294.13Z" fill="#213344"></path><path d="M295.346 309.082H318.845V285.583C318.845 285.583 309.197 284.935 301.79 292.912C294.383 300.909 295.346 309.082 295.346 309.082V309.082Z" fill="#FFCE26"></path><path d="M124.408 253.125C124.408 253.125 126.49 255.345 126.982 258.076C128.062 263.971 124.368 267.92 124.368 267.92C124.368 267.92 124.722 278.648 116.863 278.51L116.313 287.018C116.313 287.018 117.177 296.665 114.23 296.979C111.283 297.294 106.862 291.104 106.862 291.104C106.862 291.104 110.261 286.605 110.143 282.597C110.025 278.589 110.084 275.72 106.607 270.671C103.129 265.621 102.775 262.084 103.62 260.1C104.445 258.115 106.371 253.439 106.449 252.044C106.528 250.649 105.585 245.993 105.585 245.993C105.585 245.993 107.275 247.525 107.491 249.333C107.707 251.14 107.53 253.164 107.53 253.164L111.715 252.987L124.427 253.105L124.408 253.125Z" fill="white"></path><path d="M102.029 363.802C102.029 363.802 112.364 358.752 114.623 358.654C116.883 358.556 118.12 358.517 118.12 358.517C118.12 358.517 121.991 355.432 126.726 357.652C126.726 357.652 129.163 355.589 131.638 355.943C134.114 356.277 135.509 359.126 135.509 359.126C135.509 359.126 134.291 363.429 134.507 365.177C134.723 366.926 136.079 372.742 140.539 374.844C140.539 374.844 138.751 377.143 134.487 374.431C134.487 374.431 131.147 376.789 126.412 375.807C126.412 375.807 123.681 376.652 122.03 376.043C120.38 375.433 119.005 374.313 118.356 373.429C117.708 372.545 116.293 369.441 116.293 369.441C116.293 369.441 115.998 376.298 107.746 376.003C107.746 376.003 104.799 374.923 102.992 370.914C101.184 366.906 102.048 363.821 102.048 363.821L102.029 363.802Z" fill="white"></path><path d="M419.601 310.752C419.601 310.752 417.675 307 416.064 303.463C414.433 299.926 413.53 296.881 411.25 297.293C408.971 297.686 409.62 301.478 410.032 302.775C410.445 304.072 412.193 308.846 410.366 309.377C408.539 309.907 405.985 308.886 403.273 306.489C400.581 304.092 395.945 299.612 395.945 299.612C395.945 299.612 393.331 297.883 391.701 299.317C390.07 300.751 391.445 302.795 391.445 302.795C391.445 302.795 389.264 302.697 388.655 303.659C388.066 304.622 387.967 306.214 388.537 306.901C388.537 306.901 385.688 309.043 387.476 312.226C389.264 315.409 396.2 321.362 398.204 322.855C400.189 324.349 405.12 327.571 407.399 327.964C407.399 327.964 409.954 322.58 412.822 318.572C415.691 314.564 419.62 310.772 419.62 310.772L419.601 310.752Z" fill="white"></path><path d="M352.17 222.867C352.17 222.867 352.759 213.063 351.698 209.133C350.657 205.223 349.497 202.59 346.197 201.687C342.876 200.783 339.752 200.075 339.752 200.075H336.117L338.357 204.123L334.978 205.891L332.718 201.903C332.718 201.903 328.14 203.101 327.511 206.54C326.863 209.978 327.059 216.285 328.946 220.077C330.832 223.869 332.541 226.227 336.667 225.991C340.793 225.755 342.915 225.362 345.391 224.223C347.867 223.083 348.161 222.199 348.161 222.199L348.869 223.457L352.17 222.887V222.867Z" fill="white"></path><path d="M406.336 219.369L403.644 232.376C403.644 232.376 402.348 239.116 402.898 242.2C403.448 245.285 403.802 249.529 410.325 249.588L409.657 255.423C409.657 255.423 405.079 267.723 410.698 267.9C416.317 268.077 418.832 264.01 420.777 261.416C422.723 258.823 424.432 255.718 424.432 255.718L424.746 241.788C424.746 241.788 431.014 243.281 431.23 237.544C431.446 231.787 424.766 232.671 424.766 232.671C424.766 232.671 417.241 228.525 413.802 225.853C410.364 223.161 406.336 219.389 406.336 219.389V219.369Z" fill="white"></path><path d="M200.386 337.375C198.048 341.423 198.323 345.942 200.975 347.474C203.628 349.007 207.675 346.983 210.013 342.936C212.351 338.888 212.076 334.369 209.424 332.837C206.771 331.304 202.724 333.328 200.386 337.375Z" fill="#FFCE26"></path><path d="M140.619 128.478C142.545 127.948 144.333 127.457 146.101 126.965C147.103 126.69 148.085 126.435 149.088 126.14C153.135 130.934 157.183 134.785 161.623 138.302C163.038 139.422 164.531 139.658 166.221 139.265C167.93 138.852 169.443 138.047 170.916 137.123C174.512 134.844 177.656 131.995 180.701 129.009C186.222 123.566 191.272 117.692 196.046 111.601C196.321 111.247 196.557 111.149 197.009 111.267C199.976 112.112 202.962 112.937 205.929 113.762C200.408 124.175 194.101 133.665 186.792 142.448C183.098 146.888 179.188 151.113 174.512 154.551C173.019 155.651 171.388 156.595 169.738 157.459C166.162 159.326 162.507 159.286 158.833 157.616C155.237 155.985 152.408 153.412 150.05 150.307C146.651 145.827 144.372 140.778 142.623 135.473C141.877 133.213 141.287 130.895 140.6 128.518L140.619 128.478Z" fill="white"></path><path d="M86.0931 290.574C86.0931 290.574 97.8819 296.036 104.012 292.44C110.123 288.845 110.457 283.5 110.201 279.433C109.946 275.366 106.429 270.022 104.896 267.9C103.364 265.778 103.049 263.342 103.58 260.1C104.11 256.838 106.232 254.657 106.409 252.044C106.586 249.431 104.936 245.148 104.936 245.148C104.936 245.148 107.45 247.27 107.49 249.785C107.529 252.299 107.49 253.164 107.49 253.164L109.887 253.4C109.887 253.4 110.633 252.555 111.282 252.496C111.93 252.437 113.522 253.694 113.522 253.694L121.165 253.4C121.165 253.4 122.658 252.457 123.523 252.791C124.387 253.125 124.918 253.4 124.918 253.4H125.998C125.998 253.4 126.273 247.486 125.252 244.735C124.23 241.984 123.228 239.862 117.884 239.037C112.539 238.192 107.156 237.564 102.165 240.629C102.165 240.629 89.1386 239.685 88.2544 251.16C88.2544 251.16 90.8479 265.798 91.4963 269.924C92.1447 274.03 93.0878 277.94 89.0207 279.335C84.9536 280.73 80.0219 281.241 78.7644 285.878C77.507 290.515 78.0375 292.499 79.9433 294.071L86.1128 290.593L86.0931 290.574Z" fill="#213344"></path><path d="M116.86 278.51L116.35 286.468L121.183 287.391C121.183 287.391 123.246 285.996 122.892 282.951C122.539 279.905 120.947 277.724 120.947 277.724C120.947 277.724 117.705 279.1 116.86 278.51V278.51Z" fill="#213344"></path><path d="M271.985 81.6175C271.985 81.6175 279.648 106.531 280.159 108.083C280.669 109.636 282.595 120.422 288.725 119.931C294.836 119.44 296.702 112.956 297.508 110.952C298.313 108.968 302.95 97.1198 306.487 92.2274C310.004 87.3351 315.446 84.0342 321.164 83.6216C326.882 83.209 344.545 82.7768 349.182 85.9008C353.819 89.0445 362.189 99.3596 368.535 112.406C374.882 125.452 376.453 126.67 376.964 131.956L362.798 132.329L320.712 132.113C320.712 132.113 315.525 140.09 309.768 144.589C309.768 144.589 305.229 147.399 302.695 148.637C300.16 149.875 292.93 152.468 285.699 152.232C278.469 151.997 268.252 149.914 261.748 141.229C255.245 132.545 252.946 126.769 251.414 121.699C249.881 116.65 247.111 106.02 245.932 99.2614C244.753 92.5025 243.594 85.999 243.594 85.999C243.594 85.999 245.657 82.0301 256.836 80.3601C268.016 78.69 271.985 81.6175 271.985 81.6175V81.6175Z" fill="#CDCDFA"></path><path d="M345.191 224.301L347.294 228.27C347.294 228.27 349.101 228.938 349.848 228.27C350.595 227.602 350.339 226.188 350.339 226.188L348.178 222.179C348.178 222.179 346.449 224.125 345.191 224.301V224.301Z" fill="white"></path><path d="M320.001 78.6507V74.7997C320.001 74.7997 313.4 74.0334 312.044 71.5381C310.688 69.0625 310.728 66.7637 311.16 65.5455C311.592 64.3273 312.103 60.7907 312.103 60.7907C312.103 60.7907 308.252 58.0793 308.684 56.5664C309.116 55.0731 314.539 51.4579 314.539 51.4579L316.818 41.6536C316.818 41.6536 325.699 42.8717 327.959 47.4694C327.959 47.4694 325.719 53.5799 329.845 53.9336C329.845 53.9336 331.849 51.2025 335.091 52.067C338.333 52.9119 339.571 54.6016 339.846 57.8631C340.121 61.1247 336.958 63.5414 333.048 63.2663C333.048 63.2663 332.124 69.5733 334.325 69.8877C336.525 70.2021 337.94 69.1018 337.94 69.1018L338.667 76.9806L320.021 78.6311L320.001 78.6507Z" fill="white"></path><path d="M266.818 85.2917C266.818 85.2917 265.914 80.3601 266.228 74.1317C266.523 67.9229 265.855 66.9209 266.503 64.1702C267.152 61.3998 269.726 57.6077 267.309 57.0183C264.892 56.4092 261.768 56.6843 260.491 59.1206C259.234 61.5766 258.153 67.3138 257.367 68.0801C256.581 68.8464 254.95 69.5537 253.87 69.1804C252.789 68.8071 252.023 67.9426 251.374 66.3707C250.726 64.7792 248.958 59.9655 246.639 57.6667C244.321 55.3679 241.354 53.0101 238.918 53.7764C236.501 54.5426 236.422 56.5664 236.422 56.5664C236.422 56.5664 232.807 56.5664 232.866 60.1423C232.866 60.1423 233.2 61.5373 235.008 64.0326C236.815 66.5476 238.092 68.3552 239.075 70.6736C240.057 72.9921 241.727 77.8451 244.655 80.1243C247.582 82.4035 249.92 83.7199 250.274 87.5709C250.274 87.5709 252.259 87.9246 257.976 87.3548C263.694 86.785 266.857 85.331 266.857 85.331L266.818 85.2917Z" fill="white"></path><path d="M266.246 80.1047L267.13 85.2918C267.13 85.2918 272.691 83.2681 272.435 81.8534C272.18 80.4388 266.246 80.1047 266.246 80.1047Z" fill="#3A3A3A"></path><path d="M247.756 82.6985C247.756 82.6985 250.173 85.5278 250.133 87.5515C250.133 87.5515 244.141 87.5515 243.728 86.2351C243.316 84.9187 247.756 82.6985 247.756 82.6985V82.6985Z" fill="#3A3A3A"></path><path d="M314.031 84.6044L317.548 78.71C317.548 78.71 338.631 76.3522 342.364 76.8041L347.079 83.7595C347.079 83.7595 330.791 82.3252 326.036 82.7182C321.281 83.1111 314.012 84.5847 314.012 84.5847L314.031 84.6044Z" fill="white"></path><path d="M324.796 74.2498L319.982 78.2972V74.7999L324.796 74.2498Z" fill="#C9C9C9"></path><path d="M101.695 363.802L112.011 359.106C112.011 359.106 116.864 357.809 118.121 358.517C118.121 358.517 121.874 356.08 126.059 357.22C126.059 357.22 124.723 355.118 122.286 353.703C119.87 352.288 115.233 350.658 112.227 351.502C109.22 352.347 102.796 354.96 101.695 363.802V363.802Z" fill="#213344"></path><path d="M111.008 376.18H121.421C121.421 376.18 117.197 373.213 116.49 369.893C116.49 369.893 113.366 375.434 111.027 376.18H111.008Z" fill="#213344"></path><path d="M248.484 301.263L243.022 298.06H166.179C166.179 298.06 157.219 296.606 153.27 306.076L135.351 360.187C135.351 360.187 130.262 375.1 147.552 376.298C147.67 375.787 140.322 372.467 139.811 366.553C139.3 360.619 145.371 346.866 145.371 346.866L159.184 307.236C159.184 307.236 164.057 301.439 168.595 301.459L248.484 301.302V301.263Z" fill="white"></path><path d="M269.35 33.9716C269.35 45.3674 260.116 54.5823 248.74 54.5823C237.363 54.5823 228.129 45.3478 228.129 33.9716C228.129 22.5954 237.363 13.3608 248.74 13.3608C260.116 13.3608 269.35 22.5954 269.35 33.9716Z" fill="#FFCE26"></path><path d="M248.721 57.5098V60.064C248.721 60.064 249.959 62.5397 250.568 64.642C251.177 66.764 251.746 69.1021 255.047 69.0039C258.348 68.9056 258.171 61.4197 260.117 59.4353V57.1758C260.117 57.1758 258.446 58.1385 254.871 58.0599C251.295 57.9813 248.721 57.5098 248.721 57.5098V57.5098Z" fill="#213344"></path><path d="M269.745 178.915H258.703V192.904H269.745V178.915Z" fill="#FFCE26"></path><path d="M251.196 171.429H240.232V192.727H251.196V171.429Z" fill="#213344"></path><path d="M121.185 253.4C121.185 253.4 122.678 252.457 123.543 252.791C124.407 253.125 124.938 253.4 124.938 253.4H126.019C126.019 253.4 126.294 247.486 125.272 244.735C124.25 241.984 123.248 239.862 117.904 239.037C115.173 238.605 112.442 238.232 109.75 238.389C113.837 238.939 118.395 240.373 119.653 244.047C121.048 248.075 121.146 251.356 120.969 253.439H121.205L121.185 253.4Z" fill="white"></path><path d="M110.203 279.434C109.947 275.366 106.43 270.022 104.898 267.9C103.365 265.778 103.051 263.342 103.581 260.1C103.68 259.511 103.837 258.96 104.014 258.43C104.014 258.43 101.617 262.458 103.188 268.883C104.623 274.757 110.91 288.491 97.4512 293.6C99.8286 293.757 102.147 293.502 103.974 292.421C110.085 288.825 110.419 283.481 110.163 279.414L110.203 279.434Z" fill="white"></path><path d="M120.951 277.724C120.951 277.724 119.988 278.137 118.986 278.412C119.694 280.102 120.303 282.97 119.222 287.018L121.187 287.391C121.187 287.391 123.25 285.996 122.896 282.951C122.543 279.905 120.951 277.724 120.951 277.724V277.724Z" fill="white"></path><path d="M317.508 35.5828C317.861 32.9303 320.062 31.496 321.928 30.7494C320.73 30.435 319.374 30.2189 318.136 30.376C315.091 30.7297 311.26 34.1878 310.395 38.4317C309.531 42.656 315.15 48.8648 315.15 48.8648L317.547 41.8505C322.518 41.7129 326.487 45.2692 327.862 46.6642C326.644 42.0076 316.899 40.2393 317.527 35.6221L317.508 35.5828Z" fill="white"></path><path d="M334.425 30.7095C327.725 28.9412 325.033 31.8491 325.033 31.8491L327.332 33.421C327.332 33.421 330.594 29.3931 338.846 32.9691C337.549 31.9867 336.075 31.1615 334.425 30.7095Z" fill="white"></path><path d="M269.959 147.93C269.959 147.93 273.692 136.495 286.051 137.28C298.429 138.066 301.199 147.026 301.946 148.264C301.946 148.264 295.285 152.291 285.402 151.957C275.519 151.623 269.939 147.93 269.939 147.93H269.959Z" fill="#FFCE26"></path><path d="M232.805 193.218H221.763C221.291 192.747 221.291 158.481 221.291 158.481C221.763 158.009 232.805 158.009 232.805 158.009C233.276 158.481 233.276 169.483 233.276 169.483C232.333 169.483 232.333 158.932 232.333 158.932H222.234V192.275H232.333V182.176C233.276 182.176 233.276 192.747 233.276 192.747C233.276 193.002 233.06 193.218 232.805 193.218V193.218Z" fill="#213344"></path><path d="M251.275 193.218H240.233C239.762 192.747 239.762 171.429 239.762 171.429C240.233 170.957 251.256 170.957 251.256 170.957C251.727 171.429 251.727 192.747 251.727 192.747C251.727 193.002 251.511 193.218 251.256 193.218H251.275ZM240.705 192.295H250.804V171.9H240.705V192.295Z" fill="#213344"></path><path d="M269.744 193.218H258.702C258.23 192.747 258.23 184.298 258.23 184.298C259.154 184.298 259.154 192.275 259.154 192.275H269.253V179.622H262.258C262.258 178.698 269.725 178.698 269.725 178.698C270.196 179.17 270.196 192.747 270.196 192.747C270.196 193.002 269.98 193.218 269.725 193.218H269.744Z" fill="#213344"></path><path d="M353.364 167.185H296.621C296.621 166.261 353.364 166.261 353.364 166.261C353.836 166.988 353.62 167.185 353.364 167.185Z" fill="#213344"></path><path d="M353.366 189.466H329.965C329.965 188.542 353.366 188.542 353.366 188.542C353.837 189.269 353.621 189.466 353.366 189.466Z" fill="#213344"></path><path d="M325.445 189.466H296.621C296.621 188.542 325.445 188.542 325.445 188.542C325.916 189.269 325.7 189.466 325.445 189.466Z" fill="#213344"></path><path d="M353.363 197.934H334.973C334.973 197.01 353.363 197.01 353.363 197.01C353.835 197.737 353.619 197.934 353.363 197.934Z" fill="#213344"></path><path d="M329.964 197.934H296.621C296.621 197.01 329.964 197.01 329.964 197.01C330.435 197.737 330.219 197.934 329.964 197.934Z" fill="#213344"></path><path d="M353.363 175.653H322.535C322.535 174.73 353.363 174.73 353.363 174.73C353.834 175.457 353.618 175.653 353.363 175.653Z" fill="#213344"></path><path d="M317.605 175.653H296.621C296.621 174.73 317.605 174.73 317.605 174.73C318.077 175.457 317.861 175.653 317.605 175.653Z" fill="#213344"></path><path d="M274.046 234.047H217.303C217.303 233.123 274.046 233.123 274.046 233.123C274.518 233.85 274.302 234.047 274.046 234.047Z" fill="#213344"></path><path d="M274.046 256.328H217.303C217.303 255.404 274.046 255.404 274.046 255.404C274.518 256.131 274.302 256.328 274.046 256.328Z" fill="#213344"></path><path d="M274.046 264.796H217.303C217.303 263.872 274.046 263.872 274.046 263.872C274.518 264.599 274.302 264.796 274.046 264.796Z" fill="#213344"></path><path d="M274.046 242.515H217.303C217.303 241.592 274.046 241.592 274.046 241.592C274.518 242.319 274.302 242.515 274.046 242.515Z" fill="#213344"></path><path d="M329.964 234.047H296.621C296.621 233.123 329.964 233.123 329.964 233.123C330.435 233.85 330.219 234.047 329.964 234.047Z" fill="#213344"></path><path d="M336.683 256.328H296.621C296.621 255.404 336.683 255.404 336.683 255.404C337.155 256.131 336.939 256.328 336.683 256.328Z" fill="#213344"></path><path d="M340.731 264.795H296.621C296.621 263.872 340.731 263.872 340.731 263.872C341.202 264.599 340.986 264.795 340.731 264.795Z" fill="#213344"></path><path d="M332.439 242.515H296.621C296.621 241.592 332.439 241.592 332.439 241.592C332.911 242.319 332.695 242.515 332.439 242.515Z" fill="#213344"></path><path d="M461.924 375.571C461.82 371.091 461.676 366.009 461.492 360.324V359.401C462.396 359.362 462.416 360.305 462.416 360.305C462.599 366.003 462.599 370.744 462.416 374.53C462.376 375.394 462.16 375.591 461.924 375.591V375.571Z" fill="#213344"></path><path d="M444.965 326.982C436.831 311.381 431.84 286.802 431.801 286.546C432.764 286.605 437.715 311.087 445.378 326.294C445.102 326.962 445.024 326.962 444.965 326.962V326.982Z" fill="#213344"></path><path d="M383.445 376.632C382.974 376.062 383.17 365.374 383.19 352.858C384.094 365.374 383.917 376.062 383.897 376.18C383.897 376.436 383.681 376.632 383.426 376.632H383.445Z" fill="#213344"></path><path d="M385.195 294.504C385.667 286.251 387.691 278.608 389.262 274.05C388.575 278.883 386.59 286.428 385.647 294.091C385.628 294.327 385.411 294.504 385.195 294.504Z" fill="#213344"></path><path d="M412.822 250.06C411.899 250.06 410.975 250.06 410.229 250.001C408.559 249.942 407.282 249.667 406.181 249.156C404.315 248.292 403.175 246.68 402.704 244.244C401.996 240.55 402.546 236.798 403.057 233.163C403.45 230.432 405.788 219.448 405.906 219.173C406.692 219.881 404.413 230.255 404.059 232.77C403.47 236.837 402.939 240.511 403.607 244.048C404.02 246.17 404.983 247.565 406.555 248.292C407.517 248.744 408.696 248.979 410.248 249.038C411.781 249.097 414.021 249.117 415.632 248.999C414.846 249.981 413.805 250.021 412.803 250.021L412.822 250.06Z" fill="#213344"></path><path d="M424.765 233.124C408.909 224.734 405.333 218.84 405.176 218.584C406.021 218.172 409.636 224.066 424.981 232.259C425.079 233.045 424.922 233.143 424.765 233.143V233.124Z" fill="#213344"></path><path d="M416.514 230.176C416.161 230.078 415.885 230.196 415.61 231.512C415.296 232.986 415.65 233.28 415.984 233.32C416.318 233.359 416.711 232.927 416.829 231.866C416.946 230.805 416.986 230.314 416.514 230.176V230.176Z" fill="#213344"></path><path d="M406.712 228.624C406.358 228.506 406.083 228.624 405.769 229.921C405.415 231.375 405.769 231.689 406.083 231.728C406.417 231.768 406.83 231.375 406.987 230.314C407.144 229.253 407.203 228.761 406.731 228.604L406.712 228.624Z" fill="#213344"></path><path d="M405.117 225.775C405.51 224.498 406.571 224.006 408.477 224.792C406.669 225.067 405.923 225.342 405.373 225.716C405.294 225.775 405.196 225.794 405.117 225.794V225.775Z" fill="#213344"></path><path d="M426.416 242.534C425.1 242.456 424.177 242.142 423.391 241.591C424.57 241.277 425.336 241.552 426.141 241.591C427.301 241.69 428.44 241.277 429.324 240.511C430.208 239.744 430.739 238.664 430.798 237.505C430.877 236.345 430.484 235.206 429.717 234.322C428.951 233.437 427.87 232.907 426.711 232.828C425.827 232.75 424.982 232.966 424.216 233.418C424.668 232.082 425.689 231.826 426.77 231.905C429.698 232.101 431.918 234.636 431.721 237.564C431.623 238.978 430.994 240.275 429.933 241.218C428.951 242.083 427.713 242.534 426.436 242.534H426.416Z" fill="#213344"></path><path d="M427.144 240.275C426.81 240.138 423.883 237.21 423.883 237.21C423.981 236.463 427.911 234.282 427.911 234.282C428.363 235.108 424.983 236.994 424.983 236.994L427.478 239.47C427.38 240.216 427.262 240.255 427.144 240.255V240.275Z" fill="#213344"></path><path d="M411.445 268.627C410.954 268.627 410.462 268.588 409.951 268.49C409.146 268.333 408.537 267.9 408.124 267.154C406.336 264.049 408.93 256.446 409.205 255.64L409.657 249.549C410.58 249.628 410.128 255.758 410.128 255.758C410.069 255.954 407.299 263.833 408.93 266.682C409.205 267.173 409.598 267.468 410.128 267.566C418.184 269.118 423.803 255.66 423.862 255.522C424.491 256.426 419.402 268.627 411.464 268.627H411.445Z" fill="#213344"></path><path d="M411.62 242.535C411.051 242.535 410.422 242.397 409.754 242.122C411.11 241.67 411.974 241.709 412.662 241.356C413.821 240.766 414.155 239.273 414.175 239.253C415.059 239.528 414.627 241.395 413.094 242.181C412.642 242.417 412.151 242.535 411.62 242.535V242.535Z" fill="#213344"></path><path d="M455.909 274.659C459.131 271.535 458.974 265.208 457.54 261.691C456.38 258.862 454.258 256.288 451.233 254.029C449.032 252.398 446.655 251.199 444.12 249.962L443.314 249.549C441.448 248.626 438.835 247.073 437.833 244.578C436.477 241.238 437.361 238.134 438.383 235.54C438.579 235.068 438.776 234.577 438.972 234.066C440.151 231.198 441.487 227.956 441.35 224.93C441.232 222.297 439.915 218.859 437.636 217.405C434.63 215.479 431.82 214.025 429.561 213.2C427.616 212.513 410.365 206.599 403.96 214.104C401.857 216.56 400.678 220.057 400.364 224.753C400.266 226.423 400.561 228.133 400.836 229.763C401.111 231.394 401.405 233.064 401.327 234.774C401.17 237.917 399.951 240.904 397.849 243.183C397.122 243.969 396.277 244.598 395.452 245.226C394.745 245.757 394.077 246.268 393.468 246.857C392.21 248.095 391.247 249.608 390.697 251.258C389.774 254.009 389.656 257.801 392.151 260.237C388.693 258.174 388.791 253.97 389.813 250.964C390.422 249.195 391.444 247.545 392.8 246.209C393.448 245.58 394.175 245.03 394.882 244.499C395.707 243.89 396.474 243.301 397.142 242.574C399.087 240.472 400.226 237.701 400.364 234.754C400.443 233.163 400.168 231.591 399.873 229.94C399.578 228.251 399.283 226.502 399.382 224.714C399.696 219.802 400.953 216.147 403.193 213.515C409.992 205.538 427.812 211.628 429.816 212.355C432.154 213.2 435.003 214.674 438.088 216.639C440.741 218.348 442.096 222.101 442.234 224.891C442.391 228.133 440.996 231.473 439.778 234.42C439.581 234.911 439.365 235.402 439.188 235.874C438.226 238.291 437.4 241.199 438.619 244.224C439.522 246.445 441.939 247.859 443.668 248.724L444.474 249.117C446.93 250.335 449.445 251.592 451.724 253.282C454.887 255.64 457.107 258.351 458.345 261.338C459.897 265.13 459.996 272.026 456.125 274.581C456.046 274.639 455.948 274.659 455.87 274.659H455.909Z" fill="#213344"></path><path d="M424.276 256.17C423.804 255.699 424.138 242.201 424.138 242.201C425.062 242.22 424.747 255.718 424.747 255.718C424.747 255.974 424.531 256.17 424.276 256.17Z" fill="#213344"></path><path d="M455.379 360.934C439.071 360.934 417.478 344.429 405.67 331.619C405.591 331.069 408.185 324.29 412.586 318.455C417.203 312.324 420.7 308.965 420.74 308.925C421.506 308.984 440.918 321.343 451.449 331.638C441.075 322.797 423.667 311.499 421.113 309.849C420.229 310.733 417.183 313.896 413.332 319.005C409.521 324.074 407.084 329.89 406.554 331.186C424.316 350.343 450.605 366.081 464.594 357.593C487.425 343.742 469.29 304.799 459.544 283.855L458.896 282.44C458.523 281.634 458.13 280.632 457.658 279.473C455.458 273.932 452.137 265.543 444.651 260.984C439.779 258.017 434.749 256.171 424.866 256.171C434.984 255.247 440.113 257.133 445.143 260.198C452.884 264.933 456.42 273.834 458.523 279.139C458.975 280.279 459.368 281.281 459.741 282.047L460.389 283.462C470.253 304.662 488.623 344.095 465.085 358.379C462.197 360.128 458.916 360.894 455.399 360.894L455.379 360.934Z" fill="#213344"></path><path d="M384.685 261.908C379.144 261.908 373.662 260.238 369.32 255.895C366.314 252.889 363.838 249.019 361.756 244.107C358.808 237.19 357.079 228.879 356.883 220.706C358.022 228.742 359.732 236.935 362.62 243.753C364.663 248.567 367.08 252.319 369.988 255.247C377.965 263.263 390.127 261.75 398.831 257.644C402.054 256.131 405.688 255.326 409.677 255.267C405.846 256.269 402.329 257.035 399.244 258.489C394.941 260.513 389.793 261.927 384.704 261.927L384.685 261.908Z" fill="#213344"></path><path d="M380.931 295.82C371.382 295.113 364.741 290.181 357.687 284.974C341.595 273.048 330.691 249.313 328.49 221.492C331.595 248.979 342.381 272.459 358.237 284.228C365.173 289.356 371.716 294.209 380.95 294.897C381.363 295.643 381.166 295.82 380.911 295.82H380.931Z" fill="#213344"></path><path d="M406.829 238.428C406.121 236.974 405.63 234.361 406.534 233.654C407.104 233.221 408.283 233.614 409.186 234.027L410.247 228.231C411.171 228.408 409.992 234.813 409.992 234.813C408.4 234.656 407.359 234.302 407.084 234.4C406.829 234.597 406.907 236.286 407.28 237.858C406.887 238.428 406.868 238.428 406.829 238.428Z" fill="#213344"></path><path d="M352.167 223.319C351.97 218.368 352.029 206.284 349.259 204.005C345.939 201.274 344.406 200.625 340.024 203.966C339.73 204.182 339.435 204.398 339.101 204.634C337.726 205.616 336.154 206.716 336.095 208.072C336.056 208.976 336.704 209.997 338.001 211.117C340.024 212.846 342.873 211.687 347.216 207.404C344.897 210.98 340.614 214.536 337.392 211.825C335.82 210.508 335.093 209.27 335.152 208.033C335.23 206.205 337.077 204.909 338.551 203.867C338.865 203.632 339.18 203.435 339.455 203.219C344.033 199.722 346.056 200.154 349.848 203.278C353.562 206.323 352.658 222.199 352.638 222.887C352.638 223.142 352.422 223.319 352.167 223.319Z" fill="#213344"></path><path d="M386.69 353.742C380.324 353.742 375.117 348.614 375.039 342.228L374.626 305.29C374.587 302.186 375.766 299.258 377.946 297.038C380.127 294.818 383.035 293.56 386.14 293.541L433.963 293.226C433.963 294.15 386.14 294.484 386.14 294.484C383.291 294.523 380.619 295.663 378.614 297.706C376.61 299.749 375.51 302.461 375.549 305.31L375.962 342.248C376.021 348.103 380.815 352.838 386.67 352.838C386.788 352.838 432.411 352.327 432.411 352.327C432.411 353.251 386.788 353.762 386.788 353.762H386.67L386.69 353.742Z" fill="#213344"></path><path d="M398.616 316.686C398.321 316.588 395.904 314.623 393.193 312.403C391.248 310.792 388.148 307.286 387.5 306.5C388.07 305.734 391.601 309.868 393.782 311.676C396.494 313.896 398.891 315.841 398.891 315.841C398.871 316.608 398.734 316.667 398.596 316.667L398.616 316.686Z" fill="#213344"></path><path d="M401.116 312.28C400.821 312.182 398.404 310.217 395.693 307.997C393.748 306.385 390.648 302.879 390 302.094C390.57 301.327 394.101 305.462 396.282 307.27C398.994 309.49 401.391 311.435 401.391 311.435C401.371 312.201 401.234 312.26 401.096 312.26L401.116 312.28Z" fill="#213344"></path><path d="M330.732 223.064C329.219 222.847 328.492 222.297 328.473 221.472C328.473 221.02 328.925 220.47 329.18 220.215C329.396 221.865 330.28 222.062 330.791 222.14C331.145 222.906 330.948 223.064 330.713 223.064H330.732Z" fill="#213344"></path><path d="M348.887 223.889C348.828 222.965 351.225 222.71 351.225 222.71C355.862 221.983 356.884 221 356.864 220.706C356.864 220.391 356.392 220.057 355.567 219.782C354.624 219.586 352.797 219.291 352.384 219.271C353.131 218.289 355.528 218.819 355.803 218.878C356.314 219.055 357.748 219.527 357.768 220.686C357.807 221.963 355.626 222.965 351.323 223.633L348.906 223.889H348.867H348.887Z" fill="#213344"></path><path d="M322.752 312.167H300.373C300.373 311.244 322.281 311.244 322.281 311.244V289.336C323.204 289.336 323.204 311.715 323.204 311.715C323.204 311.971 322.988 312.187 322.732 312.187L322.752 312.167Z" fill="#213344"></path><path d="M80.0051 294.562C78.0796 293.521 77.3526 291.281 77.7456 288.236C78.1189 285.171 79.3567 282.97 81.3804 281.673C81.8127 281.398 82.3235 281.143 82.854 280.907C83.7382 280.553 84.6813 280.298 85.5851 280.062C87.3534 279.591 89.0432 279.158 90.3203 277.979C91.3813 276.997 91.8528 275.366 91.617 273.539C89.7112 259.393 87.8053 251.808 87.7857 251.73C87.9822 247.722 89.7701 244.637 93.0513 242.417C96.6666 239.98 100.852 240.216 101.814 240.314C102.522 239.764 103.367 239.293 104.486 238.821C109.516 236.699 115.902 237.957 119.262 238.9C120.657 239.293 122.661 239.98 124.017 241.493C125.706 243.36 126.178 245.973 126.433 248.527C126.924 253.164 126.61 253.498 126.433 253.714C125.981 253.911 124.94 253.891 124.94 253.891V252.968C125.805 252.614 125.824 251.592 125.529 248.783C125.274 246.268 124.842 243.812 123.329 242.142C122.13 240.806 120.283 240.177 119.006 239.823C115.764 238.919 109.615 237.701 104.84 239.705C103.72 240.177 102.895 240.629 102.247 241.179C101.854 241.277 97.315 240.688 93.5622 243.203C90.5561 245.226 88.9253 248.036 88.7091 251.573C88.9056 252.378 90.7329 259.923 92.5405 273.402C92.8352 275.543 92.2458 277.449 90.9687 278.648C89.5147 279.984 87.6482 280.475 85.8405 280.946C84.9171 281.202 84.0329 281.418 83.2274 281.752C82.7362 281.948 82.2843 282.184 81.8913 282.42C80.1033 283.56 79.0423 285.544 78.6887 288.314C78.4922 289.867 78.4332 292.617 80.2605 293.659C80.3391 294.445 80.1819 294.523 80.0247 294.523L80.0051 294.562Z" fill="#213344"></path><path d="M121.187 253.871C118.023 253.871 113.131 253.793 113.131 253.793V252.869C113.131 252.869 118.043 252.928 121.187 252.948C121.658 253.675 121.442 253.871 121.187 253.871Z" fill="#213344"></path><path d="M98.6284 294.11C92.4786 294.11 86.2698 291.163 85.8965 290.986C86.4073 290.2 97.9996 295.682 104.798 291.713C107.765 289.984 109.415 286.644 109.71 281.83C110.064 276.309 107.038 272.085 105.25 269.57C105.014 269.256 104.817 268.961 104.621 268.686C101.183 263.656 103.383 258.489 104.975 254.716C105.21 254.146 105.446 253.596 105.643 253.085C107.038 249.49 104.169 245.442 104.13 245.403C108.472 247.388 108.177 251.337 107.922 252.83H109.985C109.985 253.773 107.332 253.753 107.332 253.753C106.939 253.007 107.647 250.59 106.507 248.154C106.998 249.686 107.215 251.573 106.507 253.419C106.311 253.95 106.075 254.5 105.82 255.07C104.208 258.842 102.224 263.538 105.368 268.155C105.544 268.411 105.761 268.706 105.977 269.02C107.843 271.633 110.987 276.015 110.614 281.87C110.299 287.018 108.492 290.593 105.23 292.499C103.246 293.658 100.927 294.091 98.5891 294.091L98.6284 294.11Z" fill="#213344"></path><path d="M63.9922 367.201C78.8068 353.172 112.582 351.011 112.916 350.991C112.641 351.934 79.1801 354.096 64.3066 367.083C64.228 367.162 64.1101 367.201 63.9922 367.201V367.201Z" fill="#213344"></path><path d="M53.184 376.376C42.8884 357.043 57.0939 325.076 67.0162 309.2C69.3936 305.408 72.0068 301.419 75.0522 297.824C77.9011 294.503 81.7914 292.303 85.8782 290.161C82.3219 293.089 78.4906 295.23 75.7595 298.433C72.7534 301.97 70.1598 305.938 67.8021 309.691C58.6461 324.329 43.8905 356.945 53.5769 375.708C53.3019 376.376 53.2429 376.396 53.1643 376.396L53.184 376.376Z" fill="#213344"></path><path d="M149.477 316.844C148.888 316.156 148.711 315.763 148.534 315.35C141.421 298.925 132.383 290.103 120.064 287.607C119.101 287.411 116.193 286.9 116.193 286.9L116.351 285.977C116.351 285.977 119.278 286.487 120.26 286.684C132.717 289.218 142.247 298.473 149.398 314.977C149.575 315.37 149.752 315.783 149.909 316.195C149.595 316.824 149.536 316.844 149.477 316.844V316.844Z" fill="#213344"></path><path d="M116.982 278.982C116.491 278.982 116.019 278.943 115.626 278.923C114.074 278.785 111.795 278.51 110.184 278.196C111.932 277.607 114.172 277.882 115.705 278C117.257 278.137 118.436 278.039 119.457 277.724C121.108 277.214 122.247 275.956 122.915 273.893C123.721 271.457 123.898 269.335 123.937 266.938C124.821 269.453 124.625 271.634 123.8 274.188C123.033 276.546 121.697 278 119.733 278.609C118.789 278.903 117.827 278.982 116.962 278.982H116.982Z" fill="#213344"></path><path d="M114.012 297.47C111.419 297.47 107.214 292.342 106.33 291.222C109.238 293.384 112.912 297.038 114.268 296.488C115.84 295.879 116.056 290.024 115.82 286.487L116.233 278.608C117.156 278.648 116.744 286.487 116.744 286.487C116.861 288.079 117.274 296.331 114.602 297.372C114.425 297.451 114.229 297.47 114.012 297.47V297.47Z" fill="#213344"></path><path d="M121.657 287.489C124.368 282.4 120.281 278.097 120.242 278.039C120.95 277.449 125.567 282.302 122.03 287.293C121.932 287.411 121.794 287.489 121.657 287.489Z" fill="#213344"></path><path d="M82.8895 357.515C80.8264 340.755 89.8842 313.739 89.9824 313.484C90.7683 314.053 81.7695 340.873 83.361 357.024C82.9288 357.534 82.9091 357.534 82.8895 357.534V357.515Z" fill="#213344"></path><path d="M116.607 271.476C115.88 271.476 115.251 271.299 114.701 270.907C113.286 269.924 113.09 268.018 113.07 267.94C113.994 267.861 114.171 269.413 115.232 270.14C115.86 270.572 116.725 270.651 117.766 270.356C117.511 271.398 117.039 271.457 116.607 271.457V271.476Z" fill="#213344"></path><path d="M201.544 345.451C200.738 345.451 199.992 345.254 199.324 344.881C196.455 343.211 196.102 338.397 198.558 334.153C199.736 332.13 201.367 330.518 203.155 329.615C205.002 328.691 206.81 328.632 208.244 329.457C211.113 331.127 211.466 335.941 209.01 340.185C207.831 342.209 206.201 343.82 204.413 344.724C203.43 345.215 202.448 345.47 201.544 345.47V345.451ZM206.024 329.791C205.257 329.791 204.432 330.007 203.587 330.44C201.957 331.265 200.463 332.739 199.383 334.625C197.182 338.436 197.379 342.68 199.795 344.075C200.935 344.743 202.428 344.665 204 343.879C205.631 343.054 207.124 341.58 208.205 339.694C210.405 335.882 210.209 331.638 207.792 330.243C207.262 329.949 206.672 329.791 206.043 329.791H206.024Z" fill="#213344"></path><path d="M146.218 376.73C142.268 376.73 138.673 374.883 136.354 371.681C134.036 368.478 133.427 364.49 134.665 360.737L152.819 305.919C154.47 300.928 159.107 297.569 164.372 297.569H240.941C241.844 297.569 242.748 297.667 243.632 297.863C242.611 298.59 241.766 298.492 240.941 298.492H164.372C159.519 298.492 155.236 301.596 153.703 306.194L135.549 361.012C134.409 364.49 134.959 368.164 137.101 371.131C139.243 374.097 142.563 375.787 146.218 375.787C146.689 376.514 146.473 376.711 146.218 376.711V376.73Z" fill="#213344"></path><path d="M227.993 376.73H151.424C147.397 376.73 143.644 374.824 141.365 371.641C139.203 368.615 138.673 364.882 139.871 361.385L158.026 308.925C159.677 304.15 164.333 300.928 169.579 300.928H246.147C250.175 300.928 253.928 302.834 256.207 306.017C258.368 309.043 258.918 312.776 257.7 316.273L239.546 368.714C237.895 373.488 233.258 376.71 227.993 376.71V376.73ZM169.579 301.871C164.726 301.871 160.443 304.838 158.91 309.239L140.756 361.699C139.655 364.882 140.146 368.321 142.131 371.091C144.233 374.038 147.711 375.787 151.424 375.787H227.993C232.846 375.787 237.149 372.82 238.661 368.419L256.816 315.979C257.916 312.776 257.425 309.357 255.441 306.587C253.338 303.64 249.861 301.891 246.147 301.891H169.579V301.871Z" fill="#213344"></path><path d="M123.76 376.731C117.178 376.731 115.547 369.009 115.547 367.928C116.471 368.007 117.532 375.807 123.76 375.807C125.195 375.807 126.118 375.473 126.511 374.844C127.356 373.469 125.882 370.659 124.821 368.596C124.566 368.086 124.31 367.634 124.134 367.221C123.917 366.769 123.721 366.258 123.505 365.689C122.267 362.486 120.538 358.104 114.486 359.146C114.447 359.146 106.804 361.327 102.305 364.451C106.411 360.462 113.956 358.321 114.29 358.242C121.147 357.043 123.092 362.054 124.389 365.354C124.605 365.905 124.802 366.416 124.998 366.848C125.175 367.241 125.43 367.693 125.666 368.184C126.904 370.561 128.417 373.508 127.317 375.336C126.747 376.279 125.548 376.75 123.76 376.75V376.731Z" fill="#213344"></path><path d="M129.282 376.73C131.797 375.63 133.408 374.923 133.88 373.764C134.312 372.703 133.703 371.484 133.055 370.757C132.249 369.873 131.542 368.007 130.697 365.865C129.636 363.154 128.437 360.108 126.885 358.399C124.311 355.589 118.417 358.89 118.358 358.929C118.162 357.967 124.488 354.43 127.573 357.77C129.263 359.597 130.481 362.761 131.581 365.531C132.347 367.515 133.094 369.382 133.762 370.148C134.627 371.111 135.353 372.683 134.764 374.137C134.332 375.198 133.035 376.514 129.322 376.75H129.282V376.73Z" fill="#213344"></path><path d="M107.295 376.75C106.961 376.75 106.627 376.73 106.312 376.691C106.823 375.827 107.275 375.827 107.747 375.807C115.292 375.434 115.822 369.618 115.842 369.382C116.765 369.52 116.156 376.318 107.806 376.73C107.649 376.73 107.472 376.73 107.315 376.73L107.295 376.75Z" fill="#213344"></path><path d="M107.57 376.73C102.855 373.704 100.536 368.242 101.401 362.721C102.599 355.117 109.456 349.871 116.648 351.011C118.986 351.384 122.562 352.386 126.629 356.729C122.07 353.231 118.691 352.288 116.51 351.934C109.83 350.854 103.444 355.785 102.324 362.878C101.499 368.046 103.66 373.135 107.826 375.885C107.865 376.671 107.727 376.73 107.57 376.73V376.73Z" fill="#213344"></path><path d="M135.334 360.305C134.882 359.932 134.174 357.338 132.328 356.572C129.989 355.609 127.062 357.967 127.042 357.986C126.59 357.141 129.852 354.528 132.701 355.707C134.98 356.65 135.766 359.597 135.805 359.715C135.432 360.305 135.393 360.305 135.353 360.305H135.334Z" fill="#213344"></path><path d="M137.787 376.239C135.39 376.239 133.897 374.451 133.877 374.412C134.683 373.94 136.844 376.494 140.145 374.628C139.575 376.023 138.632 376.239 137.787 376.239V376.239Z" fill="#213344"></path><path d="M133.523 357.259C140.872 328.475 134.722 310.969 134.663 310.792C135.606 310.654 141.854 328.416 133.975 356.906C133.916 357.122 133.74 357.24 133.523 357.24V357.259Z" fill="#213344"></path><path d="M250.254 302.579C250.018 302.52 243.318 298.728 243.318 298.728C243.77 297.903 250.49 301.695 250.49 301.695C250.588 302.481 250.431 302.559 250.254 302.559V302.579Z" fill="#213344"></path><path d="M204.297 286.861H163.39C162.958 286.252 170.09 266.054 170.09 266.054C170.974 266.368 164.038 285.937 164.038 285.937H204.277C204.749 286.664 204.533 286.861 204.277 286.861H204.297Z" fill="#213344"></path><path d="M214.65 257.939H181.76C181.76 257.015 214.65 257.015 214.65 257.015C215.122 257.742 214.906 257.939 214.65 257.939Z" fill="#213344"></path><path d="M204.297 286.86C203.904 286.743 203.766 286.487 203.865 286.251L214.081 257.349C214.966 257.663 204.729 286.566 204.729 286.566C204.65 286.762 204.474 286.88 204.297 286.88V286.86Z" fill="#213344"></path><path d="M111.853 267.605C109.416 267.605 107.412 264.324 107.275 260.08C107.137 255.797 108.984 252.358 111.46 252.28C113.994 252.28 115.979 255.561 116.116 259.785C116.254 264.069 114.407 267.507 111.931 267.586C111.912 267.586 111.872 267.586 111.853 267.586V267.605ZM111.538 253.223C109.593 253.282 108.1 256.406 108.198 260.06C108.316 263.676 109.967 266.682 111.853 266.682C113.798 266.623 115.291 263.499 115.193 259.844C115.075 256.229 113.425 253.223 111.538 253.223Z" fill="#213344"></path><path d="M123.444 267.605C122.639 267.605 122.03 267.35 121.401 266.76C122.521 266.525 122.934 266.662 123.523 266.682C125.409 266.623 126.922 263.499 126.804 259.844C126.686 256.229 125.036 253.223 123.15 253.223C121.205 253.282 119.711 256.406 119.81 260.061C119.849 261.514 120.045 262.517 120.438 263.538C119.122 262.752 118.925 261.652 118.886 260.1C118.749 255.817 120.595 252.378 123.071 252.3C125.606 252.3 127.59 255.581 127.728 259.805C127.865 264.088 126.018 267.527 123.543 267.605C123.503 267.605 123.464 267.605 123.444 267.605Z" fill="#213344"></path><path d="M119.044 261.043C118.572 260.728 117.551 259.609 115.939 260.827C117.295 258.626 118.847 259.589 119.397 260.277C119.24 261.004 119.142 261.023 119.024 261.023L119.044 261.043Z" fill="#213344"></path><path d="M248.722 61.1053C248.25 60.6337 248.25 57.5097 248.25 57.5097C252.435 57.883 256.384 57.883 259.96 56.7434C260.589 57.5097 260.589 59.1012 260.589 59.1012C259.665 59.1012 259.665 57.8044 259.665 57.8044C256.286 58.7672 252.573 58.7672 249.213 57.8044V60.6534C249.213 60.9088 248.997 61.1249 248.741 61.1249L248.722 61.1053Z" fill="#213344"></path><path d="M254.457 58.5313C252.453 58.5313 250.488 58.2169 248.602 57.6078C240.704 55.0732 235.379 47.7838 235.379 39.4531C235.379 28.9414 243.926 20.3945 254.437 20.3945C264.949 20.3945 273.496 28.9414 273.496 39.4531C273.496 47.7838 268.171 55.0732 260.234 57.6078C258.367 58.1972 256.402 58.5116 254.437 58.5116L254.457 58.5313ZM254.457 21.3376C244.456 21.3376 236.322 29.4719 236.322 39.4727C236.322 47.3712 241.372 54.3069 248.897 56.7236C252.453 57.8829 256.402 57.8829 259.978 56.7236C267.523 54.3069 272.592 47.3712 272.592 39.4531C272.592 29.4522 264.458 21.318 254.457 21.318V21.3376Z" fill="#213344"></path><path d="M243.258 47.6465C243.769 46.7623 245.34 46.7034 246.343 45.8192C246.421 44.9154 246.048 44.5421 245.714 44.1295C244.81 42.9703 244.417 41.4377 244.614 39.9445C244.672 39.4336 245.144 37.4099 246.205 36.8205C246.578 36.6043 246.991 36.6043 247.384 36.7812C248.111 37.1348 248.386 38.1172 248.582 38.7656C248.838 39.6891 248.956 40.4946 248.936 41.3198C248.936 42.0665 248.818 43.5794 248.15 44.9351C249.565 45.6817 251.549 46.0157 254.123 45.9568C255.616 45.9175 256.874 45.7013 257.955 45.2887C259.212 44.8172 260.234 44.0313 260.921 43.0882C259.664 42.3808 258.898 41.3591 258.76 40.2785C258.681 39.6498 258.799 38.9817 259.114 38.3333C259.448 37.626 259.939 37.1545 260.509 36.9776C261.118 36.8008 261.55 36.9776 261.806 37.1545C262.768 37.8618 262.808 39.748 262.808 40.1213C262.808 41.0055 262.611 41.87 262.238 42.6363C264.203 43.3632 266.56 43.3632 268.211 43.3632C266.01 44.2867 263.731 44.2081 261.786 43.4615C261 44.6404 259.801 45.5835 258.289 46.1532C257.11 46.5855 255.754 46.8213 254.162 46.8606C251.412 46.9195 249.25 46.5462 247.679 45.7013C247.482 45.9764 247.246 46.2318 246.971 46.4676C245.91 47.3911 244.456 47.5875 243.277 47.5875L243.258 47.6465ZM246.834 37.6064C246.107 37.96 245.635 39.3943 245.537 40.082C245.36 41.3198 245.714 42.597 246.46 43.5597C246.716 43.8937 247.011 44.1884 247.345 44.4439C247.757 43.5794 247.993 42.4987 248.013 41.3198C248.013 40.5929 247.914 39.8659 247.718 39.1782C247.541 38.5691 247.345 37.8225 246.991 37.6457C246.932 37.626 246.873 37.6064 246.814 37.6064H246.834ZM261.02 37.8618C260.371 38.0386 260.096 38.4905 259.978 38.7656C259.742 39.2568 259.664 39.748 259.703 40.1999C259.801 40.9858 260.391 41.7521 261.275 42.2433C261.727 41.6539 261.884 40.9269 261.904 40.1606C261.904 39.2765 261.688 38.2351 261.275 37.9404C261.216 37.9011 261.137 37.8618 261.02 37.8618V37.8618Z" fill="#213344"></path><path d="M233.63 29.3346C233.355 29.2364 212.764 13.7341 212.764 13.7341C213.333 12.9875 233.905 28.5094 233.905 28.5094C233.905 29.2757 233.767 29.3542 233.63 29.3542V29.3346Z" fill="#213344"></path><path d="M215.67 62.1859C215.415 61.3214 234.886 48.6877 234.886 48.6877C235.397 49.4737 215.926 62.1073 215.926 62.1073C215.847 62.1466 215.749 62.1859 215.67 62.1859Z" fill="#213344"></path><path d="M254.419 16.1703C253.947 15.6987 253.947 0 253.947 0C254.871 0 254.871 15.7184 254.871 15.7184C254.871 15.9738 254.655 16.1899 254.399 16.1899L254.419 16.1703Z" fill="#213344"></path><path d="M273.419 29.3345C273.203 28.4503 283.793 22.7131 283.793 22.7131C284.245 23.5383 273.635 29.2756 273.635 29.2756C273.557 29.3149 273.498 29.3345 273.419 29.3345V29.3345Z" fill="#213344"></path><path d="M293.009 72.1471C292.695 72.0292 271.75 53.4029 271.75 53.4029C272.379 52.7152 293.304 71.3218 293.304 71.3218C293.245 72.0881 293.127 72.1274 292.989 72.1274L293.009 72.1471Z" fill="#213344"></path><path d="M321.948 49.2965C320.337 46.9976 318.235 47.6067 318.137 47.6264C318.864 46.4279 321.084 46.4082 322.341 48.5891C322.106 49.2572 322.027 49.2965 321.948 49.2965V49.2965Z" fill="#213344"></path><path d="M318.921 51.1041C318.548 51.0451 318.292 51.2023 318.194 52.5384C318.076 54.0316 318.45 54.3067 318.784 54.287C319.118 54.287 319.452 53.8155 319.452 52.7545C319.452 51.6935 319.412 51.1827 318.921 51.1041Z" fill="#213344"></path><path d="M319.845 79.1226C319.373 78.6511 319.511 74.8394 319.511 74.8394C320.434 74.8787 320.316 78.6707 320.316 78.6707C320.316 78.9261 320.1 79.1226 319.845 79.1226Z" fill="#213344"></path><path d="M362.817 132.742C362.405 119.46 361.835 108.241 361.835 108.143C361.658 104.547 359.811 100.185 357.846 96.0001C356.275 92.66 354.487 90.1254 352.384 88.2785C349.673 85.9011 346.981 84.6239 343.896 84.2703C337.137 83.4844 323.364 83.5433 323.246 83.5433C320.299 83.7201 317.765 84.0738 314.994 85.3116C310.927 87.0996 307.41 90.6952 304.522 95.9608C302.478 99.7332 300.828 103.82 299.237 107.769C298.745 109.007 298.234 110.245 297.724 111.483C296.682 113.978 295.503 116.552 293.401 118.32C291.083 120.246 287.998 120.58 285.503 119.145C282.988 117.711 282.162 115.137 281.357 112.662L277.918 102.15C276.857 98.8884 275.796 95.4696 274.775 92.1688C273.733 88.809 272.672 85.3509 271.592 82.05C273.557 85.0562 274.637 88.5339 275.659 91.8937C276.681 95.1946 277.722 98.6133 278.803 101.855L282.241 112.367C283.027 114.784 283.754 117.063 285.954 118.32C288.116 119.558 290.788 119.263 292.792 117.593C294.737 115.962 295.857 113.506 296.839 111.129C297.35 109.911 297.842 108.673 298.333 107.435C299.924 103.447 301.594 99.3403 303.657 95.5286C306.624 90.0664 310.298 86.353 314.562 84.4668C317.45 83.1896 320.083 82.8163 323.148 82.6395C323.325 82.6395 337.118 82.5805 343.936 83.3665C347.197 83.7398 350.066 85.0955 352.915 87.6104C355.115 89.5359 356.982 92.1688 358.613 95.6268C360.617 99.8904 362.503 104.351 362.68 108.123C362.68 108.241 363.25 119.46 363.21 132.31C363.21 132.565 362.994 132.761 362.739 132.761L362.817 132.742Z" fill="#213344"></path><path d="M285.893 152.37C277.72 152.37 269.507 149.757 263.141 143.253C255.694 135.669 252.04 125.197 249.426 115.943C246.853 106.806 245.438 98.3576 243.925 89.4177L243.395 86.3134C244.318 86.1562 244.829 89.2802 244.829 89.2802C246.322 98.2004 247.737 106.629 250.291 115.707C252.865 124.843 256.48 135.178 263.769 142.605C275.126 154.177 292.495 153.077 304.677 146.829L305.973 146.181C323.794 135.394 328.726 111.345 328.765 111.109C329.63 111.541 324.639 135.964 306.425 146.986L305.109 147.635C299.431 150.523 292.672 152.35 285.873 152.35L285.893 152.37Z" fill="#213344"></path><path d="M377.1 132.801C372.306 118.222 363.052 100.951 353.621 89.4966C363.838 100.441 373.171 117.849 377.552 132.211C377.199 132.801 377.159 132.801 377.1 132.801V132.801Z" fill="#213344"></path><path d="M319.59 75.1145C313.067 75.1145 311.377 71.7744 310.925 70.0846C310.355 67.943 311.593 62.5988 311.947 61.1841C311.161 60.7126 309.157 59.3961 308.41 57.8243C307.958 56.8419 308.194 55.7023 309.019 55.0146C310.139 54.0715 313.322 52.1853 314.147 51.6941C314.403 50.3777 315.817 43.4616 316.623 41.988C316.78 43.6385 315.464 49.8079 315.012 52.0674C314.756 52.4015 310.827 54.7003 309.628 55.7023C309.137 56.1149 308.999 56.8026 309.274 57.392C310.06 59.0425 312.693 60.5161 312.733 60.5357C312.949 61.1252 311.279 67.6287 311.848 69.8292C312.438 72.0691 314.894 75.5664 324.639 73.6016C322.812 74.918 321.103 75.0949 319.629 75.0949L319.59 75.1145Z" fill="#213344"></path><path d="M334.525 63.6985C332.697 63.6985 330.909 62.8733 329.73 61.3408C331.931 62.6768 334.485 63.3056 336.706 62.3035C337.963 61.7337 338.906 60.712 339.378 59.4153C339.849 58.1185 339.81 56.7235 339.24 55.466C338.061 52.8922 334.996 51.7329 332.403 52.9315C331.597 53.3048 330.87 53.8942 330.359 54.6212C330.222 53.2262 331.047 52.5385 332.01 52.0866C335.075 50.6916 338.69 52.0276 340.085 55.0927C340.753 56.5663 340.812 58.2168 340.262 59.7493C339.692 61.2818 338.572 62.4804 337.098 63.1681C336.273 63.5414 335.409 63.7378 334.544 63.7378L334.525 63.6985Z" fill="#213344"></path><path d="M335.506 61.3605C335.192 61.2426 331.537 58.04 331.537 58.04C331.616 57.2934 336.488 54.3855 336.488 54.3855C336.96 55.1911 332.637 57.7649 332.637 57.7649L335.82 60.555C335.761 61.3212 335.644 61.3802 335.506 61.3802V61.3605Z" fill="#213344"></path><path d="M251.276 88.2978C250.156 88.2978 249.114 88.2389 248.171 88.1603C245.086 87.8459 243.436 87.0797 243.259 85.9008C243.043 84.329 245.204 83.268 246.874 82.5999C245.165 84.2897 244.104 85.1149 244.183 85.7829C244.261 86.2741 245.361 86.9618 248.269 87.2369C251 87.5119 254.576 87.3744 258.329 86.8439C266.837 85.665 271.808 83.1894 271.631 81.9516C271.552 81.3425 270.197 80.6155 266.68 80.419C270.413 79.692 272.358 80.478 272.554 81.814C272.908 84.3879 265.736 86.7457 258.467 87.7674C255.932 88.121 253.476 88.2978 251.295 88.2978H251.276Z" fill="#213344"></path><path d="M266.777 85.6062C265.559 82.3446 265.578 79.3581 265.677 76.5288C265.755 74.1907 265.677 71.8133 265.598 69.4948C265.578 68.7482 265.539 68.0016 265.539 67.2353C265.48 64.6418 266.069 62.0875 267.406 59.4154C267.641 58.9439 267.877 58.4723 267.759 58.0794C267.543 57.2738 266.148 56.7629 265.284 56.7237C264.262 56.6451 263.162 57.0773 262.022 57.9615C259.802 59.6316 258.859 63.738 258.309 66.194C258.053 67.3336 257.916 67.9034 257.719 68.1784C256.501 70.0253 254.124 69.6913 253.023 69.2591C251.805 68.7679 251.687 68.5321 251.235 67.2746C250.901 66.3315 250.331 64.7793 248.819 61.8321C245.832 56.0753 242.315 53.3638 238.857 54.2087C238.169 54.3659 237.285 55.0732 236.932 56.0949C236.558 57.1756 236.853 58.3741 237.776 59.553C238.955 61.0659 240.959 64.6025 242.905 68.0212C244.948 71.6168 247.286 75.7036 247.974 76.2144C246.618 76.3913 244.869 73.3851 242.079 68.4928C240.154 65.1133 238.15 61.5963 237.03 60.1424C235.615 58.3151 235.713 56.7629 236.047 55.8002C236.539 54.4052 237.717 53.5407 238.621 53.3049C240.881 52.7548 245.321 53.0691 249.624 61.3999C251.176 64.3864 251.746 65.9975 252.1 66.9603C252.362 67.6807 252.781 68.1588 253.357 68.3946C254.202 68.7482 256.049 69.0233 256.933 67.6676C257.051 67.5104 257.228 66.7048 257.385 65.9779C257.975 63.404 258.977 59.1011 261.452 57.2149C262.788 56.1932 264.144 55.7412 265.343 55.7805C266.443 55.8395 268.29 56.4486 268.663 57.8239C268.859 58.5509 268.525 59.2582 268.231 59.828C266.973 62.3626 266.403 64.7793 266.462 67.2157C266.482 67.9623 266.502 68.7089 266.541 69.4752C266.62 71.7937 266.698 74.2104 266.62 76.5681C266.521 79.3188 266.502 82.2464 267.229 85.0364C266.855 85.6258 266.816 85.6258 266.777 85.6258V85.6062Z" fill="#213344"></path><path d="M250.215 88.1213C249.507 85.8618 248.859 83.4451 247.11 82.5413C244.084 80.9891 240.823 76.4308 238.583 70.6739C237.679 68.3358 236.245 66.3906 234.987 64.6813C233.396 62.52 232.001 60.6534 232.433 58.8262C233.003 56.3702 235.204 55.6825 236.284 55.6628C236.206 56.5863 233.867 56.6845 233.337 59.0423C233.023 60.4569 234.221 62.0877 235.734 64.1508C237.031 65.9191 238.504 67.9035 239.447 70.3595C241.569 75.8413 244.752 80.3211 247.542 81.7357C249.625 82.8163 250.391 85.5278 250.666 87.6105C250.254 88.141 250.234 88.141 250.215 88.141V88.1213Z" fill="#213344"></path><path d="M338.846 77.5312C338.374 77.0989 337.883 69.6327 337.883 69.6327C338.806 69.5737 339.317 77.04 339.317 77.04C338.865 77.5312 338.865 77.5312 338.846 77.5312V77.5312Z" fill="#213344"></path><path d="M335.819 70.6931C335.524 70.6931 335.229 70.6538 334.934 70.5556C332.557 69.809 332.478 66.1937 332.557 64.6808C332.655 62.8732 332.891 62.8339 333.146 62.775C333.481 64.0128 333.225 66.8814 334.05 68.5711C334.345 69.1606 334.718 69.5339 335.21 69.6714C337.037 70.2216 339.473 67.9621 343.835 63.7967L344.896 62.7946C350.162 57.8041 352.657 50.8094 350.967 45.8188C350.004 42.9895 347.804 41.2408 344.758 40.9264C348.295 40.3763 350.771 42.3214 351.851 45.5241C353.679 50.9273 351.144 58.1381 345.544 63.4627L344.483 64.4647C340.318 68.4336 337.96 70.6931 335.838 70.6931H335.819Z" fill="#213344"></path><path d="M313.972 65.7027C312.459 65.7027 311.496 65.0347 311.438 64.9954C312.086 64.3077 314.09 65.6241 316.86 63.8362C316.094 65.4473 314.935 65.7027 313.992 65.7027H313.972Z" fill="#213344"></path><path d="M313.773 85.8421C314.029 83.779 316.328 79.1618 317.31 78.592C318.489 77.9436 338.667 76.5879 342.184 76.5879C343.717 76.5879 346.605 82.05 347.784 84.3881C345.014 80.9301 342.833 77.5899 342.184 77.5113C338.019 77.5113 318.902 78.9064 317.762 79.3976C317.271 79.6726 315.522 82.8163 314.206 85.567C314.127 85.7242 313.97 85.8224 313.793 85.8224L313.773 85.8421Z" fill="#213344"></path><path d="M166.592 155.985C164.765 155.985 162.879 155.553 160.993 154.689C157.613 153.156 154.686 150.72 152.033 147.222C148.929 143.155 146.551 138.4 144.528 132.251C144.017 130.698 143.585 129.146 143.133 127.515C142.917 126.769 142.72 126.022 142.504 125.275C142.818 124.686 149.086 122.977 149.086 122.977C149.813 122.78 150.56 122.564 151.287 122.368C151.778 122.23 152.151 122.368 152.465 122.761C155.472 126.847 159.323 130.718 164.235 134.608C165.472 135.591 166.808 135.866 168.439 135.473C169.854 135.119 171.269 134.49 172.998 133.39C176.75 131.013 180.012 127.987 182.704 125.354C187.655 120.481 192.665 114.803 198.009 107.985C198.422 107.474 198.854 107.337 199.463 107.494C201.664 108.123 203.884 108.732 206.104 109.361L208.384 109.989C202.411 122.309 196.045 131.524 189.482 139.422C186.181 143.371 182.154 147.93 177.124 151.584C175.748 152.586 174.176 153.549 172.29 154.531C170.443 155.494 168.537 155.985 166.592 155.985V155.985ZM143.526 125.472C143.702 126.081 143.86 126.67 144.036 127.26C144.488 128.891 144.921 130.423 145.412 131.956C147.396 138.007 149.734 142.684 152.78 146.672C155.334 150.032 158.144 152.37 161.386 153.844C165.02 155.474 168.537 155.435 171.878 153.706C173.705 152.743 175.257 151.8 176.593 150.818C181.525 147.203 185.533 142.723 188.795 138.793C195.318 130.954 201.625 121.817 208.109 110.834L205.888 110.225C203.668 109.616 201.448 108.987 199.228 108.359C193.392 115.373 188.343 121.09 183.372 125.983C180.66 128.655 177.359 131.72 173.528 134.156C171.701 135.316 170.208 135.984 168.695 136.357C166.789 136.809 165.158 136.475 163.704 135.316C158.733 131.386 154.823 127.456 151.778 123.311C150.854 123.468 150.127 123.664 149.381 123.861L143.585 125.452L143.526 125.472Z" fill="#213344"></path><path d="M175.846 187.383C145.137 187.383 120.164 162.41 120.164 131.7C120.164 100.99 145.137 76.0178 175.846 76.0178C204.081 76.0178 227.855 97.1394 231.156 125.138C226.99 97.7092 203.609 76.9609 175.846 76.9609C145.647 76.9609 121.088 101.521 121.088 131.72C121.088 161.919 145.647 186.479 175.846 186.479C183.745 186.479 191.368 184.828 198.501 181.586C191.643 185.732 183.882 187.402 175.846 187.402V187.383Z" fill="#213344"></path><path d="M495.774 376.632H38.998C38.998 375.708 495.774 375.708 495.774 375.708C496.246 376.435 496.03 376.632 495.774 376.632Z" fill="#213344"></path><path d="M337.863 226.443C337.332 226.443 336.802 226.443 336.232 226.384C333.697 226.227 331.988 225.245 330.534 223.123C328.216 219.743 326.86 215.833 326.663 211.825C326.447 207.463 326.722 203.062 332.617 201.431C328.098 203.651 327.351 206.677 327.606 211.786C327.803 215.637 329.08 219.37 331.32 222.612C332.617 224.498 334.071 225.323 336.311 225.461C339.238 225.637 341.596 225.323 343.659 224.439C347.215 222.906 348.983 221.118 348.787 219.291C348.63 217.896 347.392 216.973 347.137 216.914C348.021 216.108 349.494 217.405 349.71 219.134C349.907 220.725 349.082 223.103 344.032 225.284C342.225 226.07 340.24 226.443 337.882 226.443H337.863Z" fill="#213344"></path><path d="M336.684 220.784C338.354 219.782 340.102 219.389 342.048 218.662C343.835 217.994 345.466 217.365 346.684 216.265C347.569 215.46 347.981 214.477 347.903 213.436C347.785 212.139 346.92 210.862 345.584 210.017C347.667 210.233 348.708 211.785 348.846 213.357C348.964 214.713 348.433 215.951 347.333 216.953C345.997 218.171 344.189 218.859 342.578 219.448C340.358 220.293 338.511 220.686 336.723 220.765H336.703L336.684 220.784Z" fill="#213344"></path><path d="M333.914 214.202C335.427 213.22 337.392 212.748 339.592 211.904C337.608 213.652 335.584 214.124 333.934 214.202H333.914Z" fill="#213344"></path><path d="M387.768 261.259C387.297 260.788 387.297 195.733 387.297 195.733C388.22 195.733 388.22 260.788 388.22 260.788C388.22 261.043 388.004 261.259 387.749 261.259H387.768Z" fill="#213344"></path><path d="M387.769 168.521C387.298 168.049 387.298 138.656 387.298 138.656C387.298 135.394 384.193 132.742 380.362 132.742H362.816C362.816 131.818 380.362 131.818 380.362 131.818C384.704 131.818 388.221 134.883 388.221 138.656V168.049C388.221 168.305 388.005 168.521 387.75 168.521H387.769Z" fill="#213344"></path><path d="M362.816 132.742H320.455C320.455 131.818 362.816 131.818 362.816 131.818C363.288 132.545 363.072 132.742 362.816 132.742Z" fill="#213344"></path><path d="M203.057 255.384C202.586 254.913 202.586 138.656 202.586 138.656C202.586 134.883 206.123 131.818 210.445 131.818H255.969C255.969 132.742 210.445 132.742 210.445 132.742C206.614 132.742 203.509 135.394 203.509 138.656V254.913C203.509 255.168 203.293 255.384 203.038 255.384H203.057Z" fill="#213344"></path><path d="M348.632 229.194C347.375 228.919 346.864 228.526 346.569 227.976L344.781 224.773C345.587 224.321 347.375 227.524 347.375 227.524C347.552 227.858 347.866 228.094 348.22 228.192C348.593 228.31 348.966 228.251 349.3 228.074C349.988 227.701 350.224 226.836 349.85 226.148L347.728 222.297C348.534 221.845 350.676 225.696 350.676 225.696C351.304 226.836 350.892 228.27 349.752 228.879C349.399 229.076 349.025 229.174 348.632 229.174V229.194Z" fill="#213344"></path><path d="M334.993 206.343C334.58 206.107 315.718 172.057 315.718 172.057C315.089 170.918 315.502 169.483 316.641 168.874C317.781 168.246 319.215 168.658 319.824 169.798L338.785 203.907C337.979 204.359 319.019 170.25 319.019 170.25C318.645 169.562 317.761 169.326 317.093 169.7C316.406 170.073 316.17 170.937 316.543 171.625L335.405 205.675C335.15 206.343 335.071 206.363 334.993 206.363V206.343Z" fill="#213344"></path><path d="M344.012 201.706C339.611 199.526 336.919 200.822 336.899 200.842C336.604 199.958 339.552 198.445 344.228 200.842C344.346 201.628 344.189 201.726 344.012 201.726V201.706Z" fill="#213344"></path><path d="M308.097 358.026H245.754C245.754 357.102 308.097 357.102 308.097 357.102C308.569 357.829 308.352 358.026 308.097 358.026Z" fill="#213344"></path><path d="M381.622 358.026H355.746C355.746 357.102 381.622 357.102 381.622 357.102C382.094 357.829 381.878 358.026 381.622 358.026Z" fill="#213344"></path><path d="M120.576 268.372C121.656 265.798 121.656 265.149 121.598 264.953C121.499 264.678 120.949 264.54 120.458 264.423C119.829 264.265 119.181 264.128 118.886 263.578C118.179 262.32 118.709 258.076 118.827 257.251C119.495 259.196 119.259 262.359 119.692 263.126C119.79 263.303 120.281 263.42 120.674 263.519C121.362 263.676 122.207 263.892 122.462 264.639C122.737 265.425 122.266 266.525 120.93 268.195C120.831 268.313 120.694 268.372 120.556 268.372H120.576Z" fill="#213344"></path><path d="M332.439 206.814C332.439 205.891 336.467 205.498 338.019 203.808C336.9 206.402 332.656 206.795 332.479 206.814H332.439Z" fill="#213344"></path><path d="M315.189 49.2969C314.698 49.0414 310.022 45.1708 309.943 39.9444C309.884 36.9972 311.319 34.2465 314.167 31.7709C316.054 30.1204 318.117 29.4131 320.357 29.5899C325.269 30.0222 329.139 34.7377 329.296 34.9538C328.53 35.4843 324.777 30.9064 320.258 30.533C318.274 30.3759 316.447 31.0242 314.777 32.4782C312.144 34.777 310.827 37.2919 310.867 39.9444C310.945 44.7189 315.445 48.452 315.484 48.4913C315.464 49.2576 315.327 49.3165 315.189 49.3165V49.2969Z" fill="#213344"></path><path d="M344.779 40.9266C344.328 40.5729 340.339 32.1046 333.207 30.8078C326.35 29.5504 325.348 31.8688 325.328 31.8885C324.562 31.2597 325.701 28.509 333.364 29.8844C340.987 31.2597 345.035 39.8852 345.192 40.2585C344.897 40.9069 344.838 40.9266 344.76 40.9266H344.779Z" fill="#213344"></path><path d="M330.318 54.3661C328.943 54.1696 328 53.5998 327.469 52.6567C326.448 50.8294 327.332 48.2162 327.626 47.45C325.249 43.0685 315.661 41.8503 315.562 41.8503C316.113 40.9858 326.153 42.2433 328.569 47.2338C328.569 47.6465 327.351 50.4954 328.294 52.2048C328.687 52.8925 329.355 53.3051 330.397 53.4426C330.75 54.2089 330.554 54.3661 330.338 54.3661H330.318Z" fill="#213344"></path><path d="M322.398 334.959C309.549 334.959 299.076 324.506 299.076 311.637C299.076 298.767 309.549 288.314 322.398 288.314C335.248 288.314 345.72 298.787 345.72 311.637C345.72 313.621 345.465 315.586 344.974 317.472C344.542 315.429 344.777 313.542 344.777 311.637C344.777 299.278 334.737 289.238 322.379 289.238C310.02 289.238 299.98 299.278 299.98 311.637C299.98 323.995 310.02 334.035 322.379 334.035C326.171 334.035 329.924 333.073 333.224 331.245C330.238 333.957 326.348 334.978 322.379 334.978L322.398 334.959Z" fill="#213344"></path><path d="M258.998 62.0873H249.213C249.213 61.1638 258.998 61.1638 258.998 61.1638C259.469 61.8908 259.253 62.0873 258.998 62.0873Z" fill="#213344"></path><path d="M257.58 66.5868H251.273C251.273 65.6633 257.58 65.6633 257.58 65.6633C258.052 66.3903 257.836 66.5868 257.58 66.5868Z" fill="#213344"></path><path d="M302.161 149.01C299.902 142.134 293.418 137.575 285.913 137.575C278.407 137.575 272.552 141.682 270.391 147.792C271.805 140.994 278.387 136.652 285.913 136.652C293.831 136.652 300.688 141.485 302.613 148.441C302.24 149.03 302.201 149.03 302.161 149.03V149.01Z" fill="#213344"></path><path d="M461.151 233.691C474.351 215.817 494.877 168.991 471.375 124.678C447.872 80.365 405.605 81.2769 387.409 87.2719" stroke="#7040E0" stroke-width="1.19169" stroke-linecap="round" stroke-linejoin="round" stroke-dasharray="5.19 5.19"></path><g filter="url(#filter0_d_5308_22196)"><ellipse rx="12.5152" ry="11.8512" transform="matrix(-0.0933802 0.99563 -0.996028 -0.0890371 468.633 121.495)" fill="#F4F6FA"></ellipse><path d="M467.504 133.525C461.245 132.965 456.634 127.145 457.259 120.478C457.885 113.812 463.501 108.905 469.761 109.465C476.02 110.025 480.631 115.845 480.006 122.512C479.381 129.178 473.764 134.084 467.504 133.525Z" stroke="#7040E0" stroke-width="0.864933"></path></g><path d="M96.2223 138.694C56.5285 150.641 -9.28694 196.039 45.002 282.057" stroke="#7040E0" stroke-width="1.19169" stroke-linecap="round" stroke-linejoin="round" stroke-dasharray="5.19 5.19"></path><g filter="url(#filter1_d_5308_22196)"><ellipse rx="14.3796" ry="13.6167" transform="matrix(-0.928324 -0.371773 0.36772 -0.929936 37.7891 272.478)" fill="#F4F6FA"></ellipse><path d="M24.8416 267.293C27.5111 260.542 35.4656 257.345 42.6372 260.217C49.8088 263.089 53.406 270.912 50.7365 277.663C48.067 284.414 40.1126 287.61 32.941 284.738C25.7694 281.866 22.1722 274.043 24.8416 267.293Z" stroke="#7040E0" stroke-width="0.864933"></path></g><g clip-path="url(#clip1_5308_22196)"><path d="M120.871 192.206C120.871 197.288 119.365 202.256 116.544 206.481C113.723 210.707 109.714 214 105.023 215.945C100.332 217.89 95.1697 218.398 90.1896 217.407C85.2096 216.415 80.6352 213.968 77.0448 210.375C73.4544 206.781 71.0093 202.203 70.0187 197.219C69.0281 192.234 69.5365 187.068 71.4796 182.373C73.4227 177.678 76.7133 173.665 80.9351 170.841C85.157 168.018 90.1206 166.511 95.1982 166.511C102.007 166.511 108.537 169.218 113.352 174.037C118.166 178.856 120.871 185.391 120.871 192.206V192.206Z" fill="#213344"></path><path d="M113.692 192.206C113.692 195.867 112.607 199.446 110.575 202.491C108.542 205.535 105.654 207.908 102.274 209.309C98.8941 210.71 95.1751 211.077 91.5871 210.362C87.9992 209.648 84.7035 207.885 82.1167 205.296C79.5299 202.707 77.7683 199.408 77.0546 195.817C76.3409 192.226 76.7072 188.504 78.1072 185.121C79.5071 181.739 81.8779 178.847 84.9196 176.813C87.9613 174.779 91.5374 173.693 95.1956 173.693C100.101 173.693 104.806 175.644 108.275 179.115C111.743 182.587 113.692 187.296 113.692 192.206Z" fill="#F4F6FA"></path><path d="M96.1577 193.182C96.1548 193.633 96.0184 194.073 95.7659 194.447C95.5133 194.821 95.1559 195.111 94.7387 195.282C94.3214 195.452 93.8631 195.495 93.4214 195.406C92.9797 195.316 92.5745 195.097 92.2569 194.777C91.9392 194.457 91.7234 194.05 91.6365 193.607C91.5497 193.165 91.5957 192.706 91.7689 192.29C91.942 191.873 92.2345 191.518 92.6095 191.267C92.9844 191.017 93.425 190.883 93.8757 190.883C94.1767 190.883 94.4746 190.943 94.7525 191.059C95.0303 191.174 95.2826 191.344 95.4947 191.558C95.7068 191.771 95.8746 192.025 95.9884 192.304C96.1022 192.582 96.1597 192.881 96.1577 193.182Z" fill="#FFCE26"></path><path d="M95.1976 211.079C91.4802 211.073 87.8479 209.964 84.7593 207.894C81.6707 205.824 79.2642 202.884 77.8437 199.445C76.4231 196.007 76.0523 192.225 76.7779 188.576C77.5035 184.927 79.293 181.575 81.9205 178.943C84.5481 176.311 87.8958 174.517 91.5412 173.788C95.1865 173.059 98.9659 173.427 102.402 174.846C105.839 176.265 108.778 178.671 110.849 181.761C112.92 184.85 114.03 188.485 114.039 192.206C114.041 194.683 113.555 197.137 112.609 199.427C111.663 201.717 110.276 203.797 108.526 205.55C106.776 207.303 104.698 208.693 102.411 209.642C100.125 210.59 97.6732 211.079 95.1976 211.079V211.079ZM95.1976 174.099C91.6094 174.102 88.1026 175.17 85.1212 177.169C82.1397 179.167 79.8176 182.006 78.4485 185.325C77.0795 188.645 76.7251 192.296 77.4302 195.818C78.1354 199.339 79.8683 202.572 82.4098 205.107C84.9513 207.642 88.1871 209.366 91.7077 210.06C95.2283 210.754 98.8755 210.387 102.188 209.006C105.5 207.625 108.328 205.291 110.315 202.301C112.302 199.31 113.358 195.797 113.349 192.206C113.345 187.39 111.431 182.773 108.027 179.37C104.624 175.966 100.009 174.054 95.1976 174.054V174.099Z" fill="#213344"></path><path d="M95.2001 218.411C90.0228 218.405 84.9635 216.864 80.6616 213.98C76.3598 211.097 73.0085 207.002 71.0314 202.213C69.0542 197.424 68.54 192.156 69.5537 187.075C70.5673 181.993 73.0634 177.327 76.7264 173.665C80.3894 170.003 85.0548 167.51 90.133 166.501C95.2113 165.493 100.474 166.013 105.257 167.998C110.039 169.982 114.127 173.341 117.003 177.65C119.878 181.959 121.413 187.024 121.413 192.206C121.405 199.159 118.64 205.824 113.725 210.738C108.81 215.651 102.147 218.411 95.2001 218.411V218.411ZM95.2001 166.691C90.1522 166.691 85.2176 168.189 81.0205 170.996C76.8233 173.803 73.552 177.793 71.6202 182.46C69.6885 187.128 69.1831 192.264 70.1679 197.219C71.1527 202.174 73.5834 206.726 77.1528 210.299C80.7222 213.871 85.2699 216.304 90.2208 217.29C95.1717 218.275 100.303 217.769 104.967 215.836C109.631 213.902 113.617 210.628 116.421 206.428C119.226 202.227 120.723 197.288 120.723 192.236C120.723 188.881 120.063 185.559 118.78 182.46C117.497 179.361 115.617 176.545 113.247 174.173C110.877 171.801 108.064 169.919 104.967 168.636C101.871 167.352 98.5517 166.691 95.2001 166.691V166.691Z" fill="#213344"></path><path d="M95.1992 194.55C94.7438 194.547 94.2995 194.409 93.922 194.155C93.5444 193.9 93.2504 193.539 93.0769 193.118C92.9033 192.697 92.8579 192.233 92.9464 191.786C93.0349 191.339 93.2533 190.928 93.5743 190.605C93.8952 190.282 94.3044 190.06 94.7505 189.969C95.1966 189.877 95.6597 189.92 96.0818 190.091C96.5039 190.262 96.8662 190.554 97.1231 190.93C97.3801 191.306 97.5203 191.75 97.5262 192.206C97.5302 192.513 97.4729 192.819 97.3576 193.104C97.2422 193.389 97.0712 193.649 96.8545 193.867C96.6378 194.085 96.3798 194.258 96.0956 194.375C95.8114 194.493 95.5066 194.552 95.1992 194.55V194.55ZM95.1992 190.598C94.8755 190.598 94.5591 190.694 94.29 190.874C94.0209 191.054 93.8112 191.31 93.6873 191.609C93.5634 191.908 93.531 192.238 93.5942 192.555C93.6573 192.873 93.8132 193.165 94.042 193.394C94.2709 193.623 94.5625 193.779 94.8799 193.842C95.1974 193.905 95.5264 193.873 95.8254 193.749C96.1244 193.625 96.38 193.415 96.5598 193.146C96.7397 192.876 96.8356 192.56 96.8356 192.236C96.8396 192.018 96.8002 191.802 96.7198 191.6C96.6393 191.398 96.5194 191.214 96.3671 191.058C96.2147 190.903 96.033 190.78 95.8324 190.695C95.6319 190.611 95.4166 190.568 95.1992 190.568V190.598Z" fill="#213344"></path><path d="M88.2311 201.101C87.9759 200.545 93.6058 193.453 93.6058 193.453C94.1463 193.874 88.5013 200.966 88.5013 200.966C88.4712 201.009 88.4307 201.044 88.3834 201.068C88.3362 201.092 88.2838 201.103 88.2311 201.101Z" fill="#213344"></path><path d="M95.7818 190.658C95.4516 190.237 98.6344 177.014 98.6344 177.014C99.295 177.179 96.1272 190.403 96.1272 190.403C96.1046 190.477 96.0589 190.541 95.9967 190.587C95.9345 190.633 95.8592 190.658 95.7818 190.658V190.658Z" fill="#213344"></path><path d="M95.1968 181.026C94.934 179.514 94.8234 177.978 94.8665 176.443C95.5421 176.443 95.5421 180.696 95.5421 180.696C95.5421 180.74 95.5331 180.785 95.5156 180.826C95.4981 180.867 95.4724 180.904 95.4401 180.935C95.4078 180.966 95.3696 180.99 95.3278 181.006C95.286 181.021 95.2414 181.028 95.1968 181.026Z" fill="#213344"></path><path d="M95.1966 208.374C94.9343 206.856 94.8236 205.316 94.8663 203.776C95.5419 203.776 95.5419 208.028 95.5419 208.028C95.5419 208.12 95.5056 208.208 95.4408 208.273C95.376 208.337 95.2882 208.374 95.1966 208.374Z" fill="#213344"></path><path d="M111.037 192.551H106.773C106.773 191.86 111.022 191.86 111.022 191.86C111.368 192.401 111.202 192.551 111.037 192.551Z" fill="#213344"></path><path d="M83.6394 192.551H79.3906C79.3906 191.86 83.6394 191.86 83.6394 191.86C84.0147 192.401 83.8346 192.551 83.6394 192.551Z" fill="#213344"></path></g><path d="M449.962 188.153C447.66 191.945 443.149 193.548 438.051 192.396C437.542 192.178 436.959 192.18 436.262 192.038L434.373 196.453L430.353 194.732L432.257 190.284C426.706 187.151 424.707 182.703 425.711 176.957L432.704 178.125C432.686 178.622 432.681 179.087 432.66 179.544C432.616 180.426 432.751 181.308 433.058 182.137C433.364 182.965 433.835 183.723 434.443 184.364C435.05 185.006 435.781 185.517 436.592 185.867C437.403 186.218 438.276 186.4 439.16 186.404C439.929 186.469 440.699 186.296 441.366 185.907C442.033 185.518 442.563 184.933 442.885 184.231C443.224 183.634 443.352 182.94 443.248 182.261C443.144 181.582 442.814 180.958 442.312 180.49C440.98 179.066 439.393 177.648 437.918 176.24C437.131 175.495 436.305 174.793 435.572 174.012C431.846 170.107 431.242 165.984 433.734 161.749C436.226 157.515 440.037 156.097 445.374 157.235C445.57 157.32 445.81 157.305 446.156 157.357L447.604 153.976L451.591 155.683L450.284 159.007C451.286 159.671 452.223 160.43 453.081 161.272C454.347 162.412 455.311 163.846 455.889 165.449C456.466 167.051 456.639 168.772 456.391 170.457L449.883 170.196C449.705 168.906 449.448 167.628 449.113 166.37C448.814 165.472 448.262 164.679 447.524 164.087C446.785 163.496 445.891 163.13 444.949 163.035C444.243 162.89 443.509 162.963 442.845 163.244C442.181 163.525 441.617 164 441.228 164.607C440.764 165.182 440.531 165.908 440.574 166.646C440.618 167.383 440.935 168.077 441.464 168.592C442.65 169.857 443.937 171.068 445.201 172.289C446.254 173.322 447.344 174.313 448.343 175.381C452.244 179.556 452.714 183.583 449.962 188.153Z" fill="#FFCE26"></path><path d="M438.39 195.823L434.354 194.095C434.7 192.497 435.223 190.943 435.911 189.46C430.526 186.301 428.432 181.851 429.486 175.894C431.975 175.976 434.454 176.251 436.9 176.717C437.1 177.312 437.193 177.937 437.177 178.564C437.118 179.34 437.219 180.119 437.471 180.855C437.724 181.591 438.123 182.267 438.646 182.844C439.236 183.497 439.953 184.024 440.753 184.392C441.552 184.761 442.418 184.965 443.299 184.991C443.988 185.05 444.679 184.894 445.277 184.545C445.875 184.196 446.35 183.67 446.638 183.041C446.942 182.514 447.055 181.899 446.958 181.298C446.862 180.698 446.561 180.15 446.107 179.745C445.094 178.71 444.018 177.686 442.967 176.693L441.722 175.519L440.902 174.76C440.386 174.287 439.861 173.79 439.366 173.268C435.505 169.226 434.875 164.937 437.461 160.529C440.047 156.121 444.054 154.651 449.552 155.82C450.005 155.897 451.368 152.713 451.368 152.713C452.93 153.03 454.449 153.53 455.894 154.204C455.734 155.449 455.396 156.665 454.892 157.814C455.797 158.46 456.654 159.171 457.457 159.941C458.798 161.121 459.822 162.618 460.437 164.296C461.051 165.973 461.237 167.778 460.976 169.545C458.67 169.756 456.352 169.79 454.041 169.645C453.71 169.178 453.502 168.635 453.436 168.066C453.347 167.224 453.19 166.391 452.968 165.574C452.691 164.75 452.18 164.023 451.498 163.483C450.816 162.943 449.992 162.612 449.126 162.531C448.5 162.388 447.844 162.445 447.251 162.692C446.658 162.939 446.157 163.366 445.817 163.911C445.41 164.422 445.211 165.068 445.26 165.719C445.309 166.37 445.602 166.979 446.081 167.423C446.934 168.332 447.858 169.213 448.815 170.107L449.891 171.131L450.96 172.171C451.663 172.841 452.334 173.497 453.049 174.231C457.044 178.504 457.514 182.667 454.645 187.42C452.279 191.359 447.558 193.047 442.305 191.847L441.157 191.628C440.337 192.906 439.646 194.263 439.093 195.677C439.071 195.747 439.031 195.81 438.977 195.859C438.923 195.908 438.856 195.942 438.785 195.957C438.713 195.972 438.638 195.967 438.569 195.944C438.5 195.92 438.438 195.878 438.39 195.823ZM435.047 193.518L438.329 194.923L440.064 190.869C440.814 190.803 441.569 190.838 442.309 190.975C447.278 192.112 451.555 190.602 453.752 186.921C456.41 182.524 455.933 178.65 452.29 174.644C451.64 173.938 450.937 173.268 450.234 172.598L449.174 171.582L448.121 170.549C447.23 169.682 446.29 168.794 445.395 167.847C444.792 167.273 444.423 166.495 444.359 165.665C444.295 164.834 444.541 164.01 445.048 163.349C445.474 162.672 446.098 162.143 446.835 161.833C447.572 161.523 448.387 161.448 449.168 161.617C450.182 161.725 451.145 162.121 451.942 162.758C452.739 163.395 453.337 164.247 453.667 165.213C453.926 166.1 454.116 167.006 454.235 167.922L454.385 168.841L460.122 169.044C460.306 167.5 460.119 165.935 459.578 164.478C459.037 163.021 458.158 161.713 457.012 160.663C456.175 159.843 455.264 159.102 454.29 158.45C454.478 157.261 454.812 156.099 455.285 154.992L452.003 153.587L450.71 156.607C444.335 155.626 440.567 157.081 438.256 160.985C435.944 164.89 436.468 169.017 440.048 172.763C440.51 173.272 441.042 173.752 441.542 174.218L442.379 174.984L443.616 176.174C444.674 177.151 445.766 178.182 446.788 179.241C447.327 179.775 447.682 180.467 447.801 181.216C447.92 181.966 447.798 182.733 447.451 183.408C447.087 184.173 446.5 184.809 445.767 185.234C445.034 185.659 444.19 185.852 443.346 185.787C442.359 185.756 441.388 185.527 440.491 185.113C439.594 184.699 438.79 184.109 438.126 183.378C437.535 182.716 437.082 181.942 436.795 181.102C436.508 180.262 436.391 179.373 436.453 178.487C436.565 178.225 436.474 177.894 436.488 177.589C436.501 177.285 430.267 176.383 430.267 176.383C429.439 181.855 431.515 185.986 436.599 188.803C436.246 190.424 435.726 192.004 435.047 193.518V193.518Z" fill="#213344"></path><path d="M426.295 135.252C426.857 138.756 424.94 142.071 421.236 144.01C420.814 144.141 420.459 144.445 419.961 144.719L421.098 148.389L417.757 149.424L416.612 145.727C411.606 146.695 408.083 145.021 405.716 141L410.583 138.087C410.829 138.399 411.067 138.684 411.291 138.974C411.721 139.534 412.261 140.002 412.877 140.348C413.493 140.694 414.173 140.911 414.875 140.987C415.578 141.063 416.288 140.996 416.964 140.789C417.64 140.582 418.266 140.241 418.806 139.785C419.309 139.426 419.688 138.921 419.893 138.339C420.098 137.756 420.118 137.125 419.95 136.53C419.847 135.991 419.565 135.502 419.15 135.142C418.735 134.782 418.211 134.573 417.662 134.548C416.112 134.371 414.411 134.33 412.783 134.236C411.917 134.19 411.05 134.19 410.198 134.095C405.904 133.646 403.399 131.447 402.723 127.576C402.047 123.704 403.633 120.865 407.475 118.793C407.639 118.742 407.777 118.61 408.015 118.461L407.144 115.651L410.458 114.625L411.385 117.327C412.34 117.213 413.304 117.189 414.263 117.258C415.625 117.296 416.956 117.67 418.139 118.347C419.321 119.024 420.318 119.983 421.04 121.138L416.939 124.352C416.163 123.659 415.344 123.014 414.488 122.421C413.84 122.028 413.093 121.831 412.336 121.853C411.58 121.876 410.845 122.116 410.222 122.546C409.717 122.824 409.308 123.249 409.049 123.764C408.789 124.28 408.692 124.861 408.77 125.433C408.785 126.023 409.02 126.587 409.428 127.014C409.837 127.44 410.39 127.699 410.979 127.739C412.357 127.895 413.769 127.965 415.172 128.054C416.349 128.138 417.527 128.177 418.689 128.31C423.23 128.832 425.603 131.042 426.295 135.252Z" fill="#FFCE26"></path><path d="M423.213 145.923L419.859 146.963C419.242 145.81 418.754 144.592 418.405 143.332C413.487 144.198 409.904 142.572 407.46 138.396C409.018 137.156 410.671 136.039 412.403 135.055C412.833 135.314 413.214 135.646 413.529 136.037C413.896 136.54 414.361 136.963 414.896 137.28C415.431 137.598 416.025 137.803 416.642 137.883C417.341 137.975 418.05 137.924 418.729 137.735C419.407 137.545 420.04 137.22 420.59 136.78C421.041 136.458 421.381 136.005 421.564 135.483C421.748 134.96 421.765 134.394 421.614 133.861C421.526 133.383 421.276 132.949 420.906 132.633C420.536 132.318 420.068 132.139 419.582 132.128C418.428 132.022 417.242 131.956 416.087 131.896L414.721 131.826L413.827 131.788C413.268 131.767 412.69 131.737 412.118 131.675C407.671 131.214 405.064 128.927 404.355 124.901C403.646 120.875 405.326 117.903 409.282 115.765C409.597 115.578 408.777 112.932 408.777 112.932C409.893 112.315 411.078 111.833 412.308 111.494C412.855 112.336 413.28 113.251 413.569 114.213C414.455 114.137 415.346 114.126 416.234 114.18C417.662 114.204 419.062 114.585 420.306 115.288C421.55 115.992 422.598 116.995 423.355 118.207C422.06 119.531 420.665 120.753 419.182 121.862C418.738 121.749 418.329 121.526 417.994 121.214C417.504 120.747 416.977 120.32 416.418 119.938C415.822 119.579 415.134 119.402 414.439 119.426C413.743 119.45 413.07 119.676 412.5 120.075C412.044 120.313 411.674 120.687 411.441 121.145C411.208 121.603 411.123 122.123 411.2 122.631C411.216 123.153 411.43 123.65 411.797 124.021C412.164 124.392 412.658 124.611 413.18 124.634C414.171 124.745 415.19 124.803 416.237 124.853L417.423 124.919L418.614 124.998C419.39 125.042 420.138 125.094 420.954 125.17C425.603 125.703 428.047 127.996 428.762 132.379C429.362 136.005 427.36 139.481 423.538 141.472L422.725 141.934C422.888 143.137 423.17 144.322 423.566 145.47C423.589 145.524 423.597 145.583 423.59 145.641C423.582 145.699 423.559 145.754 423.523 145.801C423.487 145.847 423.439 145.883 423.385 145.904C423.331 145.926 423.271 145.932 423.213 145.923ZM419.982 146.252L422.71 145.407L421.666 142.037C422.088 141.608 422.567 141.239 423.089 140.939C426.705 139.056 428.529 135.92 427.959 132.538C427.3 128.481 425.002 126.368 420.705 125.815C419.944 125.722 419.168 125.679 418.393 125.635L417.22 125.565L416.043 125.481C415.051 125.414 414.018 125.361 412.982 125.248C412.317 125.21 411.689 124.928 411.22 124.455C410.751 123.982 410.473 123.353 410.44 122.687C410.348 122.054 410.454 121.408 410.742 120.837C411.031 120.266 411.488 119.798 412.052 119.497C412.726 119.037 413.518 118.779 414.334 118.754C415.149 118.729 415.955 118.938 416.656 119.356C417.274 119.762 417.859 120.215 418.407 120.712L418.975 121.194L422.576 118.344C421.887 117.309 420.962 116.452 419.878 115.844C418.793 115.237 417.579 114.896 416.337 114.85C415.402 114.784 414.462 114.805 413.531 114.912C413.029 114.09 412.631 113.21 412.345 112.29L409.618 113.135L410.395 115.645C406.002 118.351 404.461 121.191 405.076 124.767C405.691 128.344 408.149 130.587 412.272 131.014C412.817 131.085 413.39 131.102 413.936 131.127L414.843 131.16L416.214 131.243C417.365 131.291 418.565 131.352 419.736 131.468C420.341 131.514 420.916 131.751 421.377 132.146C421.838 132.541 422.161 133.073 422.3 133.663C422.474 134.318 422.446 135.01 422.22 135.649C421.994 136.287 421.579 136.842 421.032 137.241C420.414 137.733 419.704 138.097 418.943 138.309C418.182 138.522 417.386 138.579 416.602 138.478C415.899 138.381 415.222 138.144 414.612 137.781C414.002 137.418 413.47 136.937 413.048 136.365C412.981 136.147 412.754 135.993 412.604 135.8C412.455 135.607 408.189 138.289 408.189 138.289C410.52 142.052 413.926 143.493 418.484 142.575C419.109 143.745 419.611 144.978 419.982 146.252V146.252Z" fill="#213344"></path></g><defs><filter id="filter0_d_5308_22196" x="450.414" y="104.222" width="36.4379" height="37.723" filterUnits="userSpaceOnUse" color-interpolation-filters="sRGB"><feFlood flood-opacity="0" result="BackgroundImageFix"></feFlood><feColorMatrix in="SourceAlpha" type="matrix" values="0 0 0 0 0 0 0 0 0 0 0 0 0 0 0 0 0 0 127 0" result="hardAlpha"></feColorMatrix><feOffset dy="1.58891"></feOffset><feGaussianBlur stdDeviation="3.17783"></feGaussianBlur><feColorMatrix type="matrix" values="0 0 0 0 0 0 0 0 0 0.0784314 0 0 0 0 0.156863 0 0 0 0.16 0"></feColorMatrix><feBlend mode="normal" in2="BackgroundImageFix" result="effect1_dropShadow_5308_22196"></feBlend><feBlend mode="normal" in="SourceGraphic" in2="effect1_dropShadow_5308_22196" result="shape"></feBlend></filter><filter id="filter1_d_5308_22196" x="17.1717" y="253.963" width="41.2348" height="40.2081" filterUnits="userSpaceOnUse" color-interpolation-filters="sRGB"><feFlood flood-opacity="0" result="BackgroundImageFix"></feFlood><feColorMatrix in="SourceAlpha" type="matrix" values="0 0 0 0 0 0 0 0 0 0 0 0 0 0 0 0 0 0 127 0" result="hardAlpha"></feColorMatrix><feOffset dy="1.58891"></feOffset><feGaussianBlur stdDeviation="3.17783"></feGaussianBlur><feColorMatrix type="matrix" values="0 0 0 0 0 0 0 0 0 0.0784314 0 0 0 0 0.156863 0 0 0 0.16 0"></feColorMatrix><feBlend mode="normal" in2="BackgroundImageFix" result="effect1_dropShadow_5308_22196"></feBlend><feBlend mode="normal" in="SourceGraphic" in2="effect1_dropShadow_5308_22196" result="shape"></feBlend></filter><clipPath id="clip0_5308_22196"><rect width="496" height="377" fill="white"></rect></clipPath><clipPath id="clip1_5308_22196"><rect width="52.4114" height="52.4114" fill="white" transform="translate(69 166)"></rect></clipPath></defs></svg>