<svg xmlns="http://www.w3.org/2000/svg" width="548" height="405" viewBox="0 0 548 405" fill="none"><path d="M250.303 83.9184C224.774 69.8107 160.308 51.1457 106.679 89.3465C53.0501 127.547 61.5004 182.397 72.4292 205.046" stroke="#7040E0" stroke-width="1.5" stroke-linecap="round" stroke-linejoin="round" stroke-dasharray="6.53 6.53"></path><g clip-path="url(#clip0_3388_6134)"><rect x="91" y="143" width="32" height="32" rx="5" fill="#CDCDFA"></rect><g clip-path="url(#clip1_3388_6134)"><path d="M188.857 118H117.257C113.801 118 111 120.823 111 124.306V150.418C111 153.901 113.801 156.724 117.257 156.724H188.857C192.313 156.724 195.114 153.901 195.114 150.418V124.306C195.114 120.823 192.313 118 188.857 118Z" fill="#A3EBCD"></path><path d="M183.154 161.88H111.554C109.816 161.88 108.149 161.184 106.92 159.945C105.691 158.706 105 157.026 105 155.274V129.162C105 127.41 105.691 125.729 106.92 124.491C108.149 123.252 109.816 122.556 111.554 122.556H183.154C184.015 122.556 184.867 122.727 185.663 123.059C186.458 123.391 187.18 123.877 187.789 124.491C188.398 125.104 188.88 125.832 189.21 126.634C189.539 127.435 189.709 128.294 189.709 129.162V155.274C189.709 156.141 189.539 157 189.21 157.802C188.88 158.603 188.398 159.331 187.789 159.945C187.18 160.558 186.458 161.045 185.663 161.377C184.867 161.709 184.015 161.88 183.154 161.88ZM111.554 123.155C110.773 123.155 110 123.31 109.278 123.612C108.557 123.913 107.901 124.354 107.349 124.911C106.796 125.468 106.358 126.128 106.059 126.856C105.761 127.583 105.607 128.363 105.607 129.15V155.274C105.607 156.864 106.233 158.388 107.349 159.512C107.901 160.069 108.557 160.511 109.278 160.812C110 161.113 110.773 161.268 111.554 161.268H183.154C184.732 161.268 186.245 160.637 187.36 159.512C188.475 158.388 189.102 156.864 189.102 155.274V129.162C189.102 127.572 188.475 126.047 187.36 124.923C186.245 123.799 184.732 123.167 183.154 123.167L111.554 123.155Z" fill="#213344"></path></g><path d="M334.916 62.261V167.049H230.176C230.176 187.775 236.321 208.036 247.833 225.269C259.345 242.502 275.708 255.933 294.853 263.863C313.997 271.794 335.062 273.868 355.385 269.822C375.707 265.777 394.374 255.795 409.024 241.138C423.675 226.481 433.651 207.807 437.69 187.479C441.73 167.15 439.652 146.08 431.72 126.933C423.787 107.786 410.356 91.4216 393.125 79.9101C375.894 68.3985 355.637 62.2565 334.916 62.261Z" fill="#FFCE26"></path><g clip-path="url(#clip2_3388_6134)"><path d="M350.564 249.285C371.541 240.723 390.576 228.022 406.534 211.94C391.664 229.084 372.503 241.967 351.015 249.27C350.871 249.328 350.712 249.333 350.564 249.285V249.285Z" fill="#213344"></path></g><path d="M322.845 252.987C309.574 253.007 296.429 250.423 284.152 245.381C296.627 249.584 309.683 251.801 322.845 251.952C330.49 251.955 338.111 251.102 345.566 249.409C338.266 251.947 330.571 253.159 322.845 252.987Z" fill="#213344"></path><path d="M201.943 144.368H305.424V40.8623C291.342 40.7244 277.386 43.5269 264.448 49.0906C251.511 54.6544 239.876 62.857 230.288 73.1741C197.714 108.321 201.943 144.368 201.943 144.368Z" fill="#213344"></path><path d="M249.049 167.049C249.049 177.192 246.042 187.106 240.409 195.539C234.775 203.972 226.769 210.545 217.401 214.426C208.033 218.307 197.724 219.323 187.78 217.344C177.835 215.366 168.7 210.482 161.53 203.31C154.36 196.138 149.477 187.001 147.499 177.054C145.521 167.106 146.536 156.795 150.416 147.425C154.297 138.055 160.868 130.046 169.299 124.411C177.729 118.776 187.642 115.769 197.781 115.769C211.378 115.769 224.418 121.172 234.033 130.789C243.648 140.406 249.049 153.449 249.049 167.049Z" fill="#213344"></path><path d="M80.3777 238.131C80.3777 238.131 57.4996 234.711 47.399 249.989C37.2985 265.267 34.9589 267.99 29.4025 281.243C23.8461 294.496 19.9768 308.245 20.5842 318.573C21.1916 328.901 23.3962 339.994 35.6338 345.574L35.0489 368.705L156.256 368.188V316.188C156.256 316.188 155.603 289.906 153.466 275.933C152.703 269.289 151.194 262.752 148.967 256.447L123.727 256.087C123.727 256.087 112.367 237.276 93.6052 235.836L80.3777 238.131Z" fill="#A3EBCD"></path><path d="M235.867 167.049C235.863 175.443 233.37 183.646 228.705 190.622C224.039 197.599 217.41 203.034 209.656 206.242C201.902 209.45 193.371 210.286 185.141 208.644C176.912 207.002 169.355 202.957 163.424 197.019C157.494 191.08 153.457 183.517 151.825 175.284C150.192 167.051 151.037 158.519 154.252 150.766C157.467 143.013 162.909 136.388 169.888 131.729C176.868 127.069 185.072 124.585 193.463 124.589C199.035 124.592 204.551 125.693 209.697 127.828C214.844 129.964 219.519 133.092 223.457 137.035C227.394 140.978 230.517 145.658 232.646 150.807C234.776 155.957 235.87 161.476 235.867 167.049Z" fill="white"></path><path d="M149.551 254.264C149.551 254.264 154.231 260.227 153.173 265.897C152.116 271.567 147.392 279.173 141.453 280.658C135.514 282.143 131.78 281.243 129.868 279.263C127.956 277.283 125.144 275.46 124.604 273.66C124.064 271.86 123.344 268.057 127.911 267.877C127.685 267.004 127.684 266.088 127.908 265.214C128.132 264.341 128.574 263.538 129.193 262.882C129.641 262.343 130.227 261.936 130.89 261.706C131.552 261.476 132.264 261.432 132.95 261.577C132.85 260.606 133.086 259.629 133.618 258.811C134.15 257.992 134.946 257.38 135.874 257.077C139.293 255.952 140.711 257.977 142.623 259.327C144.535 260.677 144.872 260.992 144.872 260.992L149.551 254.264Z" fill="white"></path><path d="M109.014 278.138C107.806 279.716 106.801 281.44 106.022 283.268C105.735 285.053 105.982 286.882 106.73 288.527C107.478 290.173 108.696 291.56 110.229 292.516C114.728 295.171 116.528 296.409 118.89 295.734C120.189 295.431 121.366 294.74 122.264 293.754C122.264 293.754 123.119 293.394 123.479 295.239C123.839 297.084 124.266 300.729 121.499 301.989C121.499 301.989 121.004 307.435 117.36 307.772C117.36 307.772 114.346 312.092 110.611 311.35C106.877 310.607 106.112 308.83 103.548 308.537C102.421 308.378 101.273 308.446 100.172 308.736C99.0716 309.025 98.0396 309.532 97.1365 310.225C95.4082 307.112 93.4057 304.16 91.1527 301.404C89.6143 299.74 88.2709 297.905 87.1484 295.936C87.1484 295.936 92.12 292.561 93.4022 289.186C94.6845 285.811 97.9913 275.843 109.014 278.138Z" fill="white"></path><path d="M79.7037 238.513L91.2665 247.311L93.5161 236.061L93.9885 227.33C93.9885 227.33 98.6451 227.668 100.422 224.382C101.978 220.892 102.679 217.082 102.469 213.267C102.469 209.847 102.042 199.766 102.042 199.766C102.042 199.766 96.7105 191.936 93.3586 190.766C93.3586 190.766 90.6366 198.393 87.8247 201.184C85.4956 203.328 83.0064 205.291 80.3786 207.056C80.3786 207.056 73.315 205.234 72.6176 211.804C71.9202 218.375 79.8612 216.844 79.8612 216.844C83.3576 218.978 85.9203 222.353 87.0373 226.295C88.2071 231.943 83.2356 238.693 79.7037 238.513Z" fill="white"></path><path d="M102.311 199.091C102.311 199.091 103.165 190.293 100.421 187.84C97.6764 185.388 93.8072 183.183 85.1913 183.858C85.1913 183.858 63.1906 182.845 62.6957 197.223C62.6957 197.223 65.7776 212.974 66.4525 218.217C67.1273 223.46 69.5793 227.533 59.5463 230.638C49.5132 233.743 45.7564 244.881 47.6011 249.134C50.681 246.002 54.2525 243.395 58.174 241.416C64.185 239.289 70.5404 238.305 76.9129 238.513C85.9112 238.356 86.901 232.82 86.991 229.918C87.081 227.015 87.4409 223.167 84.3815 220.557C82.8034 219.119 81.1189 217.803 79.3425 216.619C79.3425 216.619 72.3238 217.475 72.5938 211.129C72.8637 204.784 80.3098 206.764 80.3098 206.764C80.3098 206.764 86.5411 203.366 88.6782 199.811C90.3344 196.776 91.836 193.66 93.1773 190.473C96.5861 192.933 99.6569 195.83 102.311 199.091Z" fill="#213344"></path><path d="M93.9643 227.443L93.6719 235.791L99.2283 236.736C99.8694 235.833 100.316 234.807 100.541 233.722C100.765 232.638 100.763 231.519 100.533 230.435C100.173 228.88 99.4393 227.436 98.396 226.228C97.0158 226.927 95.5083 227.341 93.9643 227.443Z" fill="#213344"></path><path d="M210.177 180.82C209.39 186.355 204.958 190.45 198.479 191.643C197.782 191.643 197.107 191.936 196.23 192.116V198.168H190.718V192.071C182.732 191.193 178.211 187.03 176.523 179.875L185.207 177.76C185.432 178.345 185.657 178.885 185.859 179.425C186.245 180.469 186.84 181.424 187.605 182.232C188.371 183.041 189.293 183.685 190.315 184.127C191.337 184.568 192.438 184.798 193.551 184.802C194.664 184.806 195.767 184.584 196.792 184.15C197.716 183.845 198.522 183.261 199.102 182.48C199.682 181.699 200.006 180.758 200.031 179.785C200.128 178.925 199.932 178.057 199.475 177.322C199.018 176.587 198.326 176.028 197.512 175.735C195.262 174.745 192.72 173.89 190.313 172.99C189.031 172.517 187.726 172.112 186.489 171.572C180.235 168.894 177.491 164.417 178.278 158.274C179.065 152.131 182.777 148.598 189.526 147.271C189.796 147.271 190.066 147.136 190.493 147.023V142.388H195.96L196.095 146.888C197.585 147.161 199.047 147.575 200.459 148.126C202.491 148.818 204.32 150.002 205.784 151.572C207.248 153.143 208.301 155.05 208.85 157.126L201.179 160.051C200.333 158.645 199.401 157.293 198.389 156.001C197.598 155.108 196.565 154.463 195.416 154.144C194.266 153.824 193.049 153.844 191.91 154.201C191.02 154.384 190.206 154.832 189.576 155.487C188.946 156.142 188.528 156.972 188.379 157.869C188.126 158.764 188.216 159.722 188.632 160.554C189.048 161.387 189.76 162.034 190.628 162.369C192.63 163.246 194.722 164.012 196.792 164.799C198.524 165.474 200.279 166.082 201.966 166.824C208.557 169.727 211.099 174.16 210.177 180.82Z" fill="#FFCE26"></path><path d="M211.011 358.737L207.816 367.085L214.858 364.61L211.011 358.737Z" fill="white"></path><path d="M183.406 372.981L184.419 372.508H233.662L199.108 392.894H187.141C187.646 391.155 187.746 389.323 187.433 387.539L183.406 372.981Z" fill="white"></path><path d="M60.1526 321.183C59.9051 320.215 67.3062 316.053 67.3062 316.053C67.8011 316.953 60.4225 321.115 60.4225 321.115L60.1526 321.183Z" fill="#213344"></path><path d="M87.2598 228.883C89.3018 229.97 91.4501 230.845 93.671 231.493L93.986 227.173L87.5297 226.228L87.2598 228.883Z" fill="#CDD5DC"></path><path d="M145.592 235.43L165.208 206.629L172.182 211.512L152.206 240.088C150.78 240 149.407 239.518 148.24 238.696C147.072 237.873 146.155 236.743 145.592 235.43Z" fill="#CDCDFA"></path><path d="M121.477 294.969L131.623 280.456L125.009 274.515C125.009 274.515 121.702 269.115 127.911 267.765C127.911 267.765 126.539 262.342 132.95 261.464C132.953 260.631 133.145 259.81 133.511 259.061C133.878 258.313 134.409 257.658 135.065 257.144C135.847 256.665 136.746 256.411 137.663 256.411C138.58 256.411 139.479 256.665 140.261 257.144L144.76 260.834L156.166 243.914C152.316 242.842 148.705 241.048 145.525 238.626C141.026 234.958 140.621 232.303 140.621 232.303L106.878 281.131C106.312 282.089 105.95 283.154 105.814 284.258C105.677 285.363 105.768 286.484 106.083 287.551C106.397 288.619 106.927 289.61 107.641 290.464C108.354 291.319 109.235 292.017 110.229 292.516C117.406 297.016 121.477 294.969 121.477 294.969Z" fill="#213344"></path><path d="M85.1922 183.925C83.7885 183.892 82.3842 183.937 80.9855 184.06C84.1574 185.41 87.7342 188.066 86.2495 192.903C84.6912 197.892 81.9871 202.446 78.3535 206.202L79.4783 206.607C83.1735 205.359 86.3942 203.001 88.7015 199.856C90.3577 196.821 91.8593 193.705 93.2007 190.518C96.5605 192.98 99.5854 195.87 102.199 199.114C102.199 199.114 103.054 190.316 100.309 187.863C97.5648 185.41 93.808 183.25 85.1922 183.925Z" fill="white"></path><path d="M86.9909 229.94C86.9909 227.06 87.4409 223.19 84.3814 220.58C82.8034 219.142 81.1189 217.826 79.3424 216.642C78.5957 216.74 77.8395 216.74 77.0929 216.642C76.8904 216.822 84.044 221.142 83.5491 227.375C82.8292 236.106 76.4855 238.851 73.2461 238.626C74.0559 238.626 75.4957 238.626 77.0029 238.626C85.9112 238.378 86.901 232.843 86.9909 229.94Z" fill="white"></path><path d="M98.3961 226.228C97.6653 226.56 96.9139 226.846 96.1465 227.083C97.1323 228.387 97.7132 229.953 97.8172 231.585C97.9212 233.217 97.5436 234.844 96.7314 236.263L99.2284 236.691C99.8695 235.788 100.316 234.762 100.541 233.677C100.766 232.593 100.763 231.474 100.533 230.39C100.166 228.851 99.4329 227.423 98.3961 226.228Z" fill="white"></path><path d="M47.7809 250.214C47.0115 248.785 46.62 247.184 46.6436 245.561C46.6672 243.939 47.1052 242.349 47.9159 240.943C50.7702 235.528 55.606 231.424 61.4133 229.49C62.327 229.331 63.1981 228.985 63.9722 228.474C64.7463 227.963 65.4068 227.298 65.9124 226.52C66.6802 225.062 66.8883 223.373 66.4973 221.772C65.496 213.679 64.0769 205.643 62.2456 197.696C62.2972 195.644 62.8538 193.636 63.8662 191.85C64.8785 190.064 66.3153 188.556 68.0495 187.458C76.4404 181.81 92.1874 182.958 96.799 184.668C97.0014 184.668 104.425 185.883 102.873 199.631C103.3 186.828 96.8215 185.68 96.529 185.635C92.8622 184.285 77.2052 182.53 68.6119 188.313C67.0438 189.302 65.738 190.655 64.8057 192.257C63.8735 193.86 63.3424 195.664 63.2579 197.516C65.0682 205.451 66.4797 213.471 67.4871 221.547C67.7714 222.514 67.8462 223.531 67.7066 224.529C67.567 225.527 67.2162 226.484 66.6776 227.336C66.1389 228.188 65.4249 228.915 64.5831 229.469C63.7412 230.022 62.791 230.39 61.7957 230.548C56.2536 232.378 51.6396 236.291 48.9282 241.461C48.2303 242.681 47.8154 244.042 47.7141 245.445C47.6129 246.847 47.8279 248.254 48.3433 249.561C47.9159 250.214 47.8484 250.214 47.7809 250.214Z" fill="#213344"></path><path d="M96.5077 316.705C96.1928 315.783 97.4075 314.77 98.2399 313.937C96.1464 309.812 93.7241 305.861 90.9963 302.124C88.4147 298.319 85.1683 295.011 81.4131 292.359C78.9611 293.866 59.9522 305.702 49.1543 316.255C60.0197 304.194 80.9407 291.504 81.1431 291.324C81.818 291.324 85.9347 293.574 91.8061 301.517C94.6457 305.397 97.1589 309.507 99.3197 313.802C98.602 314.85 97.7297 315.784 96.7326 316.57C96.6727 316.636 96.5944 316.683 96.5077 316.705Z" fill="#213344"></path><path d="M46.9712 348.769C42.2122 348.76 37.5459 347.453 33.4738 344.989C30.3369 343.084 27.6243 340.556 25.5039 337.56C23.3834 334.565 21.9002 331.165 21.1462 327.573C16.0621 306.107 30.1444 275.595 39.3902 260.947L40.6724 258.877C42.7865 255.095 45.3386 251.576 48.2759 248.391C58.2865 238.333 65.98 237.793 76.5755 238.108C65.9126 238.806 58.7364 239.323 48.9958 249.134C46.1218 252.265 43.6159 255.715 41.5272 259.417C41.0998 260.114 40.6949 260.812 40.2675 261.487C31.2692 276 17.1419 306.197 22.271 327.348C22.9913 330.806 24.4156 334.079 26.4551 336.963C28.4947 339.847 31.1059 342.281 34.1262 344.112C37.3932 346.081 41.0629 347.285 44.861 347.636C48.6591 347.987 52.4873 347.474 56.0595 346.137C53.4234 348.035 50.2133 348.965 46.9712 348.769Z" fill="#213344"></path><path d="M124.018 256.964C116.46 245.421 104.267 237.006 93.9414 236.308C104.627 236.016 117.157 244.611 124.446 256.177C124.221 256.942 124.108 256.964 124.018 256.964Z" fill="#213344"></path><path d="M94.3036 227.69H92.7963C91.1992 227.533 88.6571 227.24 86.8125 226.88C88.8023 226.404 90.8668 226.328 92.8863 226.655C94.272 226.828 95.678 226.728 97.0255 226.362C97.9635 226.034 98.8034 225.474 99.4679 224.734C100.132 223.995 100.6 223.1 100.827 222.132C101.848 218.283 102.221 214.291 101.93 210.319C101.93 207.619 101.817 205.459 101.75 203.321V200.036C102.762 200.036 102.874 203.299 102.874 203.299C102.874 205.549 103.009 207.596 103.054 209.734C103.379 214.007 102.984 218.305 101.885 222.447C101.619 223.58 101.065 224.625 100.277 225.48C99.4885 226.336 98.4925 226.973 97.3855 227.33C96.3827 227.607 95.3432 227.729 94.3036 227.69Z" fill="#213344"></path><path d="M80.377 207.282C83.4419 205.398 86.1047 202.928 88.2126 200.013C90.3204 197.097 91.8316 193.794 92.6596 190.293C93.7844 190.293 101.23 195.671 102.625 199.654C99.8676 196.559 96.808 193.747 93.4919 191.261C92.5628 194.666 90.9403 197.843 88.726 200.593C86.5118 203.342 83.7536 205.604 80.6244 207.237L80.377 207.282Z" fill="#213344"></path><path d="M88.8368 205.324C89.2643 205.324 89.5342 205.324 89.6467 206.899C89.7592 208.474 89.3542 208.834 88.9718 208.834C88.5894 208.834 88.252 208.294 88.252 207.124C88.252 205.954 88.3194 205.414 88.8368 205.324Z" fill="#213344"></path><path d="M100.644 204.896C101.049 204.896 101.319 204.896 101.499 206.449C101.679 208.002 101.252 208.384 100.892 208.384C100.532 208.384 100.127 207.889 100.127 206.719C100.127 205.549 100.105 204.986 100.644 204.896Z" fill="#213344"></path><path d="M102.13 201.949C101.672 201.573 101.125 201.322 100.542 201.219C99.959 201.117 99.3592 201.167 98.8008 201.364C100.735 199.811 101.838 200.486 102.468 201.026C102.423 201.881 102.288 201.949 102.13 201.949Z" fill="#213344"></path><path d="M87.0586 202.264C87.5339 201.496 88.2423 200.901 89.0801 200.565C89.918 200.229 90.8414 200.17 91.7152 200.396C91.4003 201.386 89.0607 200.711 87.396 202.151C87.2956 202.218 87.1791 202.257 87.0586 202.264Z" fill="#213344"></path><path d="M77.9477 217.385C77.12 217.372 76.3036 217.19 75.5491 216.849C74.7945 216.509 74.1179 216.017 73.561 215.404C72.5404 214.238 72.022 212.716 72.1189 211.169C72.2158 209.622 72.9202 208.176 74.0784 207.146C75.2386 206.117 76.7598 205.591 78.3076 205.684C79.4759 205.764 80.5948 206.187 81.5245 206.899C80.4341 206.988 79.3366 206.927 78.2626 206.719C76.9858 206.638 75.7293 207.068 74.7696 207.914C73.8098 208.761 73.2254 209.953 73.1448 211.23C73.0643 212.508 73.4942 213.764 74.3401 214.724C75.186 215.684 76.3784 216.269 77.6552 216.349C78.5282 216.397 79.398 216.211 80.1747 215.809C80.0762 216.308 79.7901 216.749 79.3757 217.042C78.9612 217.335 78.45 217.458 77.9477 217.385Z" fill="#213344"></path><path d="M76.7784 214.752C76.4859 213.762 79.5229 211.512 79.5229 211.512L76.1035 208.969C76.7109 208.137 80.6027 211.084 80.6027 211.084C80.6027 211.917 77.0033 214.684 77.0033 214.684C76.9342 214.723 76.8574 214.746 76.7784 214.752Z" fill="#213344"></path><path d="M91.4898 247.941C91.1748 247.941 79.7695 238.941 79.7695 238.941C80.3994 238.131 91.0174 246.434 91.0174 246.434L92.907 235.746L93.3569 227.195C94.3692 227.195 93.9193 235.858 93.9193 235.858L92.0072 247.514C91.6248 247.941 91.5573 247.941 91.4898 247.941Z" fill="#213344"></path><path d="M99.4311 237.051C100.271 235.368 100.572 233.468 100.294 231.608C100.017 229.748 99.1734 228.019 97.8789 226.655C98.6663 226.003 103.75 231.358 99.8585 236.826C99.8074 236.891 99.7428 236.946 99.6691 236.984C99.5954 237.023 99.5143 237.046 99.4311 237.051Z" fill="#213344"></path><path d="M77.3399 239.188C76.9056 239.221 76.4695 239.221 76.0352 239.188C76.5526 238.243 84.3811 239.436 86.3157 230.84C88.2503 222.245 79.3195 217.34 79.2295 217.182C79.8144 216.327 89.4426 221.682 87.328 231.065C86.9358 233.403 85.7052 235.517 83.8666 237.012C82.0281 238.508 79.7077 239.281 77.3399 239.188Z" fill="#213344"></path><path d="M35.0714 369.156C34.2165 361.595 34.554 345.687 34.554 345.529C35.5663 345.709 35.2288 361.595 35.5888 368.616L35.0714 369.156Z" fill="#213344"></path><path d="M55.5195 310.382C63.483 292.921 64.5178 266.055 64.5178 265.785C65.5301 266.1 64.5178 293.191 55.947 310.112C55.9065 310.191 55.8455 310.258 55.7703 310.306C55.6951 310.353 55.6085 310.38 55.5195 310.382Z" fill="#213344"></path><path d="M98.3048 215.652C98.6647 214.257 99.9695 212.772 100.082 211.827C99.7445 211.152 98.7547 211.579 98.2373 211.827C97.7199 212.074 97.27 212.232 96.9326 212.074C96.3571 209.857 95.9436 207.601 95.6953 205.324C96.7108 207.041 97.3331 208.962 97.5175 210.949C98.7097 210.432 100.037 209.869 100.802 210.747C100.935 210.907 101.03 211.096 101.081 211.298C101.132 211.501 101.136 211.712 101.094 211.917C100.685 213.361 99.8067 214.628 98.5973 215.517C98.5176 215.593 98.4146 215.641 98.3048 215.652Z" fill="#213344"></path><path d="M93.8742 219.432C93.1316 219.445 92.4024 219.233 91.7821 218.825C91.2814 218.427 90.8645 217.934 90.5556 217.374C90.2467 216.814 90.0519 216.198 89.9824 215.562C90.9947 215.562 91.1747 217.16 92.3445 217.97C92.76 218.229 93.2293 218.391 93.7166 218.441C94.2039 218.492 94.6964 218.431 95.1564 218.262C94.8865 219.365 94.4816 219.432 93.8742 219.432Z" fill="#213344"></path><path d="M89.1271 186.963C87.2795 185.969 85.3441 185.148 83.3457 184.51C85.4735 184.431 87.5778 184.979 89.397 186.085C89.487 186.873 89.3071 186.963 89.1271 186.963Z" fill="#213344"></path><path d="M200.572 195.446H195.038C194.648 193.423 194.482 191.363 194.543 189.303C186.737 188.313 182.103 184.195 180.371 176.77C183.295 175.63 186.304 174.72 189.369 174.047C189.896 174.637 190.315 175.315 190.607 176.05C190.924 176.978 191.426 177.831 192.084 178.558C192.741 179.286 193.54 179.871 194.431 180.28C195.439 180.744 196.531 180.999 197.641 181.03C198.75 181.061 199.854 180.867 200.887 180.46C201.715 180.186 202.439 179.663 202.958 178.962C203.478 178.262 203.768 177.417 203.789 176.545C203.88 175.784 203.707 175.015 203.297 174.367C202.887 173.719 202.266 173.233 201.54 172.99C199.852 172.292 198.098 171.64 196.388 171.01L194.363 170.267L193.036 169.794C192.204 169.502 191.349 169.187 190.517 168.827C184.038 166.059 181.181 161.401 181.991 155.011C182.801 148.621 186.715 144.931 193.666 143.558C194.228 143.423 194.228 139.058 194.228 139.058C196.196 138.65 198.204 138.476 200.212 138.54C200.644 140.062 200.856 141.638 200.842 143.22C202.211 143.52 203.557 143.919 204.869 144.413C207.008 145.115 208.937 146.342 210.481 147.981C212.026 149.62 213.135 151.619 213.71 153.796C211.143 155.184 208.473 156.373 205.724 157.351C205.108 156.974 204.598 156.448 204.239 155.821C203.719 154.89 203.124 154.002 202.462 153.166C201.731 152.348 200.779 151.76 199.721 151.472C198.663 151.185 197.544 151.21 196.5 151.546C195.704 151.691 194.972 152.081 194.408 152.662C193.843 153.243 193.474 153.985 193.351 154.786C193.133 155.58 193.223 156.427 193.602 157.157C193.982 157.887 194.623 158.447 195.398 158.724C196.838 159.354 198.345 159.916 199.897 160.479L201.652 161.131L203.407 161.806C204.554 162.234 205.656 162.662 206.848 163.157C213.597 166.127 216.207 170.717 215.239 177.647C214.452 183.385 209.818 187.683 203.137 188.898L201.697 189.213C201.382 191.101 201.254 193.015 201.315 194.928C201.324 195.02 201.309 195.113 201.27 195.197C201.232 195.281 201.171 195.353 201.096 195.406C201.02 195.459 200.931 195.49 200.839 195.497C200.747 195.504 200.655 195.486 200.572 195.446ZM195.556 194.433H200.055V188.875C200.891 188.427 201.784 188.094 202.709 187.885C209.031 186.738 213.237 182.868 213.957 177.512C214.857 171.1 212.382 166.847 206.174 164.012C205.071 163.517 203.924 163.089 202.777 162.662L201.045 162.009L199.312 161.334C197.85 160.771 196.321 160.209 194.813 159.556C193.83 159.189 193.017 158.471 192.531 157.541C192.045 156.61 191.921 155.533 192.181 154.516C192.339 153.521 192.799 152.598 193.499 151.873C194.2 151.148 195.106 150.657 196.096 150.466C197.325 150.088 198.636 150.07 199.876 150.412C201.115 150.755 202.231 151.445 203.092 152.401C203.832 153.3 204.501 154.256 205.094 155.259L205.724 156.249L212.472 153.639C211.919 151.759 210.927 150.038 209.577 148.618C208.228 147.198 206.56 146.119 204.711 145.471C203.335 144.935 201.911 144.528 200.46 144.256C200.087 142.784 199.898 141.273 199.897 139.755H195.398V143.895C187.525 145.921 183.88 149.476 183.138 155.146C182.396 160.816 185.05 165.339 191.057 167.904C191.844 168.264 192.699 168.557 193.509 168.849L194.858 169.322L196.883 170.087C198.593 170.694 200.37 171.347 202.079 172.067C202.969 172.419 203.723 173.044 204.232 173.854C204.742 174.663 204.981 175.613 204.914 176.567C204.871 177.634 204.506 178.663 203.868 179.518C203.23 180.374 202.347 181.016 201.337 181.36C200.178 181.813 198.939 182.029 197.695 181.994C196.45 181.96 195.226 181.675 194.093 181.158C193.08 180.683 192.172 180.01 191.423 179.18C190.673 178.349 190.098 177.376 189.729 176.32C189.729 175.96 189.459 175.622 189.324 175.262C189.189 174.902 181.518 176.95 181.518 176.95C183.273 183.7 187.727 187.458 195.016 188.2C195.41 190.254 195.591 192.343 195.556 194.433Z" fill="#213344"></path><path d="M137.021 281.941C134.938 281.872 132.893 281.363 131.02 280.448C129.148 279.533 127.49 278.232 126.155 276.63C124.6 275.211 123.656 273.242 123.523 271.14C123.702 269.961 124.341 268.9 125.301 268.192C125.739 267.825 126.251 267.555 126.801 267.4C127.352 267.245 127.929 267.208 128.495 267.292C127.668 267.915 126.804 268.486 125.908 269.002C125.541 269.265 125.233 269.601 125 269.988C124.768 270.375 124.618 270.805 124.558 271.252C124.7 273.075 125.548 274.77 126.92 275.978C128.089 277.415 129.541 278.596 131.186 279.448C132.831 280.299 134.633 280.803 136.481 280.928C138.294 280.978 140.098 280.648 141.776 279.958C143.453 279.268 144.968 278.234 146.222 276.923C152.003 271.387 154.005 265.672 152.003 260.204C151.468 258.18 150.535 256.283 149.258 254.624C150.023 253.927 151.126 254.827 152.97 259.844C154.455 263.895 154.612 270.285 146.919 277.665C144.313 280.341 140.755 281.878 137.021 281.941Z" fill="#213344"></path><path d="M143.793 270.51C140.613 268.706 137.602 266.62 134.795 264.277C133.738 263.175 132.545 262.027 132.68 260.497C132.747 259.732 132.983 258.991 133.372 258.33C133.762 257.668 134.294 257.101 134.93 256.672C136.1 255.997 137.482 255.789 138.799 256.087C139.981 256.397 141.05 257.037 141.881 257.932C145.233 260.744 146.988 261.914 146.988 261.937C146.358 262.747 144.626 261.577 141.836 259.237C140.396 257.954 139.587 257.279 138.619 257.099C137.55 256.861 136.43 257.021 135.47 257.549C134.948 257.889 134.511 258.343 134.192 258.877C133.872 259.412 133.678 260.012 133.625 260.632C133.625 261.554 134.525 262.612 135.177 263.31C137.928 265.632 140.871 267.717 143.973 269.542C144.131 270.42 143.973 270.51 143.793 270.51Z" fill="#213344"></path><path d="M138.799 276.99C135.394 274.95 132.213 272.56 129.306 269.857C128.773 269.437 128.332 268.912 128.009 268.315C127.686 267.719 127.488 267.062 127.427 266.386C127.365 265.71 127.443 265.029 127.654 264.384C127.865 263.739 128.205 263.144 128.653 262.635C129.277 262.047 130.019 261.598 130.83 261.319C131.641 261.04 132.501 260.936 133.355 261.014C131.96 261.623 130.632 262.377 129.396 263.265C129.049 263.679 128.788 264.159 128.631 264.676C128.473 265.193 128.421 265.736 128.478 266.274C128.534 266.811 128.699 267.332 128.961 267.804C129.223 268.277 129.577 268.692 130.003 269.025C132.78 271.61 135.793 273.931 139.001 275.955C139.136 276.923 138.979 276.99 138.799 276.99Z" fill="#213344"></path><path d="M221.65 369.155H181.766C181.766 368.143 221.65 368.143 221.65 368.143C222.145 369.02 221.92 369.155 221.65 369.155Z" fill="#213344"></path><path d="M318.021 157.014H247.857C247.857 156.001 317.594 156.001 317.594 156.001V54.5656C318.606 54.5656 318.606 156.519 318.606 156.519C318.608 156.592 318.592 156.665 318.562 156.732C318.532 156.798 318.487 156.858 318.431 156.905C318.375 156.952 318.309 156.987 318.239 157.005C318.168 157.024 318.094 157.027 318.021 157.014Z" fill="#213344"></path><path d="M156.231 316.705C155.714 316.165 155.534 311.147 155.511 305.342C155.511 293.304 151.98 269.115 151.957 268.867C153.014 268.867 156.456 293.236 156.456 305.342C156.456 311.125 156.636 316.12 156.659 316.165L156.231 316.705Z" fill="#213344"></path><path d="M389.355 240.178C385.402 240.006 381.457 240.654 377.767 242.084C374.077 243.513 370.723 245.691 367.917 248.481C362.311 254.453 357.884 261.431 354.87 269.047L353.925 237.883C353.925 237.883 349.156 233.383 337.705 233.968C326.255 234.553 321.958 235.386 320.496 237.163C319.198 251.826 318.68 266.548 318.944 281.266C319.664 300.977 320.834 315.265 339.19 315.017C344.737 314.8 350.174 313.397 355.133 310.901C360.092 308.405 364.459 304.875 367.94 300.549L365.69 372.958H450.679C450.679 372.958 448.856 351.244 449.869 347.644C449.869 347.644 473.714 342.897 476.009 331.421C478.303 319.945 477.201 313.06 472.342 298.614C472.342 298.614 465.593 280.613 459.654 269.52C453.716 258.427 450.454 249.809 437.474 243.554C430.123 239.81 421.656 238.89 413.673 240.966L389.355 240.178Z" fill="#A3EBCD"></path><path d="M413.651 233.698L413.291 219.387C413.291 219.387 419.275 220.355 420.782 216.822C422.289 213.289 421.164 209.734 419.32 208.744C417.475 207.754 411.986 206.494 409.781 211.219L410.614 219.747C410.614 219.747 412.076 229.31 404.72 230.413C401.129 231.059 397.479 231.323 393.832 231.2V233.698L398.196 250.596L413.651 233.698Z" fill="white"></path><path d="M403.189 195.491C398.425 199.146 392.407 200.764 386.453 199.991L386.745 202.646C385.454 204.851 384.837 207.385 384.968 209.937C384.775 212.366 385.401 214.79 386.745 216.822C387.393 217.311 388.183 217.576 388.995 217.576C389.806 217.576 390.596 217.311 391.244 216.822C391.794 217.336 392.458 217.71 393.183 217.914C393.907 218.118 394.669 218.144 395.406 217.992C397.79 217.362 398.308 216.305 399.388 216.125C399.7 216.636 400.168 217.033 400.722 217.26C401.276 217.487 401.889 217.53 402.469 217.385C403.041 217.296 403.58 217.058 404.03 216.695C404.48 216.331 404.827 215.855 405.034 215.315C405.034 215.315 407.284 216.35 408.296 214.505C409.308 212.659 408.453 207.417 408.453 207.417C405.44 204.126 403.59 199.936 403.189 195.491Z" fill="white"></path><path d="M348.031 240.763L347.694 231.515C349.288 227.789 350.537 223.926 351.428 219.972C352.08 215.719 351.091 213.829 349.179 212.434C347.266 211.039 346.929 211.039 346.929 211.039C347.089 207.266 346.787 203.488 346.029 199.789C344.882 195.671 344.724 193.578 342.137 193.668C339.55 193.758 337.908 197.066 338.066 199.586C338.223 202.106 338.875 209.262 338.875 209.262C338.589 208.413 338.013 207.692 337.247 207.227C336.482 206.762 335.576 206.582 334.691 206.719C331.159 206.719 330.485 211.692 330.485 211.692C330.485 211.692 328.707 207.709 325.401 207.821C322.094 207.934 321.756 212.479 321.891 214.572C322.026 216.664 322.341 221.885 323.578 223.19C323.578 223.19 324.928 230.683 325.311 233.63C325.693 236.578 326.075 241.033 326.075 241.033C326.075 241.033 339.685 244.319 348.031 240.763Z" fill="white"></path><path d="M398.962 329.171C395.667 326.679 391.937 324.824 387.961 323.703C382.225 322.353 380.515 322.33 378.828 323.928C377.141 325.526 373.834 328.023 372.079 329.351C370.325 330.678 365.736 333.424 369.83 336.979C373.924 340.534 381.303 335.696 383.125 332.704L401.121 336.416C400.606 333.945 399.884 331.521 398.962 329.171Z" fill="white"></path><path d="M419.882 208.902C421.871 205.625 422.871 201.843 422.762 198.011C422.469 192.003 419.747 190.383 417.633 189.865C414.431 189.449 411.21 189.201 407.982 189.123C406.446 186.07 404.115 183.489 401.233 181.653C397.252 179.672 392.078 178.795 387.983 181.968C383.889 185.14 381.73 190.541 384.879 195.468C384.879 196.121 382.067 196.436 381.91 200.531C381.842 201.673 382.082 202.811 382.604 203.828C383.126 204.846 383.912 205.704 384.879 206.314L386.634 202.804L386.904 200.059C386.904 200.059 396.712 201.206 402.786 195.558C402.786 195.558 404.383 203.839 408.252 206.809L408.095 214.504C407.163 214.925 406.166 215.184 405.148 215.269C405.148 215.269 403.685 217.677 401.998 217.52C400.964 217.336 399.994 216.886 399.186 216.214C398.032 216.875 396.838 217.461 395.609 217.97C394.14 218.043 392.683 217.675 391.425 216.912C390.676 217.26 389.851 217.415 389.026 217.364C388.201 217.313 387.402 217.057 386.701 216.619C386.523 219.302 386.523 221.993 386.701 224.675C386.954 226.594 387.927 228.345 389.422 229.573C390.917 230.802 392.824 231.415 394.755 231.29C400.986 231.29 406.002 230.683 408.252 229.04C410.502 227.398 410.884 222.74 410.704 220.22C410.524 217.7 410.569 210.994 410.569 210.994C410.569 210.994 413.381 205.414 419.882 208.902Z" fill="#CDD5DC"></path><path d="M393.674 234.013L389.175 240.223L389.513 262.725C389.513 262.725 387.735 303.969 389.513 317.808L400.76 280.523L406.227 264.48L407.374 266.415L419.477 239.998L413.38 233.248L393.674 234.013Z" fill="white"></path><path d="M398.175 250.596L392.664 258.269L393.316 265.83L389.447 273.435C389.447 273.435 389.447 273.885 389.267 274.695C388.884 287.746 388.547 308.02 389.694 317.313C389.897 317.313 400.942 280.501 400.942 280.501L401.864 277.845C401.864 276.878 401.864 276.293 401.864 276.293L398.985 265.83L403.484 259.912L398.175 250.596Z" fill="#CDCDFA"></path><path d="M403.888 219.095C402.785 219.534 401.86 220.327 401.258 221.349C400.655 222.372 400.409 223.565 400.558 224.742C400.558 224.742 398.061 225.597 396.869 224.967C395.677 224.337 394.259 222.717 394.934 221.772C395.609 220.827 397.026 220.895 398.129 220.962C399.231 221.03 399.681 221.412 400.378 220.22C401.076 219.027 401.233 218.262 402.448 217.97C403.663 217.677 403.888 219.095 403.888 219.095Z" fill="#213344"></path><path d="M403.887 219.095C402.852 219.54 401.989 220.309 401.429 221.287C400.869 222.266 400.642 223.399 400.783 224.518C400.783 224.518 402.335 225.08 403.46 222.897C403.788 222.327 403.996 221.695 404.069 221.041C404.143 220.386 404.081 219.724 403.887 219.095Z" fill="white"></path><path d="M418.644 339.904L412.142 344.697L417.564 345.327L368.208 379.956L307.875 367.738L314.106 362.9L309.27 361.933L358.603 327.753L418.644 339.904Z" fill="white"></path><path d="M412.142 344.697L417.564 345.327L368.208 379.956L307.875 367.738L314.106 362.9L369.333 374.151L412.142 344.697Z" fill="#FFCE26"></path><path d="M371.314 338.239C372.918 338.92 374.661 339.208 376.398 339.079C378.136 338.95 379.817 338.407 381.303 337.496C386.094 334.324 386.364 333.424 386.364 333.424L383.687 332.298C383.687 332.298 378.333 339.229 371.314 338.239Z" fill="#CDD5DC"></path><path d="M410.231 225.193C410.231 225.193 411.401 236.308 394.259 234.688L393.832 231.515L402.988 230.728C402.988 230.728 409.894 230.953 410.231 225.193Z" fill="#CDD5DC"></path><path d="M399.524 252.802L395.295 258.989L395.812 266.392L389.131 288.489L389.356 273.75L392.91 265.83L392.415 258.629L397.972 250.911L399.524 252.802Z" fill="white"></path><path d="M400.422 217.07C402.671 215.652 405.753 205.211 399.904 201.836C399.904 201.836 405.483 200.081 405.933 209.847C406.406 218.262 400.422 217.07 400.422 217.07Z" fill="#CDD5DC"></path><path d="M387.894 217.07C390.143 215.652 393.54 205.414 387.691 202.016C387.691 202.016 394.125 200.104 393.428 209.847C392.843 217.992 387.894 217.07 387.894 217.07Z" fill="#CDD5DC"></path><path d="M390.592 224.112C390.277 220.985 390.232 217.16 390.232 217.16C389.501 217.397 388.713 217.397 387.982 217.16C386.565 216.777 386.768 223.167 386.79 224.63C387.043 226.549 388.016 228.3 389.511 229.528C391.006 230.757 392.913 231.37 394.844 231.245C396.508 231.245 398.083 231.245 399.545 231.043C395.383 230.098 391.132 229.513 390.592 224.112Z" fill="white"></path><path d="M348.008 241.888C347.559 239.233 347.199 231.628 347.199 231.538C347.199 231.448 349.808 223.392 349.808 223.392C349.966 222.987 350.101 222.605 350.213 222.222C351.286 219.944 351.494 217.353 350.798 214.932C350.169 213.85 349.239 212.975 348.121 212.412C346.616 211.457 345.018 210.658 343.352 210.027C342.626 209.743 341.872 209.539 341.102 209.419C340.288 209.291 339.456 209.478 338.774 209.942C338.093 210.406 337.614 211.112 337.435 211.917C337.377 212.471 337.431 213.032 337.593 213.565C337.755 214.099 338.023 214.594 338.38 215.022C339.366 216.213 340.536 217.238 341.845 218.06C343.755 219.344 345.962 220.119 348.256 220.31C347.056 220.62 345.801 220.645 344.59 220.383C343.379 220.122 342.247 219.58 341.282 218.802C339.835 217.971 338.535 216.907 337.435 215.652C336.99 215.111 336.659 214.485 336.462 213.812C336.265 213.139 336.206 212.433 336.288 211.737C336.511 210.688 337.122 209.763 337.998 209.145C338.873 208.528 339.95 208.264 341.012 208.407C341.916 208.511 342.802 208.738 343.644 209.082C345.398 209.729 347.085 210.543 348.683 211.512C349.973 212.171 351.032 213.207 351.72 214.482C352.55 217.139 352.366 220.009 351.203 222.537L350.798 223.707L348.211 231.56C348.211 232.483 348.571 239.301 348.526 241.371C348.529 241.44 348.518 241.508 348.493 241.573C348.468 241.637 348.43 241.695 348.381 241.744C348.333 241.793 348.274 241.831 348.21 241.856C348.146 241.88 348.077 241.892 348.008 241.888Z" fill="#213344"></path><path d="M325.963 241.641C325.395 239.368 325.034 237.048 324.883 234.71C324.883 234.71 323.691 229.49 322.926 223.032C324.703 229.333 325.895 234.485 325.895 234.53L326.48 241.101C326.008 241.641 325.985 241.641 325.963 241.641Z" fill="#213344"></path><path d="M326.187 224.607C325.602 224.622 325.02 224.515 324.478 224.295C323.936 224.074 323.446 223.744 323.037 223.325C322.777 223.042 322.557 222.724 322.385 222.38C322.13 221.815 321.956 221.216 321.868 220.602C321.232 217.539 321.11 214.39 321.508 211.287C321.688 210.16 322.233 209.125 323.06 208.339C323.676 207.821 324.43 207.494 325.229 207.399C326.028 207.303 326.838 207.442 327.559 207.799C328.957 208.688 329.956 210.083 330.348 211.692C330.57 212.43 330.743 213.181 330.866 213.942C331.265 215.949 331.349 218.007 331.113 220.04C330.936 221.447 330.267 222.746 329.224 223.707C328.347 224.351 327.273 224.67 326.187 224.607ZM323.307 221.93C323.583 222.33 323.936 222.669 324.346 222.929C324.757 223.189 325.215 223.363 325.694 223.44C326.173 223.518 326.663 223.498 327.135 223.382C327.606 223.265 328.049 223.054 328.436 222.762C329.302 221.969 329.853 220.891 329.989 219.725C330.202 218.056 330.164 216.364 329.876 214.707C329.731 213.773 329.528 212.848 329.269 211.939C328.936 210.616 328.137 209.458 327.019 208.677C326.49 208.422 325.9 208.325 325.317 208.397C324.735 208.468 324.186 208.706 323.735 209.082C323.104 209.689 322.672 210.474 322.497 211.332C322.132 214.333 322.261 217.373 322.88 220.332C322.939 220.862 323.084 221.378 323.307 221.862V221.93Z" fill="#213344"></path><path d="M347.155 211.512C346.688 206.627 345.861 201.784 344.68 197.021C344.502 196.192 344.123 195.42 343.578 194.771C343.344 194.551 343.065 194.384 342.761 194.28C342.456 194.177 342.134 194.14 341.814 194.172C341.494 194.204 341.185 194.304 340.907 194.466C340.629 194.627 340.389 194.846 340.203 195.108C338.089 197.066 338.359 199.609 338.651 202.511C338.899 204.986 339.101 206.854 339.259 208.744C338.271 207.065 337.736 205.157 337.706 203.209C337.324 199.676 337.009 196.661 339.506 194.343C339.796 194.002 340.153 193.722 340.554 193.522C340.955 193.321 341.392 193.204 341.84 193.177C342.287 193.149 342.735 193.213 343.158 193.363C343.58 193.513 343.968 193.747 344.298 194.051C344.963 194.812 345.434 195.723 345.67 196.706C346.922 201.353 347.594 206.137 347.672 210.949C347.513 211.149 347.34 211.337 347.155 211.512Z" fill="#213344"></path><path d="M336.153 223.257C335.014 223.248 333.9 222.921 332.936 222.312C331.742 221.406 330.937 220.078 330.687 218.6C330.484 217.655 330.372 216.687 330.237 215.742C330.237 215.202 330.237 214.662 330.034 214.144C329.659 212.502 329.753 210.786 330.304 209.194C330.768 208.1 331.609 207.21 332.675 206.685C333.74 206.161 334.959 206.037 336.108 206.336C336.848 206.504 337.516 206.901 338.017 207.47C338.518 208.04 338.826 208.754 338.898 209.509C338.086 208.482 337.003 207.703 335.771 207.259C334.876 207.05 333.937 207.161 333.115 207.572C332.293 207.982 331.641 208.668 331.272 209.509C330.791 210.923 330.721 212.445 331.069 213.897C331.069 214.414 331.227 214.977 331.294 215.517C331.407 216.439 331.519 217.407 331.722 218.307C331.9 219.517 332.546 220.608 333.521 221.345C334.134 221.775 334.848 222.039 335.594 222.11C336.339 222.181 337.09 222.057 337.773 221.75C338.435 221.291 338.962 220.662 339.298 219.93C339.635 219.198 339.768 218.389 339.685 217.587C340.697 220.76 339.37 222.087 338.268 222.74C337.616 223.083 336.89 223.261 336.153 223.257Z" fill="#213344"></path><path d="M334.015 230.728C333.689 229.313 333.657 227.846 333.92 226.418C334.183 224.99 334.736 223.631 335.545 222.425C336.332 223.077 334.083 226.025 334.51 230.165C334.038 230.728 334.038 230.728 334.015 230.728Z" fill="#213344"></path><path d="M373.563 338.869C372.674 338.867 371.794 338.68 370.981 338.32C370.168 337.959 369.438 337.434 368.839 336.776C368.433 336.422 368.112 335.981 367.898 335.487C367.684 334.993 367.583 334.457 367.602 333.919C367.759 331.893 369.986 330.273 372.798 328.226C374.661 326.94 376.414 325.503 378.04 323.928C381.189 320.733 386.206 322.51 390.637 324.063C393.897 325.198 396.94 326.88 399.636 329.036C398.938 329.778 395.542 326.786 390.323 325.031C385.104 323.275 381.324 322.128 378.782 324.648C377.123 326.292 375.333 327.797 373.428 329.148C370.931 330.971 368.772 332.546 368.637 334.076C368.635 334.471 368.721 334.862 368.888 335.219C369.056 335.577 369.3 335.894 369.604 336.146C370.141 336.747 370.805 337.218 371.549 337.526C372.293 337.834 373.097 337.97 373.901 337.924C379.075 337.631 384.474 330.723 384.519 330.656C385.104 331.578 379.592 338.644 373.968 338.959L373.563 338.869Z" fill="#213344"></path><path d="M435.719 318.01C433.469 298.232 423.863 266.842 423.773 266.527C424.853 266.527 434.549 298.029 436.236 317.47C436.077 317.662 435.904 317.843 435.719 318.01Z" fill="#213344"></path><path d="M393.676 326.043C393.676 324.986 414.687 319.293 445.641 317.043C428.209 318.862 410.923 321.869 393.901 326.043H393.676Z" fill="#213344"></path><path d="M409.42 352.325C444.266 351.29 462.33 343.617 467.054 341.254C469.055 340.266 470.833 338.877 472.276 337.174C473.719 335.471 474.798 333.49 475.445 331.353C479.471 318.955 473.803 297.782 458.618 268.35C458.326 267.787 457.988 267.135 457.651 266.415C455.176 261.375 451.037 252.914 442.916 247.154C436.16 242.455 428.058 240.085 419.835 240.403C428.189 239.234 436.671 241.347 443.501 246.299C451.847 252.239 456.053 260.812 458.573 265.942C458.91 266.662 459.225 267.315 459.518 267.855C474.837 297.467 480.529 318.91 476.412 331.578C475.72 333.857 474.564 335.968 473.015 337.777C471.466 339.585 469.559 341.053 467.414 342.086C462.645 344.562 444.401 352.325 409.42 352.325Z" fill="#213344"></path><path d="M354.869 270.128C363.867 245.646 376.218 242.001 376.735 241.866C380.835 240.629 385.047 239.8 389.31 239.391C389.31 240.426 382.921 240.943 377.027 242.856C376.892 242.856 364.587 246.569 355.342 269.858C355.298 269.944 355.23 270.015 355.146 270.063C355.062 270.111 354.966 270.134 354.869 270.128Z" fill="#213344"></path><path d="M413.65 234.486C413.155 233.991 412.391 219.252 412.391 219.252C413.425 219.252 414.168 233.946 414.168 233.946C414.008 234.138 413.835 234.318 413.65 234.486Z" fill="#213344"></path><path d="M386.702 203.344C386.184 202.804 386.23 200.531 386.23 200.531C387.264 200.531 387.219 202.781 387.219 202.781C387.222 202.852 387.211 202.923 387.187 202.99C387.163 203.056 387.125 203.118 387.077 203.17C387.029 203.222 386.971 203.264 386.907 203.294C386.842 203.324 386.773 203.341 386.702 203.344Z" fill="#213344"></path><path d="M395.158 231.763C393.775 231.951 392.367 231.772 391.075 231.242C389.784 230.713 388.655 229.853 387.802 228.748C386.301 225.805 385.669 222.496 385.979 219.207C385.979 218.51 385.979 217.835 385.979 217.182C385.979 216.89 385.979 216.102 385.979 216.102H387.014C387.014 216.102 387.014 216.8 387.014 217.07C387.014 217.745 387.014 218.442 387.014 219.14C386.712 222.237 387.289 225.356 388.679 228.14C390.434 230.795 393.516 230.75 396.507 230.683H397.632C399.809 230.7 401.981 230.481 404.111 230.03C405.841 229.875 407.448 229.071 408.61 227.78C409.574 226.047 410.07 224.093 410.05 222.11C410.05 220.962 409.802 211.399 409.802 211.309C409.956 210.252 410.435 209.268 411.175 208.497C412.536 207.343 414.3 206.775 416.079 206.918C417.858 207.062 419.508 207.904 420.668 209.262C421.788 210.638 422.322 212.4 422.153 214.167C421.97 215.924 421.106 217.54 419.745 218.667C418.573 219.617 417.116 220.147 415.607 220.171C414.098 220.196 412.625 219.714 411.422 218.802C412.68 219.282 414.035 219.449 415.371 219.288C416.708 219.127 417.985 218.644 419.093 217.88C420.255 216.916 420.99 215.534 421.14 214.032C421.272 212.536 420.811 211.049 419.855 209.891C418.899 208.733 417.527 207.998 416.034 207.844C415.295 207.765 414.547 207.836 413.836 208.053C413.125 208.269 412.464 208.627 411.894 209.104C411.38 209.701 411.031 210.423 410.882 211.197C410.882 211.489 411.197 220.805 411.13 221.975C411.153 224.152 410.593 226.296 409.51 228.185C408.203 229.744 406.338 230.73 404.313 230.93C402.095 231.395 399.831 231.614 397.565 231.583H395.113L395.158 231.763Z" fill="#213344"></path><path d="M393.83 234.395C393.313 233.878 393.312 231.2 393.312 231.2C394.325 231.2 394.325 233.878 394.325 233.878C394.325 234.011 394.274 234.14 394.181 234.236C394.089 234.333 393.963 234.39 393.83 234.395Z" fill="#213344"></path><path d="M419.883 209.397C419.703 208.407 421.255 207.326 422.132 199.091C422.477 197.326 422.197 195.495 421.339 193.914C420.481 192.333 419.099 191.101 417.431 190.428C414.279 189.636 411.015 189.392 407.78 189.708C404.361 183.7 400.604 181.563 397.972 180.707C396.514 180.27 394.98 180.142 393.469 180.332C391.958 180.522 390.504 181.025 389.199 181.81C387.96 182.441 386.863 183.32 385.977 184.392C385.091 185.464 384.434 186.707 384.047 188.043C383.525 190.691 383.973 193.438 385.307 195.783C384.528 196.027 383.854 196.526 383.395 197.201C382.709 198.614 382.517 200.216 382.852 201.751C383.186 203.285 384.027 204.663 385.24 205.661C384.46 205.259 383.77 204.705 383.209 204.031C382.648 203.357 382.228 202.577 381.974 201.737C381.72 200.898 381.637 200.016 381.731 199.144C381.824 198.272 382.092 197.428 382.518 196.661C382.838 196.093 383.36 195.668 383.98 195.468C382.828 193.084 382.503 190.384 383.057 187.795C383.478 186.326 384.194 184.957 385.161 183.773C386.128 182.59 387.326 181.615 388.681 180.91C390.112 180.065 391.701 179.523 393.349 179.318C394.998 179.113 396.671 179.249 398.265 179.717C400.412 180.437 402.386 181.594 404.063 183.116C405.74 184.638 407.082 186.492 408.005 188.56C411.273 188.251 414.57 188.518 417.746 189.348C419.638 190.104 421.209 191.493 422.193 193.277C423.178 195.062 423.514 197.132 423.145 199.136C422.155 208.024 420.378 209.149 420.04 209.284L419.883 209.397Z" fill="#213344"></path><path d="M395.295 218.487C394.98 218.487 391.988 218.487 390.998 217.385C390.867 217.256 390.765 217.102 390.699 216.931C390.633 216.76 390.605 216.577 390.615 216.395C390.759 215.608 391.025 214.849 391.403 214.144C392.626 211.591 393.388 208.841 393.652 206.021C394.121 208.931 393.665 211.914 392.348 214.549C392.017 215.163 391.782 215.823 391.65 216.507C392.235 217.272 394.125 217.52 395.295 217.52C395.924 218.262 395.587 218.487 395.295 218.487Z" fill="#213344"></path><path d="M398.96 225.845C398.121 225.846 397.291 225.661 396.531 225.305C396.013 225.119 395.543 224.821 395.155 224.432C394.766 224.043 394.468 223.572 394.281 223.055C394.191 222.713 394.193 222.354 394.288 222.014C394.383 221.673 394.567 221.365 394.821 221.12C395.198 220.809 395.646 220.598 396.125 220.503C396.604 220.409 397.099 220.435 397.566 220.58C398.915 220.94 399.05 220.872 399.343 220.715C399.635 220.557 399.793 220.467 400.22 219.162C400.345 218.687 400.591 218.253 400.934 217.902C401.277 217.551 401.706 217.295 402.177 217.16C402.519 217.076 402.877 217.086 403.214 217.189C403.55 217.292 403.853 217.484 404.089 217.745C404.408 218.166 404.628 218.654 404.733 219.172C404.838 219.69 404.826 220.225 404.697 220.737C404.532 222.152 403.855 223.457 402.794 224.406C401.733 225.355 400.361 225.883 398.938 225.89L398.96 225.845ZM396.711 221.345C396.308 221.324 395.912 221.461 395.609 221.727C395.481 221.85 395.389 222.004 395.342 222.174C395.294 222.344 395.293 222.524 395.339 222.695C395.492 223.061 395.719 223.391 396.005 223.666C396.292 223.941 396.631 224.154 397.003 224.292C397.687 224.601 398.434 224.746 399.184 224.715C399.934 224.683 400.666 224.477 401.322 224.112C401.971 223.735 402.525 223.215 402.943 222.591C403.36 221.967 403.629 221.256 403.73 220.512C403.833 220.134 403.857 219.739 403.798 219.352C403.74 218.964 403.602 218.593 403.392 218.262C403.274 218.127 403.122 218.026 402.952 217.971C402.782 217.915 402.599 217.907 402.425 217.947C402.127 218.048 401.859 218.223 401.647 218.455C401.435 218.687 401.284 218.969 401.21 219.275C400.715 220.827 400.445 221.097 399.86 221.525C399.275 221.952 398.893 221.907 397.318 221.525C397.106 221.463 396.887 221.433 396.666 221.435L396.711 221.345Z" fill="#213344"></path><path d="M400.873 225.485C400.543 224.824 400.363 224.099 400.345 223.362C400.327 222.624 400.471 221.891 400.767 221.215C401.063 220.539 401.504 219.936 402.059 219.449C402.614 218.962 403.268 218.603 403.977 218.397C404.179 219.432 399.95 221.142 401.345 224.787C401.008 225.462 400.94 225.485 400.873 225.485Z" fill="#213344"></path><path d="M417.452 217.34C417.227 217.34 412.413 214.887 412.413 214.887C412.278 214.077 416.642 209.622 416.642 209.622C417.385 210.342 413.493 214.302 413.493 214.302L417.677 216.35C417.812 217.227 417.632 217.34 417.452 217.34Z" fill="#213344"></path><path d="M405.237 192.836C404.855 192.003 407.352 188.875 407.352 188.875C408.162 189.528 405.642 192.656 405.642 192.656C405.59 192.712 405.528 192.756 405.458 192.787C405.388 192.818 405.313 192.835 405.237 192.836Z" fill="#213344"></path><path d="M397.723 217.655C397.903 216.282 398.33 216.102 399.095 215.854C398.979 216.523 398.608 217.12 398.06 217.52C397.969 217.606 397.848 217.654 397.723 217.655Z" fill="#213344"></path><path d="M404.922 215.832C405.124 214.774 406.677 214.504 407.419 214.369L407.666 207.371C404.93 204.336 403.187 200.536 402.672 196.481C400.112 198.348 397.177 199.638 394.071 200.264C390.964 200.889 387.759 200.834 384.676 200.104C387.857 200.516 391.089 200.287 394.18 199.429C397.271 198.571 400.159 197.102 402.672 195.108C403.527 195.536 403.797 201.994 408.386 206.809C408.521 207.191 408.251 214.819 408.251 214.819C407.171 215.353 406.006 215.695 404.809 215.832H404.922Z" fill="#213344"></path><path d="M407.644 266.887C407.216 266.64 398.173 251.519 398.173 251.519L390.12 262.77C389.197 262.477 389.197 240.043 389.197 240.043L393.404 233.653C394.326 233.81 398.466 249.629 398.466 249.629L413.538 233.428C415.907 235.324 418.112 237.416 420.129 239.683C420.129 240.246 408.116 266.685 408.116 266.685L407.644 266.887ZM398.848 250.664L407.576 265.29L419.139 240.066L413.92 234.463L398.848 250.664ZM390.21 240.133V260.812L397.656 250.484L393.606 235.093L390.21 240.133Z" fill="#213344"></path><path d="M389.873 319.248C388.929 315.49 388.389 282.683 388.389 281.288C388.418 274.6 388.929 267.922 389.918 261.307C390.908 261.555 389.671 268.417 389.401 281.288C389.401 281.581 389.806 306.625 390.188 315.693C393.023 305.612 402.516 272.355 405.935 264.255C402.763 274.133 390.391 318.415 390.188 318.865C390.172 318.95 390.135 319.03 390.08 319.097C390.025 319.164 389.954 319.215 389.873 319.248Z" fill="#213344"></path><path d="M399.119 266.887L393.248 266.347C392.687 263.7 392.326 261.015 392.168 258.314C393.203 258.314 393.765 265.357 393.765 265.357L398.872 265.852L403.371 259.619C404.203 260.227 399.547 266.685 399.547 266.685C399.497 266.75 399.432 266.803 399.357 266.838C399.283 266.873 399.201 266.89 399.119 266.887Z" fill="#213344"></path><path d="M389.175 274.695C388.725 273.953 392.886 265.695 392.886 265.695C393.786 266.145 389.647 274.493 389.647 274.493C389.593 274.565 389.521 274.621 389.438 274.657C389.355 274.692 389.264 274.706 389.175 274.695Z" fill="#213344"></path><path d="M401.684 217.992C400.909 217.912 400.171 217.62 399.552 217.148C398.933 216.675 398.456 216.041 398.174 215.315C397.309 213.475 396.907 211.45 397.005 209.419C397.022 207.394 397.548 205.405 398.534 203.636C398.79 202.892 399.277 202.249 399.923 201.802C400.57 201.354 401.343 201.124 402.129 201.147C402.916 201.17 403.674 201.443 404.294 201.927C404.914 202.412 405.363 203.081 405.575 203.839C406.441 205.679 406.843 207.703 406.745 209.734C406.565 214.392 404.361 217.992 401.684 217.992ZM402.021 202.241C401.449 202.317 400.906 202.539 400.445 202.886C399.984 203.233 399.62 203.693 399.389 204.221C398.501 205.851 398.029 207.675 398.017 209.532C397.921 211.382 398.276 213.227 399.052 214.91C399.749 216.26 400.649 217.002 401.616 217.16C403.731 217.16 405.575 213.852 405.688 209.869C405.784 208.019 405.429 206.174 404.653 204.491C403.956 203.141 403.056 202.376 402.089 202.241H402.021Z" fill="#213344"></path><path d="M388.929 217.992C388.147 217.918 387.401 217.628 386.774 217.155C386.146 216.683 385.662 216.046 385.375 215.314C384.517 213.472 384.123 211.448 384.227 209.419C384.248 207.394 384.773 205.406 385.757 203.636C386.06 202.96 386.536 202.376 387.136 201.942C387.736 201.507 388.44 201.238 389.176 201.161C391.966 201.161 394.081 205.031 393.991 209.577C393.046 205.616 391.336 202.241 389.221 202.174C388.64 202.237 388.086 202.454 387.616 202.802C387.145 203.15 386.776 203.616 386.544 204.154C385.647 205.78 385.175 207.607 385.172 209.464C385.069 211.315 385.425 213.162 386.207 214.842C386.904 216.192 387.804 216.935 388.772 217.092C389.095 217.104 389.417 217.045 389.716 216.921C390.015 216.797 390.284 216.61 390.504 216.372C390.616 217.655 389.806 217.992 388.929 217.992Z" fill="#213344"></path><path d="M393.427 210.792C393.022 209.982 393.427 209.217 394.552 208.969C395.087 208.884 395.634 208.908 396.159 209.04C396.685 209.171 397.179 209.407 397.611 209.734C394.866 209.172 393.967 210.409 393.877 210.567C393.823 210.635 393.755 210.691 393.677 210.73C393.599 210.769 393.514 210.79 393.427 210.792Z" fill="#213344"></path><path d="M338.199 315.49C333.716 315.694 329.324 314.182 325.917 311.26C319.168 305.049 318.943 294.879 318.673 285.901C318.673 283.876 318.673 281.963 318.448 280.14C317.616 268.057 319.528 238.558 319.528 238.266C320.54 238.626 318.628 268.057 319.528 280.073C319.663 281.896 319.708 283.831 319.775 285.856C320.023 294.654 320.293 304.599 326.682 310.607C333.07 316.615 342.429 314.477 346.298 313.465C354.433 311.205 361.804 306.78 367.624 300.662C362.312 307.45 354.912 312.298 346.568 314.455C343.832 315.147 341.021 315.494 338.199 315.49Z" fill="#213344"></path><path d="M353.182 301.877C355.926 290.964 353.362 238.446 353.339 237.906C354.464 240.021 356.938 291.099 353.677 301.517C353.646 301.623 353.581 301.717 353.491 301.782C353.402 301.848 353.293 301.881 353.182 301.877Z" fill="#213344"></path><path d="M401.3 336.934C399.815 330.183 397.363 325.548 394.844 325.683C398.016 324.648 400.738 329.261 401.817 336.259C401.367 336.934 401.322 336.934 401.3 336.934Z" fill="#213344"></path><path d="M369.605 374.668L309.159 362.428C308.979 361.505 358.334 327.348 358.334 327.348C358.717 327.348 370.549 329.598 370.549 329.598C370.347 330.588 358.717 328.248 358.717 328.248L310.553 361.595L369.492 373.543L417.678 340.174L383.754 333.311C383.957 332.298 419.05 339.409 419.05 339.409C419.23 340.331 369.897 374.511 369.897 374.511C369.813 374.585 369.713 374.639 369.605 374.668Z" fill="#213344"></path><path d="M368.209 380.474C368.097 380.474 307.763 368.233 307.763 368.233C307.583 367.31 314.399 362.608 314.399 362.608C314.962 363.44 309.158 367.468 309.158 367.468L368.097 379.416L416.282 346.069L412.031 345.192C412.233 344.202 417.655 345.304 417.655 345.304C417.857 346.227 368.502 380.384 368.502 380.384C368.418 380.447 368.314 380.479 368.209 380.474Z" fill="#213344"></path><path d="M450.657 373.521C449.531 364.951 449.087 356.306 449.33 347.667C450.365 347.824 449.825 360.335 451.175 372.958C450.702 373.521 450.68 373.521 450.657 373.521Z" fill="#213344"></path><path d="M367.083 329.441C366.791 294.924 369.94 276.068 372.55 266.257C369.144 286.97 367.489 307.933 367.601 328.923C367.601 329.061 367.546 329.192 367.449 329.289C367.352 329.386 367.221 329.441 367.083 329.441Z" fill="#213344"></path><path d="M389.691 324.805C389.346 322.793 389.232 320.746 389.354 318.708C390.389 318.708 390.209 324.31 390.209 324.31C390.209 324.377 390.195 324.444 390.169 324.505C390.143 324.567 390.104 324.622 390.056 324.669C390.007 324.715 389.95 324.751 389.888 324.774C389.825 324.798 389.758 324.809 389.691 324.805Z" fill="#213344"></path><path d="M401.997 277.913C401.502 277.53 398.623 266.505 398.623 266.505C399.613 266.257 402.492 277.283 402.492 277.283C402.087 277.913 402.042 277.913 401.997 277.913Z" fill="#213344"></path><path d="M336.984 242.878C328.301 242.878 319.527 241.303 319.527 238.378C319.527 237.208 320.495 235.611 325.084 234.666C322.339 236.286 320.585 237.298 320.585 238.378C320.585 239.863 326.838 241.933 337.006 241.933C347.175 241.933 353.428 239.863 353.428 238.378C353.428 237.591 351.944 236.466 347.782 235.678C352.281 235.476 354.531 236.758 354.531 238.378C354.418 241.303 345.645 242.878 336.984 242.878Z" fill="#213344"></path><path d="M370.864 363.418L328.842 354.912C329.044 353.9 370.954 362.405 370.954 362.405C371.314 363.26 371.179 363.418 370.864 363.418Z" fill="#213344"></path><path d="M382.808 355.722L340.764 347.217C340.966 346.204 382.898 354.71 382.898 354.71C383.258 355.52 383.033 355.722 382.808 355.722Z" fill="#213344"></path><path d="M394.844 347.622L352.822 339.116C353.025 338.104 394.957 346.609 394.957 346.609C395.294 347.442 395.092 347.622 394.844 347.622Z" fill="#213344"></path><path d="M197.692 210.004C186.636 210.048 175.988 205.827 167.963 198.219C159.938 190.611 155.155 180.201 154.607 169.155C154.06 158.109 157.791 147.277 165.024 138.913C172.257 130.548 182.435 125.294 193.442 124.244C204.449 123.194 215.437 126.428 224.12 133.275C232.803 140.121 238.514 150.052 240.064 161.003C241.614 171.953 238.884 183.079 232.442 192.068C226 201.056 216.341 207.214 205.476 209.262C202.909 209.743 200.304 209.992 197.692 210.004ZM197.962 125.13C187.945 125.122 178.256 128.707 170.654 135.232C163.052 141.758 158.04 150.792 156.527 160.697C155.013 170.602 157.099 180.722 162.405 189.22C167.712 197.719 175.887 204.034 185.45 207.02C195.012 210.007 205.328 209.466 214.526 205.497C223.724 201.527 231.195 194.392 235.584 185.385C239.974 176.378 240.991 166.096 238.451 156.404C235.911 146.711 229.982 138.25 221.74 132.555C214.75 127.726 206.457 125.137 197.962 125.13Z" fill="#213344"></path><path d="M197.715 218.735C186.145 218.722 174.913 214.831 165.814 207.683C156.715 200.535 150.273 190.543 147.519 179.303C144.764 168.063 145.856 156.224 150.619 145.677C155.382 135.131 163.541 126.485 173.793 121.122C184.046 115.759 195.8 113.988 207.177 116.091C218.554 118.195 228.898 124.052 236.556 132.727C244.214 141.402 248.744 152.394 249.422 163.947C250.101 175.499 246.889 186.946 240.299 196.458C235.549 203.358 229.188 208.993 221.767 212.876C214.346 216.758 206.089 218.769 197.715 218.735ZM168.965 208.722C178.611 215.392 190.27 218.511 201.957 217.546C213.644 216.581 224.635 211.592 233.056 203.43C241.478 195.268 246.809 184.438 248.142 172.784C249.475 161.131 246.727 149.376 240.366 139.522C234.005 129.668 224.424 122.326 213.257 118.746C202.09 115.166 190.028 115.57 179.125 119.889C168.223 124.208 159.155 132.175 153.467 142.432C147.779 152.689 145.823 164.602 147.932 176.14C150.35 189.359 157.915 201.077 168.965 208.722Z" fill="#213344"></path><path d="M155.916 244.499C152.682 243.88 149.647 242.482 147.075 240.426C145.105 239.083 143.294 237.52 141.676 235.768C140.191 234.103 139.719 232.865 140.259 232.078C141.271 230.615 144.758 232.28 146.895 233.405C142.891 232.37 141.316 232.37 141.091 232.663C140.866 232.955 141.091 233.518 142.441 235.116C144.009 236.803 145.76 238.313 147.66 239.616C152.632 243.058 156.073 243.914 156.433 243.373C156.793 242.833 156.051 241.551 152.969 238.873C155.444 239.661 158.3 242.496 157.266 243.981C157.1 244.17 156.89 244.316 156.655 244.407C156.42 244.497 156.166 244.528 155.916 244.499Z" fill="#213344"></path><path d="M151.846 240.763C150.459 240.511 149.154 239.924 148.044 239.053C147.414 238.603 144.355 236.376 145.187 235.206C146.272 236.273 147.421 237.273 148.629 238.198C149.582 238.947 150.688 239.477 151.869 239.751C152.004 240.763 151.914 240.763 151.846 240.763Z" fill="#213344"></path><path d="M145.592 235.948C145.187 235.138 165.118 206.516 165.118 206.516C165.973 207.102 146.019 235.768 146.019 235.768C145.966 235.828 145.9 235.875 145.826 235.906C145.752 235.937 145.672 235.952 145.592 235.948Z" fill="#213344"></path><path d="M152.207 240.561C151.802 239.751 171.778 211.084 171.778 211.084C172.611 211.669 152.635 240.336 152.635 240.336C152.587 240.405 152.523 240.462 152.449 240.501C152.374 240.541 152.291 240.561 152.207 240.561Z" fill="#213344"></path><path d="M106.988 281.603C106.561 280.793 140.26 232.1 140.26 232.1C141.092 232.663 107.393 281.378 107.393 281.378C107.349 281.446 107.289 281.502 107.219 281.541C107.148 281.58 107.069 281.601 106.988 281.603Z" fill="#213344"></path><path d="M145.166 261.014C144.738 260.227 156.414 243.328 156.414 243.328C157.246 243.891 145.571 260.789 145.571 260.789C145.525 260.856 145.465 260.911 145.395 260.95C145.325 260.989 145.246 261.011 145.166 261.014Z" fill="#213344"></path><path d="M121.476 295.351C121.049 294.541 131.194 279.893 131.194 279.893C132.026 280.478 121.903 295.126 121.903 295.126C121.852 295.192 121.788 295.246 121.714 295.285C121.64 295.324 121.559 295.347 121.476 295.351Z" fill="#213344"></path><path d="M224.553 117.974C232.053 99.3396 244.97 83.3847 261.633 72.1728C278.296 60.9608 297.94 55.0075 318.022 55.083C333.311 55.0609 348.407 58.4889 362.187 65.1119C375.967 71.7349 388.076 81.3821 397.612 93.3351C387.82 81.7531 375.634 72.4323 361.894 66.015C348.154 59.5977 333.186 56.2365 318.022 56.163C298.183 56.1232 278.772 61.9359 262.219 72.8742C245.666 83.8124 232.705 99.3903 224.958 117.659C224.922 117.741 224.866 117.813 224.795 117.868C224.724 117.923 224.641 117.959 224.553 117.974Z" fill="#213344"></path><path d="M420.075 185.294C420.936 179.821 421.875 174.845 422.477 169.862C422.735 174.953 422.1 180.05 420.601 184.923C420.572 185.037 420.503 185.138 420.407 185.206C420.31 185.274 420.193 185.305 420.075 185.294Z" fill="#213344"></path><path d="M117.809 296.229C114.052 296.229 110.25 293.979 106.561 289.478C103.299 285.541 106.561 280.905 106.561 280.86C107.281 281.626 104.626 285.496 107.393 288.826C111.893 294.429 116.684 296.319 121.228 294.406C120.898 295.01 120.398 295.505 119.791 295.828C119.183 296.152 118.494 296.291 117.809 296.229Z" fill="#213344"></path><path d="M86.8112 296.566C86.5862 295.576 90.9054 292.921 93.5599 286.891C99.1388 274.02 109.127 277.62 109.307 277.665C108.565 278.498 99.7462 275.415 94.5722 287.296C93.0518 291.012 90.4794 294.203 87.1711 296.476C87.1203 296.515 87.0622 296.543 87.0004 296.558C86.9385 296.574 86.8741 296.576 86.8112 296.566Z" fill="#213344"></path><path d="M116.391 303.767C112.983 303.648 109.709 302.406 107.078 300.234C112.477 303.137 118.034 303.812 121.498 301.112C124.962 298.412 122.285 293.259 122.263 293.191C123.208 292.809 126.154 298.794 122.128 301.922C120.476 303.162 118.456 303.812 116.391 303.767Z" fill="#213344"></path><path d="M114.548 308.56C110.761 308.244 107.112 306.991 103.93 304.914C104.56 304.082 110.836 308.177 115.83 307.435C121.206 306.625 120.936 302.439 120.914 302.259C121.949 302.259 122.286 307.502 115.987 308.447C115.511 308.519 115.03 308.557 114.548 308.56Z" fill="#213344"></path><path d="M111.13 311.822C108.899 311.692 106.756 310.91 104.966 309.572C102.716 307.885 98.892 310.112 97.3848 311.17C98.892 308.92 102.806 306.67 105.573 308.74C107.118 309.926 108.966 310.652 110.905 310.832C112.029 310.891 113.149 310.647 114.146 310.124C115.143 309.602 115.982 308.82 116.574 307.862C117.383 308.47 115.471 311.822 111.13 311.822Z" fill="#213344"></path><path d="M120.735 316.052C120.106 312.808 119.64 309.533 119.34 306.242C120.512 309.197 121.159 312.334 121.252 315.512C120.757 316.052 120.757 316.052 120.735 316.052Z" fill="#213344"></path><path d="M113.378 271.725C113.33 266.999 112.932 262.283 112.186 257.617C113.22 257.617 114.053 261.577 113.873 271.23C113.873 271.361 113.821 271.487 113.728 271.58C113.635 271.673 113.509 271.725 113.378 271.725Z" fill="#213344"></path><path d="M206.96 287.318C206.96 287.318 187.614 288.309 179.201 292.741C170.787 297.174 160.844 299.874 152.611 320.013C144.377 340.151 143.478 343.842 142.105 350.704C140.733 357.567 138.394 370.663 139.586 379.394C140.778 388.124 143.77 398.295 154.433 402.547C157.387 403.706 160.529 404.308 163.701 404.325C168.515 404.325 273.638 404.325 273.638 404.325C276.269 403.554 278.816 402.521 281.241 401.242C285.685 398.039 288.926 393.435 290.442 388.169C292.035 381.613 292.544 374.841 291.949 368.12C291.38 361.904 290.395 355.732 289.002 349.647C286.622 340.664 283.738 331.822 280.364 323.163C277.844 317.56 273.615 308.222 269.116 303.429C263.671 298.091 257.164 293.959 250.017 291.301C242.644 288.888 234.961 287.546 227.206 287.318H206.96Z" fill="#CDCDFA"></path><path d="M268.601 324H164.896C160.535 324 157 327.536 157 331.898V396.252C157 400.613 160.535 404.149 164.896 404.149H268.601C272.962 404.149 276.497 400.613 276.497 396.252V331.898C276.497 327.536 272.962 324 268.601 324Z" fill="#213344"></path><path d="M205.993 291.234C205.993 291.234 206.96 287.341 207.32 284.731C207.68 282.121 208.108 276.068 208.108 276.068C206.376 274.883 204.941 273.314 203.915 271.484C202.889 269.653 202.299 267.61 202.191 265.515C201.719 264.952 194.16 267.765 192.968 260.159C191.776 252.554 200.594 253.521 201.584 254.242V250.101C204.98 249.034 208.147 247.34 210.92 245.106C213.386 242.817 215.454 240.132 217.038 237.163C218.64 240.585 221.067 243.554 224.102 245.804C226.801 247.49 229.647 248.928 232.605 250.101V254.264C232.605 254.264 240.569 251.586 241.311 259.259C241.311 259.259 241.671 264.84 237.554 265.2C235.808 265.541 234.006 265.471 232.29 264.997C231.521 269.311 229.374 273.258 226.172 276.248C226.378 280.419 226.836 284.575 227.544 288.691C227.544 288.691 229.029 291.481 228.196 293.191C227.06 295.106 225.392 296.648 223.395 297.631C221.398 298.614 219.158 298.995 216.948 298.726C215.081 298.74 213.231 298.369 211.513 297.637C209.795 296.906 208.245 295.829 206.96 294.474C206.45 293.459 206.123 292.362 205.993 291.234Z" fill="white"></path><path d="M216.436 372.876C221.095 372.876 224.872 369.098 224.872 364.438C224.872 359.778 221.095 356 216.436 356C211.777 356 208 359.778 208 364.438C208 369.098 211.777 372.876 216.436 372.876Z" fill="white"></path><path d="M198.93 253.027C198.93 253.027 197.153 243.554 198.3 238.558C199.447 233.563 202.686 227.308 216.746 226.903C216.746 226.903 225.88 227.128 230.244 230.413C232.292 231.886 233.9 233.891 234.895 236.21C235.89 238.529 236.234 241.076 235.89 243.576C235.44 249.224 235.013 253.589 235.013 253.589L232.763 254.197V250.056C232.763 250.056 221.515 247.154 217.196 237.118C217.196 237.118 212.45 248.166 201.742 250.056L201.404 254.062L198.93 253.027Z" fill="#213344"></path><path d="M199.897 265.875C199.897 265.875 201.809 276.338 197.647 279.578C193.485 282.818 187.209 286.598 187.119 289.659C187.119 289.659 194.025 288.466 197.85 288.061C201.674 287.656 206.848 287.319 206.848 287.319L208.243 276.27C206.437 274.969 204.939 273.287 203.855 271.343C202.77 269.399 202.126 267.24 201.966 265.02L199.897 265.875Z" fill="#213344"></path><path d="M234.294 265.515C233.57 268.707 233.494 272.013 234.069 275.235C235.2 278.644 237.623 281.472 240.818 283.111C243.694 284.548 245.898 287.05 246.959 290.086C242.197 289.045 237.384 288.256 232.539 287.724L227.253 287.364L226.15 276.113C227.867 274.739 229.292 273.036 230.343 271.104C231.393 269.172 232.048 267.05 232.269 264.862L234.294 265.515Z" fill="#213344"></path><path d="M230.198 230.413C228.27 229.134 226.105 228.254 223.832 227.825C225.722 228.717 227.335 230.104 228.499 231.84C229.664 233.575 230.336 235.593 230.446 237.681C230.581 244.724 217.578 237.118 217.578 237.118C217.578 237.118 217.578 237.681 217.781 238.626C221.102 244.171 226.398 248.255 232.605 250.056V254.264L234.855 253.657C234.855 253.657 235.282 249.291 235.732 243.644C236.101 241.143 235.781 238.59 234.805 236.258C233.83 233.926 232.237 231.905 230.198 230.413Z" fill="white"></path><path d="M247.003 290.041C245.942 287.005 243.739 284.502 240.862 283.066C237.667 281.426 235.244 278.598 234.113 275.19C233.538 271.968 233.615 268.662 234.338 265.47L232.358 264.93C232.069 267.308 231.304 269.604 230.109 271.68C229.906 273.075 229.299 278.813 232.358 281.986C233.734 283.651 234.524 285.722 234.608 287.881C239.849 288.488 247.003 290.041 247.003 290.041Z" fill="white"></path><path d="M207.321 266.662C203.384 266.662 200.189 262.635 200.189 257.662C200.189 252.689 203.384 248.661 207.321 248.661C211.257 248.661 214.452 252.689 214.452 257.662C214.46 258.487 214.369 259.311 214.182 260.115C213.84 259.813 213.579 259.43 213.421 259.002C213.264 258.574 213.216 258.113 213.282 257.662C213.282 253.364 210.605 249.854 207.321 249.854C204.036 249.854 201.337 253.364 201.337 257.662C201.337 261.96 204.036 265.515 207.321 265.515C208.142 265.509 208.95 265.301 209.672 264.909C210.394 264.516 211.008 263.951 211.46 263.265C211.415 263.761 211.272 264.244 211.038 264.684C210.805 265.125 210.487 265.514 210.102 265.831C209.716 266.147 209.272 266.383 208.795 266.526C208.317 266.669 207.816 266.715 207.321 266.662Z" fill="#213344"></path><path d="M226.778 266.662C222.841 266.662 219.646 262.635 219.646 257.662C219.646 252.689 222.841 248.661 226.778 248.661C230.714 248.661 233.909 252.689 233.909 257.662C233.909 262.635 230.692 266.662 226.778 266.662ZM226.778 249.876C223.471 249.876 220.794 253.387 220.794 257.684C220.794 261.982 223.471 265.515 226.778 265.515C230.084 265.515 232.739 262.005 232.739 257.684C232.739 253.364 230.062 249.876 226.778 249.876Z" fill="#213344"></path><path d="M219.984 258.269C219.1 257.344 217.889 256.803 216.61 256.762C215.795 256.862 215.044 257.253 214.495 257.864C213.64 257.099 214.72 255.749 216.52 255.614C217.247 255.598 217.968 255.738 218.636 256.025C219.304 256.312 219.902 256.74 220.389 257.279C220.299 258.202 220.142 258.269 219.984 258.269Z" fill="#213344"></path><path d="M268.62 405.023H164.914C162.669 405.023 160.515 404.132 158.926 402.546C157.336 400.96 156.44 398.808 156.434 396.562V332.096C156.44 329.85 157.336 327.698 158.926 326.112C160.515 324.526 162.669 323.635 164.914 323.635H268.62C269.73 323.635 270.83 323.854 271.856 324.28C272.883 324.705 273.815 325.328 274.6 326.113C275.386 326.899 276.009 327.832 276.434 328.858C276.859 329.885 277.078 330.985 277.078 332.096V396.472C277.09 397.591 276.88 398.7 276.46 399.737C276.04 400.774 275.419 401.718 274.633 402.513C273.846 403.308 272.909 403.939 271.877 404.37C270.845 404.801 269.738 405.023 268.62 405.023ZM164.914 324.873C162.973 324.873 161.111 325.643 159.737 327.014C158.362 328.384 157.587 330.244 157.581 332.186V396.472C157.587 398.414 158.362 400.274 159.737 401.644C161.111 403.015 162.973 403.785 164.914 403.785H268.62C270.557 403.779 272.413 403.007 273.783 401.636C275.153 400.266 275.925 398.41 275.931 396.472V332.096C275.925 330.158 275.153 328.302 273.783 326.932C272.413 325.561 270.557 324.789 268.62 324.783L164.914 324.873Z" fill="#213344"></path><path d="M268.958 405.023C279.058 403.875 285.875 399.262 289.204 390.194C298.697 364.588 278.271 312.092 267.811 303.092C254.313 291.481 243.538 288.894 227.318 287.994C243.965 287.746 254.898 290.379 268.665 302.214C279.306 311.35 300.024 364.633 290.396 390.599C286.774 400.05 279.576 405.023 268.958 405.023Z" fill="#213344"></path><path d="M165.254 405.022C153.152 405.022 145.008 399.78 141.252 389.429C131.601 363.395 152.364 311.575 163.297 302.192C176.795 290.671 189.932 287.768 206.961 286.823C190.225 288.916 177.177 291.751 164.04 303.069C153.287 312.317 132.816 363.373 142.331 389.024C145.976 398.88 153.579 403.875 165.254 403.875C165.817 404.685 165.569 405.022 165.254 405.022Z" fill="#213344"></path><path d="M198.951 266.145C198.019 266.13 197.1 265.923 196.252 265.536C195.404 265.148 194.646 264.59 194.024 263.895C193.451 263.251 193.013 262.5 192.735 261.684C192.456 260.869 192.344 260.006 192.405 259.147C192.456 258.284 192.681 257.44 193.068 256.666C193.455 255.892 193.994 255.205 194.654 254.647C195.296 254.071 196.047 253.629 196.862 253.347C197.677 253.064 198.54 252.948 199.401 253.004C200.095 253.049 200.778 253.201 201.425 253.454C201.166 253.74 200.837 253.955 200.471 254.077C200.104 254.199 199.712 254.225 199.333 254.152C197.902 254.068 196.495 254.554 195.419 255.502C194.606 256.206 194.023 257.137 193.742 258.176C193.462 259.214 193.499 260.313 193.847 261.33C194.195 262.348 194.838 263.239 195.696 263.888C196.553 264.537 197.585 264.916 198.658 264.975C199.638 265.031 200.615 264.83 201.493 264.39C201.373 264.951 201.043 265.446 200.571 265.773C200.098 266.099 199.518 266.232 198.951 266.145Z" fill="#213344"></path><path d="M197.626 263.265C197.289 262.229 200.55 259.709 200.55 259.709C201.27 260.609 197.986 263.13 197.986 263.13C197.886 263.215 197.758 263.263 197.626 263.265Z" fill="#213344"></path><path d="M200.616 259.282C200.279 259.282 196.859 256.649 196.859 256.649C197.557 255.727 200.954 258.247 200.954 258.247C200.976 259.192 200.796 259.282 200.616 259.282Z" fill="#213344"></path><path d="M235.349 266.145C234.292 266.147 233.25 265.892 232.312 265.402C233.396 265.031 234.545 264.886 235.687 264.975C237.105 264.863 238.422 264.198 239.354 263.123C240.287 262.049 240.76 260.651 240.671 259.231C240.583 257.811 239.94 256.483 238.881 255.533C237.822 254.582 236.433 254.086 235.012 254.152C234.399 254.19 233.798 254.334 233.235 254.579C233.46 253.229 234.18 253.049 234.945 253.004C235.805 252.948 236.668 253.064 237.483 253.347C238.298 253.629 239.049 254.071 239.691 254.647C240.351 255.205 240.891 255.892 241.277 256.666C241.664 257.44 241.89 258.284 241.941 259.147C242.001 260.006 241.889 260.869 241.611 261.684C241.332 262.5 240.894 263.251 240.321 263.895C239.762 264.555 239.075 265.094 238.302 265.481C237.529 265.868 236.685 266.094 235.822 266.145H235.349Z" fill="#213344"></path><path d="M236.677 263.265C236.317 263.13 232.965 260.542 232.965 260.542C233.662 259.642 237.014 262.23 237.014 262.23C237.014 263.107 236.834 263.265 236.677 263.265Z" fill="#213344"></path><path d="M233.461 259.439C233.101 258.404 236.745 255.727 236.745 255.727C237.442 256.649 233.798 259.327 233.798 259.327C233.702 259.403 233.583 259.443 233.461 259.439Z" fill="#213344"></path><path d="M217.15 279.015C213.455 279.138 209.823 278.03 206.825 275.865C203.99 273.273 202.172 269.755 201.696 265.942C201.508 264.848 201.388 263.743 201.336 262.635C202.144 263.479 202.664 264.559 202.821 265.717C203.238 269.259 204.915 272.534 207.545 274.943C210.331 276.962 213.712 277.991 217.15 277.868C217.713 278.79 217.465 279.015 217.15 279.015Z" fill="#213344"></path><path d="M201.696 254.107C201.074 252.845 200.832 251.43 200.998 250.034C201.693 251.07 202.125 252.259 202.258 253.499C202.084 253.714 201.896 253.917 201.696 254.107Z" fill="#213344"></path><path d="M201.584 250.619C208.092 248.054 213.416 243.162 216.521 236.893C217.398 237.748 213.192 247.446 201.741 250.619H201.584Z" fill="#213344"></path><path d="M217.039 279.016C219.761 277.868 223.608 277.373 226.645 274.943C229.283 272.54 230.961 269.263 231.369 265.717C231.572 264.519 231.7 263.309 231.751 262.095C232.496 263.229 232.762 264.612 232.494 265.942C232.028 269.758 230.207 273.279 227.365 275.865C224.367 278.03 220.735 279.138 217.039 279.016Z" fill="#213344"></path><path d="M232.606 254.264C232.221 252.933 232.024 251.555 232.021 250.169C233.214 250.979 233.214 252.239 233.191 253.702C233.185 253.853 233.121 253.996 233.012 254.101C232.903 254.206 232.758 254.264 232.606 254.264Z" fill="#213344"></path><path d="M232.606 250.619C229.138 249.671 225.911 247.997 223.139 245.708C220.366 243.42 218.11 240.569 216.521 237.343C217.624 236.983 221.853 246.501 232.763 249.494C233.101 250.461 232.853 250.619 232.606 250.619Z" fill="#213344"></path><path d="M217.262 299.109C215.189 299.214 213.12 298.823 211.227 297.97C209.334 297.118 207.67 295.826 206.374 294.204C205.896 293.569 205.587 292.823 205.477 292.035C205.367 291.248 205.459 290.446 205.745 289.704C207.207 286.238 207.522 276.203 207.522 276.068C208.669 276.518 208.354 286.486 206.802 290.154C206.593 290.722 206.533 291.335 206.627 291.934C206.722 292.533 206.968 293.097 207.342 293.574C208.537 295.031 210.057 296.187 211.78 296.949C213.503 297.711 215.381 298.058 217.262 297.962C221.919 297.962 225.473 296.612 227.048 294.249C227.462 293.659 227.72 292.975 227.799 292.259C227.877 291.543 227.774 290.819 227.498 290.154C225.946 286.486 225.631 276.518 225.631 276.09C226.778 276.09 227.093 286.238 228.555 289.591C228.907 290.431 229.04 291.346 228.942 292.251C228.843 293.157 228.517 294.022 227.993 294.766C226.958 296.454 224.169 299.109 217.262 299.109Z" fill="#213344"></path><path d="M234.857 253.589C234.775 253.59 234.693 253.573 234.618 253.54C234.544 253.506 234.477 253.456 234.423 253.394C234.37 253.332 234.331 253.259 234.308 253.18C234.286 253.101 234.281 253.018 234.294 252.937C235.622 244.454 235.622 240.133 234.294 236.421C232.045 229.895 223.856 227.42 217.018 227.42C224.261 226.295 232.765 228.883 235.374 235.971C236.746 239.886 236.769 244.364 235.374 253.049C235.364 253.185 235.307 253.314 235.213 253.413C235.118 253.511 234.992 253.574 234.857 253.589Z" fill="#213344"></path><path d="M198.93 253.589C196.995 244.431 197.018 239.953 198.39 236.038C200.887 228.95 209.503 226.363 216.746 226.34C209.998 227.51 201.764 229.895 199.47 236.421C198.165 240.133 198.165 244.454 199.47 252.937C198.997 253.589 198.952 253.589 198.93 253.589Z" fill="#213344"></path><path d="M208.646 249.876C209.087 249.225 209.723 248.729 210.463 248.463C211.203 248.196 212.008 248.171 212.763 248.391C211.516 249.016 210.203 249.499 208.849 249.831C208.788 249.867 208.717 249.883 208.646 249.876Z" fill="#213344"></path><path d="M226.464 249.876C225.206 249.348 223.815 249.223 222.482 249.516C222.99 248.926 223.687 248.53 224.453 248.395C225.22 248.259 226.01 248.393 226.689 248.774C226.892 249.764 226.667 249.876 226.464 249.876Z" fill="#213344"></path><path d="M217.938 271.05C217.091 271.058 216.248 270.929 215.441 270.668C215.824 269.587 218.613 270.465 220.413 269.25C220.924 268.843 221.333 268.321 221.607 267.727C221.88 267.133 222.011 266.483 221.988 265.83C222.216 266.177 222.373 266.567 222.449 266.976C222.526 267.384 222.52 267.804 222.432 268.211C222.344 268.617 222.176 269.002 221.937 269.343C221.699 269.684 221.395 269.973 221.043 270.195C220.116 270.783 219.035 271.08 217.938 271.05Z" fill="#213344"></path><path d="M213.102 265.515C212.469 265.107 211.926 264.572 211.508 263.945C211.09 263.318 210.806 262.611 210.673 261.87C210.665 261.561 210.721 261.253 210.837 260.967C210.953 260.68 211.127 260.421 211.347 260.204C211.573 259.95 211.85 259.746 212.16 259.606C212.471 259.467 212.807 259.395 213.147 259.394C213.852 259.422 214.533 259.656 215.104 260.069C215.464 256.897 215.712 252.442 215.104 251.474C217.354 252.599 216.364 259.799 216.184 261.24C214.924 261.24 213.934 260.565 213.192 260.565C213.004 260.564 212.819 260.604 212.648 260.681C212.477 260.759 212.325 260.873 212.202 261.015C212.116 261.664 212.192 262.324 212.424 262.937C212.655 263.549 213.035 264.095 213.53 264.525C213.417 265.515 213.26 265.515 213.102 265.515Z" fill="#213344"></path><path d="M217.196 324.783C216.611 324.22 216.611 304.082 216.611 304.082C217.781 304.082 217.781 324.333 217.781 324.333C217.75 324.464 217.675 324.58 217.569 324.662C217.462 324.744 217.331 324.787 217.196 324.783Z" fill="#213344"></path><path d="M187.074 290.626C186.624 290.626 186.444 290.199 186.534 289.884C187.056 288.29 187.895 286.818 189.001 285.557C190.106 284.297 191.456 283.273 192.968 282.548C194.975 281.417 196.728 279.885 198.119 278.048C201.291 273.413 199.289 265.717 199.267 265.627C200.459 265.627 202.551 273.615 199.064 278.7C197.592 280.64 195.729 282.249 193.598 283.426C192.193 284.079 190.938 285.017 189.912 286.178C188.887 287.34 188.112 288.701 187.637 290.176C187.606 290.303 187.535 290.416 187.433 290.498C187.331 290.579 187.205 290.625 187.074 290.626Z" fill="#213344"></path><path d="M247.004 290.626C245.785 287.537 243.47 285.005 240.503 283.516C238.371 282.339 236.509 280.73 235.036 278.791C231.549 273.705 233.641 265.672 233.754 265.29C234.834 265.672 232.787 273.458 236.003 278.093C237.387 279.929 239.132 281.461 241.132 282.593C242.65 283.314 244.005 284.335 245.115 285.596C246.225 286.858 247.067 288.332 247.589 289.929C247.116 290.604 247.049 290.626 247.004 290.626Z" fill="#213344"></path><path d="M462.939 14.1308L428.745 2.00263C425.92 1.00399 422.965 0.420385 419.972 0.270035C418.607 0.0905142 417.232 0.000317354 415.855 2.03346e-05C412.284 -0.00405616 408.738 0.604809 405.372 1.80012L371.629 13.7258C365.743 15.8001 360.641 19.6402 357.017 24.7222C353.394 29.8042 351.426 35.8806 351.383 42.1224V46.1501C351.383 48.4002 353.048 99.1855 353.048 99.1855C353.085 107.6 355.104 115.887 358.941 123.374C367.467 144.818 388.028 155.979 403.033 164.147C403.796 164.572 404.603 164.911 405.44 165.159C408.811 166.637 412.409 167.527 416.08 167.792H418.6C419.275 167.792 419.95 167.792 420.49 167.792C424.781 167.458 428.959 166.256 432.772 164.259C443.415 158.82 453.256 151.937 462.017 143.805C476.256 130.305 483.5 115.161 483.5 99.1405V42.7524C483.463 36.4379 481.465 30.291 477.781 25.163C474.097 20.0349 468.91 16.1796 462.939 14.1308Z" fill="white"></path><path d="M457.696 24.7514L423.503 12.6232C419.134 11.0898 414.374 11.0898 410.006 12.6232L375.677 24.7514C371.921 26.0395 368.658 28.464 366.341 31.6892C364.023 34.9144 362.766 38.7806 362.742 42.7524V99.1855C362.742 112.011 368.794 124.297 380.739 135.728C388.695 143.119 397.636 149.374 407.306 154.314C409.775 155.61 412.487 156.377 415.27 156.564H417.047H418.059C420.849 156.38 423.569 155.613 426.045 154.314C435.716 149.374 444.656 143.119 452.612 135.728C464.558 124.297 470.609 112.011 470.609 99.1855V42.7524C470.587 38.7833 469.333 34.9191 467.02 31.6943C464.706 28.4694 461.448 26.0432 457.696 24.7514Z" fill="#A3EBCD"></path><path d="M451.849 36.272L423.167 26.124C419.479 24.8034 415.448 24.8034 411.761 26.124L383.079 36.272C379.946 37.3588 377.225 39.3849 375.284 42.0745C373.344 44.7641 372.28 47.9865 372.236 51.3029V98.6905C372.236 109.446 377.32 119.752 387.331 129.337C394.002 135.535 401.496 140.782 409.602 144.931C411.696 146.018 413.995 146.655 416.35 146.798H417.835H418.69C421.045 146.655 423.344 146.018 425.439 144.931C433.544 140.782 441.038 135.535 447.709 129.337C457.72 119.752 462.804 109.446 462.804 98.6905V51.3029C462.752 47.9728 461.671 44.7404 459.71 42.0492C457.748 39.358 455.002 37.34 451.849 36.272Z" fill="white"></path><path d="M391.223 70.9464C391.223 70.9464 401.323 83.7497 405.688 83.7047C410.052 83.6597 415.203 79.4294 423.279 71.644C428.191 66.8506 432.705 61.6658 436.777 56.1406L446.427 58.7958C441.295 67.7286 435.513 76.2721 429.128 84.3572C420.355 94.9553 411.716 102.808 405.755 102.651C399.794 102.493 393.495 99.2755 388.456 89.7125C385.564 84.4304 383.465 78.7519 382.225 72.8591C385.162 71.9582 388.173 71.3182 391.223 70.9464Z" fill="#FFCE26"></path><path d="M407.666 100.581C405.79 100.551 403.942 100.121 402.244 99.3205C398.821 97.6684 395.873 95.1757 393.674 92.0751C390.415 87.6726 387.941 82.7397 386.362 77.4943C385.868 75.9867 385.44 74.4791 385.013 72.994C384.81 72.2515 384.608 71.5315 384.383 70.7439C386.501 69.8382 388.681 69.0863 390.907 68.4938L392.886 67.9538C393.068 67.8869 393.268 67.8838 393.451 67.9451C393.635 68.0065 393.793 68.1285 393.899 68.2913C397.211 72.6446 401.084 76.541 405.416 79.8794C405.988 80.3575 406.67 80.6859 407.4 80.8352C408.131 80.9844 408.887 80.9498 409.6 80.7345C411.205 80.311 412.726 79.6187 414.1 78.6869C417.524 76.4095 420.698 73.7773 423.57 70.8339C428.872 65.5446 433.831 59.923 438.417 54.003C438.545 53.7841 438.747 53.6183 438.986 53.5357C439.226 53.4531 439.487 53.4592 439.722 53.553L446.178 55.3531L448.428 55.9831C443.411 66.2021 437.196 75.7875 429.914 84.5372C426.407 88.9718 422.365 92.9548 417.879 96.3953C416.383 97.4679 414.812 98.4305 413.177 99.2755C411.473 100.15 409.581 100.597 407.666 100.581ZM385.013 70.8339L385.553 72.724C385.98 74.2991 386.407 75.7842 386.902 77.2243C388.472 82.3898 390.906 87.2516 394.101 91.6026C396.274 94.6241 399.176 97.0468 402.537 98.6455C404.144 99.4495 405.92 99.8567 407.716 99.8333C409.512 99.8098 411.277 99.3562 412.862 98.5105C414.47 97.6858 416.012 96.7379 417.474 95.6753C421.927 92.2786 425.934 88.3321 429.397 83.9297C436.431 75.3269 442.758 66.169 448.316 56.5456L446.066 55.8481C443.816 55.2631 441.747 54.678 439.61 54.048C439.385 54.048 439.317 53.868 439.025 54.2505C434.39 60.2417 429.379 65.9311 424.02 71.284C421.108 74.2708 417.889 76.9409 414.415 79.2494C412.991 80.2554 411.41 81.016 409.735 81.4995C408.916 81.7348 408.052 81.7676 407.218 81.5952C406.383 81.4227 405.603 81.0501 404.944 80.5095C400.567 77.1317 396.657 73.1898 393.314 68.7863C392.551 68.8657 391.798 69.0163 391.064 69.2363L385.013 70.8339Z" fill="#213344"></path><path d="M441.952 130.687C441.569 130.44 441.592 130.215 441.727 130.102C453.402 119.819 459.296 108.951 459.296 97.8579V42.1223C459.263 39.9459 458.561 37.8324 457.285 36.0691C456.009 34.3058 454.221 32.9782 452.165 32.2667L418.421 20.2511C415.859 19.3505 413.066 19.3505 410.503 20.2511L376.759 32.1992C374.682 32.8918 372.87 34.2113 371.573 35.9762C370.275 37.7411 369.557 39.8647 369.516 42.0548V84.8072C369.516 84.9026 369.478 84.9942 369.41 85.0617C369.343 85.1292 369.251 85.1672 369.156 85.1672C369.064 85.1614 368.978 85.121 368.916 85.0541C368.853 84.9872 368.818 84.8989 368.818 84.8072V42.0548C368.854 39.7187 369.617 37.4518 370.999 35.5688C372.382 33.6858 374.317 32.28 376.534 31.5467L410.278 19.5985C412.987 18.6537 415.937 18.6537 418.646 19.5985L452.39 31.5467C454.608 32.28 456.542 33.6858 457.925 35.5688C459.307 37.4518 460.07 39.7187 460.106 42.0548V97.8579C460.106 109.109 454.099 120.179 442.289 130.62C442.241 130.654 442.186 130.677 442.128 130.689C442.07 130.701 442.01 130.7 441.952 130.687Z" fill="#213344"></path><path d="M449.666 134.062C449.306 133.815 449.306 133.612 449.441 133.477C461.094 122.227 467.01 110.346 467.01 97.8578V42.1222C466.965 38.3345 465.749 34.6534 463.53 31.5838C461.311 28.5142 458.197 26.2062 454.615 24.9763L420.872 13.0506C416.653 11.5432 412.043 11.5432 407.824 13.0506L374.081 24.9763C370.503 26.21 367.394 28.5196 365.179 31.5889C362.964 34.6582 361.752 38.3372 361.708 42.1222V46.15C361.708 46.2395 361.673 46.3253 361.609 46.3886C361.546 46.4519 361.46 46.4875 361.371 46.4875C361.281 46.4875 361.195 46.4519 361.132 46.3886C361.069 46.3253 361.033 46.2395 361.033 46.15V42.1222C361.078 38.1987 362.334 34.3849 364.63 31.2029C366.925 28.0209 370.147 25.6261 373.856 24.3463L407.599 12.3981C411.968 10.8683 416.728 10.8683 421.097 12.3981L454.84 24.3463C458.548 25.6261 461.771 28.0209 464.066 31.2029C466.361 34.3849 467.618 38.1987 467.663 42.1222V97.8578C467.663 110.526 461.679 122.609 449.891 133.86C449.872 133.909 449.842 133.953 449.803 133.988C449.764 134.023 449.717 134.048 449.666 134.062Z" fill="#213344"></path><rect x="378" y="373" width="87" height="1" rx="0.5" fill="#213344"></rect></g><rect x="188.279" y="403.911" width="159.837" height="1.08871" rx="0.544355" fill="#213344"></rect><path d="M499.69 283.392C535.573 252.485 583.184 174.528 486.562 109.96" stroke="#7040E0" stroke-width="1.5" stroke-linecap="round" stroke-linejoin="round" stroke-dasharray="6.53 6.53"></path><g filter="url(#filter0_d_3388_6134)"><ellipse rx="16.4284" ry="15.5568" transform="matrix(0.999287 -0.0377669 0.0421247 0.999112 103.009 93.4618)" fill="white"></ellipse><path d="M118.882 92.862C119.23 101.118 112.436 108.129 103.642 108.461C94.8473 108.793 87.4849 102.318 87.1368 94.0617C86.7887 85.8055 93.5825 78.7951 102.377 78.4627C111.172 78.1303 118.534 84.6057 118.882 92.862Z" stroke="#7040E0" stroke-width="1.08871"></path></g><g filter="url(#filter1_d_3388_6134)"><ellipse rx="16.4284" ry="15.5568" transform="matrix(0.999287 -0.0377669 0.0421247 0.999112 502.072 284.163)" fill="white"></ellipse><path d="M517.945 283.564C518.293 291.82 511.499 298.83 502.704 299.163C493.91 299.495 486.547 293.02 486.199 284.763C485.851 276.507 492.645 269.497 501.44 269.164C510.234 268.832 517.597 275.307 517.945 283.564Z" stroke="#7040E0" stroke-width="1.08871"></path></g><g clip-path="url(#clip3_3388_6134)"><path d="M519.784 187.802C519.784 193.609 518.064 199.284 514.841 204.112C511.618 208.939 507.037 212.702 501.678 214.924C496.319 217.146 490.421 217.727 484.732 216.594C479.042 215.462 473.816 212.666 469.714 208.56C465.612 204.455 462.818 199.224 461.687 193.53C460.555 187.835 461.136 181.933 463.356 176.568C465.576 171.204 469.335 166.62 474.158 163.394C478.982 160.168 484.653 158.447 490.454 158.447C498.233 158.447 505.693 161.539 511.194 167.045C516.694 172.55 519.784 180.017 519.784 187.802Z" fill="#213344"></path><path d="M511.586 187.803C511.586 191.986 510.346 196.075 508.024 199.553C505.702 203.031 502.402 205.742 498.541 207.343C494.679 208.943 490.431 209.362 486.331 208.546C482.232 207.73 478.467 205.716 475.512 202.758C472.556 199.8 470.544 196.031 469.728 191.929C468.913 187.826 469.331 183.573 470.931 179.709C472.53 175.844 475.239 172.541 478.714 170.217C482.189 167.893 486.275 166.653 490.454 166.653C496.059 166.653 501.433 168.881 505.396 172.847C509.359 176.814 511.586 182.193 511.586 187.803Z" fill="white"></path><path d="M491.552 188.918C491.549 189.434 491.393 189.936 491.104 190.363C490.816 190.79 490.408 191.122 489.931 191.317C489.454 191.512 488.931 191.561 488.426 191.458C487.921 191.356 487.458 191.106 487.095 190.74C486.733 190.374 486.486 189.91 486.387 189.404C486.288 188.898 486.34 188.374 486.538 187.899C486.736 187.423 487.07 187.016 487.498 186.73C487.927 186.444 488.43 186.292 488.945 186.292C489.289 186.292 489.629 186.36 489.947 186.492C490.264 186.624 490.552 186.818 490.795 187.062C491.037 187.306 491.229 187.596 491.359 187.914C491.489 188.233 491.554 188.574 491.552 188.918Z" fill="#FFCE26"></path><path d="M490.456 209.364C486.209 209.358 482.059 208.091 478.53 205.726C475.001 203.361 472.252 200.002 470.629 196.074C469.006 192.146 468.582 187.824 469.411 183.655C470.24 179.486 472.285 175.657 475.287 172.65C478.289 169.643 482.114 167.594 486.278 166.761C490.443 165.928 494.761 166.348 498.687 167.969C502.613 169.591 505.971 172.34 508.337 175.869C510.703 179.399 511.972 183.552 511.982 187.802C511.984 190.633 511.429 193.437 510.348 196.052C509.267 198.668 507.682 201.045 505.683 203.048C503.684 205.05 501.31 206.639 498.697 207.723C496.085 208.806 493.284 209.364 490.456 209.364ZM490.456 167.116C486.356 167.119 482.35 168.34 478.944 170.623C475.537 172.906 472.884 176.149 471.32 179.942C469.756 183.734 469.351 187.906 470.157 191.929C470.962 195.952 472.942 199.646 475.846 202.542C478.749 205.439 482.446 207.408 486.468 208.201C490.491 208.994 494.658 208.575 498.442 206.997C502.226 205.419 505.457 202.753 507.727 199.336C509.997 195.919 511.203 191.905 511.193 187.802C511.188 182.301 509.002 177.026 505.113 173.137C501.225 169.249 495.953 167.064 490.456 167.064V167.116Z" fill="#213344"></path><path d="M490.456 217.742C484.541 217.735 478.761 215.973 473.846 212.68C468.931 209.386 465.102 204.707 462.843 199.236C460.585 193.765 459.997 187.746 461.155 181.94C462.313 176.135 465.165 170.804 469.35 166.62C473.535 162.436 478.865 159.588 484.667 158.436C490.468 157.283 496.481 157.878 501.945 160.145C507.409 162.412 512.079 166.25 515.365 171.172C518.65 176.095 520.404 181.882 520.404 187.802C520.395 195.746 517.235 203.361 511.62 208.975C506.005 214.589 498.392 217.742 490.456 217.742ZM490.456 158.653C484.689 158.653 479.051 160.364 474.256 163.571C469.461 166.778 465.723 171.336 463.516 176.668C461.309 182.001 460.732 187.869 461.857 193.53C462.982 199.191 465.759 204.392 469.837 208.473C473.915 212.555 479.111 215.334 484.767 216.46C490.423 217.586 496.286 217.008 501.614 214.799C506.942 212.591 511.497 208.85 514.701 204.051C517.905 199.251 519.615 193.609 519.615 187.837C519.615 184.004 518.861 180.209 517.395 176.668C515.93 173.128 513.782 169.91 511.074 167.2C508.367 164.49 505.152 162.341 501.614 160.874C498.077 159.407 494.285 158.653 490.456 158.653Z" fill="#213344"></path><path d="M490.456 190.481C489.936 190.477 489.428 190.32 488.997 190.029C488.566 189.738 488.23 189.326 488.031 188.844C487.833 188.363 487.781 187.834 487.882 187.323C487.983 186.812 488.233 186.343 488.6 185.973C488.966 185.604 489.434 185.351 489.944 185.247C490.453 185.142 490.982 185.191 491.465 185.386C491.947 185.582 492.361 185.915 492.654 186.345C492.948 186.775 493.108 187.282 493.115 187.802C493.119 188.154 493.054 188.503 492.922 188.829C492.79 189.155 492.595 189.451 492.347 189.7C492.1 189.95 491.805 190.147 491.48 190.281C491.156 190.415 490.807 190.483 490.456 190.481ZM490.456 185.966C490.086 185.966 489.725 186.075 489.417 186.281C489.11 186.487 488.87 186.779 488.729 187.121C488.587 187.463 488.55 187.839 488.622 188.202C488.695 188.565 488.873 188.898 489.134 189.16C489.396 189.422 489.729 189.6 490.091 189.672C490.454 189.744 490.83 189.707 491.172 189.566C491.513 189.424 491.805 189.184 492.011 188.876C492.216 188.569 492.326 188.207 492.326 187.837C492.33 187.588 492.285 187.341 492.193 187.11C492.101 186.879 491.964 186.669 491.79 186.491C491.616 186.314 491.409 186.173 491.18 186.077C490.951 185.981 490.705 185.931 490.456 185.931V185.966Z" fill="#213344"></path><path d="M482.496 197.965C482.204 197.33 488.637 189.227 488.637 189.227C489.254 189.708 482.805 197.811 482.805 197.811C482.77 197.86 482.724 197.9 482.67 197.927C482.616 197.954 482.556 197.967 482.496 197.965Z" fill="#213344"></path><path d="M491.123 186.034C490.746 185.554 494.382 170.446 494.382 170.446C495.137 170.635 491.518 185.742 491.518 185.742C491.492 185.827 491.44 185.901 491.369 185.954C491.298 186.006 491.212 186.034 491.123 186.034Z" fill="#213344"></path><path d="M490.454 175.03C490.154 173.302 490.028 171.548 490.077 169.794C490.849 169.794 490.849 174.652 490.849 174.652C490.849 174.703 490.838 174.754 490.818 174.801C490.798 174.848 490.769 174.89 490.732 174.926C490.695 174.961 490.652 174.988 490.604 175.006C490.556 175.024 490.505 175.032 490.454 175.03Z" fill="#213344"></path><path d="M490.456 206.274C490.156 204.54 490.03 202.78 490.079 201.021C490.85 201.021 490.85 205.879 490.85 205.879C490.85 205.984 490.809 206.085 490.735 206.159C490.661 206.233 490.561 206.274 490.456 206.274Z" fill="#213344"></path><path d="M508.551 188.197H503.68C503.68 187.408 508.534 187.408 508.534 187.408C508.928 188.026 508.74 188.197 508.551 188.197Z" fill="#213344"></path><path d="M477.249 188.197H472.395C472.395 187.408 477.249 187.408 477.249 187.408C477.677 188.026 477.472 188.197 477.249 188.197Z" fill="#213344"></path></g><rect x="5" y="367.984" width="134.539" height="1.08871" rx="0.544355" fill="#213344"></rect><defs><filter id="filter0_d_3388_6134" x="78.5801" y="71.9062" width="48.8594" height="47.1112" filterUnits="userSpaceOnUse" color-interpolation-filters="sRGB"><feFlood flood-opacity="0" result="BackgroundImageFix"></feFlood><feColorMatrix in="SourceAlpha" type="matrix" values="0 0 0 0 0 0 0 0 0 0 0 0 0 0 0 0 0 0 127 0" result="hardAlpha"></feColorMatrix><feOffset dy="2"></feOffset><feGaussianBlur stdDeviation="4"></feGaussianBlur><feColorMatrix type="matrix" values="0 0 0 0 0 0 0 0 0 0.0784314 0 0 0 0 0.156863 0 0 0 0.16 0"></feColorMatrix><feBlend mode="normal" in2="BackgroundImageFix" result="effect1_dropShadow_3388_6134"></feBlend><feBlend mode="normal" in="SourceGraphic" in2="effect1_dropShadow_3388_6134" result="shape"></feBlend></filter><filter id="filter1_d_3388_6134" x="477.643" y="262.608" width="48.8594" height="47.1112" filterUnits="userSpaceOnUse" color-interpolation-filters="sRGB"><feFlood flood-opacity="0" result="BackgroundImageFix"></feFlood><feColorMatrix in="SourceAlpha" type="matrix" values="0 0 0 0 0 0 0 0 0 0 0 0 0 0 0 0 0 0 127 0" result="hardAlpha"></feColorMatrix><feOffset dy="2"></feOffset><feGaussianBlur stdDeviation="4"></feGaussianBlur><feColorMatrix type="matrix" values="0 0 0 0 0 0 0 0 0 0.0784314 0 0 0 0 0.156863 0 0 0 0.16 0"></feColorMatrix><feBlend mode="normal" in2="BackgroundImageFix" result="effect1_dropShadow_3388_6134"></feBlend><feBlend mode="normal" in="SourceGraphic" in2="effect1_dropShadow_3388_6134" result="shape"></feBlend></filter><clipPath id="clip0_3388_6134"><rect width="483.387" height="405" fill="white"></rect></clipPath><clipPath id="clip1_3388_6134"><rect width="89.5145" height="43.8797" fill="white" transform="translate(105 118)"></rect></clipPath><clipPath id="clip2_3388_6134"><rect width="44.1805" height="50.7479" fill="white" transform="translate(363.908 200.323) rotate(15.2448)"></rect></clipPath><clipPath id="clip3_3388_6134"><rect width="59.879" height="59.879" fill="white" transform="translate(460.523 157.863)"></rect></clipPath></defs></svg>